<?xml version="1.0" encoding="utf-8"?>
<!-- Generator: Adobe Illustrator 27.5.0, SVG Export Plug-In . SVG Version: 6.00 Build 0)  -->
<svg version="1.1" id="Layer_1" xmlns="http://www.w3.org/2000/svg" xmlns:xlink="http://www.w3.org/1999/xlink" x="0px" y="0px"
	 viewBox="0 0 800 800" style="enable-background:new 0 0 800 800;" xml:space="preserve">
<g>
	<polygon points="124.911,481.599 121.504,479.706 115.445,479.706 112.416,481.22 109.765,484.249 108.251,487.657 
		108.251,491.065 109.765,494.852 113.173,497.881 116.581,499.017 119.232,499.017 121.125,498.638 124.533,497.124 
		127.183,494.094 128.319,490.686 128.319,488.036 127.183,484.628 	"/>
	<path d="M628.515,354.373l-2.272,0.757h-3.786l-0.757-0.379l-4.922-1.136l-2.272-2.651l-4.165-2.272l-5.68-2.272l-6.437-1.515
		h-10.224l-4.922,1.515l-3.786,2.272l-1.515,1.893l-1.136,2.651l-0.379,3.029h-3.029l-1.136,0.757l-1.893,3.029l-2.272,1.136h-3.408
		l-4.165-0.757l-2.272-1.515l-1.515-1.893h-0.757v-0.757h-0.757v-0.757l-2.651-1.893l-1.515-2.272l0.379-3.029l3.408-6.058v-3.408
		l-0.757-1.515l-3.408-2.651l-1.136-2.651l3.408,0.379l1.136-1.136l3.408-2.651l1.515-2.272l0.379-5.68l-1.136-1.893l-3.408-3.029
		l-0.379-1.515l2.272-0.757h2.651l1.893,0.379l4.922,1.893l6.816,1.893l4.544,0.757h3.408l2.651-1.136l2.651-2.651v-3.029
		l-0.379-0.379l-1.136-0.757l-3.525-2.468l-0.45-0.751l-0.46-1.379l0.46-1.839l0.568-1.515l6.437-2.651l1.136-1.136l-0.379-3.408
		l-1.893-1.893h-3.408l-3.029,1.136l-1.515-0.379v-2.272l0.379-0.379l3.786-1.893l4.165-1.515l1.893-1.893l-0.379-2.272
		l-1.136-2.651l-4.922-1.515l-3.408-1.893l-1.515-1.893v-2.651l0.757-1.136l2.651-0.379l1.136,0.757h1.515l2.272-1.515l4.544-1.515
		l1.515-1.893l3.029-5.301l0.379-3.029l6.437,0.379l2.651,1.136h12.117l5.301-2.272l2.651,0.757H627l1.515-0.757l3.408-3.029
		l1.893-4.544l0.379-4.165l0.757-1.893l2.272-2.651l3.408-2.651h10.602l0.379,0.379l0.379,3.408l0.379,0.757l1.515,1.515h3.786
		l1.136,1.515l1.893,1.515h2.272l1.893-1.136l1.136-2.272l-0.379-3.029l-3.408-4.922l0.757-6.816l0.757-4.922l6.437-6.437
		l5.68-2.272l1.893-1.893l0.757-2.651l-0.757-2.651l-1.893-1.893h-4.165l-3.029,0.757l-1.893,2.272l-2.272-0.757l-1.114-0.334
		l-0.022-0.045l-2.651-0.757l-3.408-1.515l-2.651-2.651l-2.651-3.786l-2.272-1.893h-5.301l-1.136-0.379h-3.786l-1.893,0.757
		l-1.515,1.515l-1.136,1.893v2.651l0.379,1.515l0.757,3.786l-3.029-0.379l-2.651-1.893l-2.651-3.029l-1.515-0.757h-4.922
		l-4.165,1.893v-2.272l-1.515-2.651l-0.206-0.103l-0.172-0.275l-1.237-0.707l0.101-0.05l-1.515-0.757l-1.893,0.379l-2.272,3.029
		l-0.757,3.786l-0.379,0.379h-1.893l-1.515-3.029l-4.544-7.194l-1.893-0.379l-1.515,0.757l-1.893-0.379l-2.651-5.301l-1.515-6.058
		v-3.029l-1.136-3.786l-1.893-2.272l-2.272-0.379l-1.893,1.136l-1.136,2.651l-1.136,4.544l-0.379,3.408l-0.379,6.437l-3.029,1.136
		l-0.757,1.515l0.379,5.68l0.757,1.893l2.272,3.786l3.029,3.786l0.379,1.893l-3.029,1.136l-1.893,2.651l-1.893,1.893l-1.893,0.379
		l-1.515-3.408l-1.515-0.757l-3.995-2.906l-1.319-1.612l0.013-0.026l-1.893-2.272l-4.544-2.272v-1.893l-1.515-1.893l-0.379-1.515
		l1.515,0.757h1.893l1.515-1.515l0.379-2.651l-1.136-1.515l-2.272-0.757l-1.893,1.136l-0.757,1.515l-1.893-0.379l-2.272-0.379
		l-3.029,1.136h-2.272l-1.136,0.757l-1.515,1.893l-2.651,2.272l-1.893,1.893l0.379,1.136l3.408,0.379l-0.379,1.893l-0.757,0.757
		l-0.757,3.029l-0.757,0.757l0.379,1.893l-2.272,3.029l-1.136,3.786h-1.515l-0.757-1.136l-0.379-1.515l0.757-0.757l1.136-1.893
		l-0.379-6.058l-1.893-3.029l-0.379-1.515h2.272l1.515-0.757l0.757-1.515l-1.893-0.757l-1.136-1.893h-1.893l-2.651,1.136
		l-1.515-0.379l-1.515,0.379v-0.757l0.757-1.515l2.651-0.379v-1.515l-0.757-0.757l-3.029,0.379l-1.136,2.272l-1.515-0.379
		l-0.757-1.136l0.379-2.272l-0.379-2.651l0.757-0.757l2.272-0.379l0.757-2.272h2.272l4.922-3.786l0.379-1.893l-4.544,0.379v-1.136
		l1.893-1.136l0.379-1.515h-2.272v-1.136l1.515-1.893l1.893-1.893l2.272-0.757l1.515-1.136l0.379-1.893l-1.893-0.379l-3.786,1.893
		l-2.272-0.379l-0.379-1.893l-0.379-2.651l0.379-0.379l0.379-1.893l-1.893-0.379l-1.515-1.136l-1.893-0.379l-2.272,1.893
		l-1.893,1.136l0.379-1.136l1.136-1.136l1.136-2.651l2.651-2.651l1.136-2.272l2.272-1.893l1.893-1.893l0.757-3.029l0.379-3.786
		l0.379-3.029v-2.651l-0.757-0.757l-1.893-0.379l-1.136,2.651l-2.272,1.515l-1.136,2.651l-1.515,0.757l-1.893,1.515l-0.379,4.922
		l-0.379,0.757l-2.272,1.893l-1.136,4.544l-1.515,2.651l-0.379,2.651l-1.515,0.379h-3.029l0.379-3.408l-1.136-1.515l-2.651-1.136
		v-0.757l2.651-4.544l1.136-4.922l0.379-3.029l-0.757-0.757l-1.515,0.757l-1.136,3.408l-1.893,4.165l-3.029,1.515l-0.757,2.651
		l-0.757,1.893l1.136,3.786l-1.515,0.757v2.272h-0.757l-1.136,1.136l-0.757,3.408h-0.757L498.259,173l-2.651,0.379l0.379,2.272
		l-0.757,1.893l-3.786,1.893l-2.272-1.136l-0.379-1.893l1.136-1.515l0.757-1.515l-1.893-2.272l-1.893-0.757l-3.408-0.379
		l-0.379,0.379L480.084,173l-2.272-0.379l-1.893-1.515v-3.786l0.379-0.757l1.893-1.515l3.786-2.651v-1.893l0.379-2.651l0.757-0.379
		h3.029l3.408-2.651l1.515-2.272v-2.651l-1.136-2.651l-0.379-1.893h1.515l0.379,1.893l1.515,4.165l2.272,1.893h2.272l0.757-1.515
		l-0.379-1.893l-1.893-4.544l-1.515-1.515v-1.136l2.272-2.651v-1.893l-1.136-1.893l-1.136-0.379v-2.651h-0.757l-0.379,0.379
		l-0.757,1.893l-1.893,3.786l-3.786,0.379l-0.757,0.379l-2.651,2.272l-1.515,3.029l-1.515,2.272l-0.757,1.515h-0.757l-0.757,1.136
		l-0.757,3.408l-2.651,4.165l-1.515,1.515l-0.757,1.515l-0.757,3.029l-2.272,4.544l-1.893,0.379l-1.893-1.893l-1.136-6.058
		l-0.379-4.165l0.379-0.379l0.379-1.893l-1.136-1.515l0.379-1.893v-3.786l-0.757-1.893l-2.651-4.165l-2.651-3.408l-3.786-2.651
		l-0.865-0.433l-0.649-1.082l-0.909-0.454l-0.227-0.682l-1.515-3.408l-0.379-3.786l0.757-0.757l5.301-0.757l0.379-0.379l0.379-4.165
		l0.379-0.379l0.379-1.515l-0.757-1.893l-0.379-4.165l-0.379-3.786l0.757-2.272v-3.029l-2.693-1.346l-0.337-1.683l1.893-0.379
		l1.515,0.757l1.893,0.379l0.379-0.757l-0.379-1.893l-0.757-3.029l0.379-1.893v-2.651l1.893-3.786l3.029-2.272v-1.515l-0.757-0.757
		l0.757-6.058l1.136-2.651V69.25l-0.757-1.515l-0.757-3.408l-1.893-2.651h-4.544l-0.379,0.379l-1.893,1.893v3.408l3.029,4.165
		l1.515,0.757v1.515l-1.515,1.515l-0.379,3.408l-0.379,0.379l-0.379,1.893l2.651,0.379l0.379,1.136l-3.282,6.891l-1.641,2.953
		l-2.272,3.786l-1.136,2.272l-3.029,1.893l-1.136,3.408l-2.272,3.029l-1.136,2.651l1.136,2.272v3.408l-1.515,0.379l-1.136,1.893
		l-0.379,6.058l0.379,2.651l-0.757,1.136l-0.379,1.515l0.757,1.136l1.893,1.136l2.651,0.379v3.786l1.893,2.651l2.272,4.544
		l0.379,5.68l-3.029-0.379l-0.379,1.136l2.272,1.136l0.757,2.651l2.651,1.515l-0.379,1.136l-0.379,1.893l1.136,0.757l1.136-0.379
		v-2.272l0.757,0.379v3.408l1.893-0.379l1.136,2.272h0.757v0.757l1.515,2.272l-2.651-1.515l-3.029,0.379l-1.136,1.515l-1.515,0.379
		l-0.379-3.786l-3.786-3.029l-0.379-2.651l-2.651-0.757l-2.651-1.893l-1.893,0.379l-1.893,2.272v2.272l1.893,1.515l3.408-0.379
		l1.893-0.379l1.136,1.893l1.515,1.893l2.651,3.029v6.437l-1.136,1.136l-0.757,1.893l1.136,1.515l3.029-0.379l-0.379,1.893
		l-1.136,0.379l0.379,2.272h2.651l0.379,1.515l1.893,3.029l0.379,4.165l0.379,0.757l-0.379,1.515v3.029l1.136,1.515l0.379,3.408
		h-1.136v-0.757l-1.136-1.515l-1.515-2.651l-1.893-1.893l-2.651-4.165l-0.757-6.058l-0.757-1.515l-2.272-0.757v-1.136l-2.272-4.165
		L442.977,173l-2.272-0.379l-1.515,1.136v7.952l1.136,2.272l-0.379,1.893l-1.893,1.136l-1.515,1.515l0.757,2.651v2.272l-2.272,2.272
		l-0.757,2.272l0.116,0.932l-0.116,0.583l0.267,0.624l0.111,0.891l0.473,0.473l0.284,0.663l2.651,2.272l2.209,2.524l0.505,1.01
		l0.18,1.442l-0.622,3.732l-1.515,4.544l-0.757,3.029l3.408,4.544l2.272,4.544l1.136,1.515l2.272,1.515v1.893l-1.893,2.651
		l-2.651,4.165v4.544l-2.651,1.893l-1.893,0.379l-1.893-2.272l-3.408-2.651h-1.893l-1.515,1.136l-1.515,2.272v3.786l0.757,1.623
		v0.27l1.893,3.786l0.379,4.165l-1.136,2.272l-4.165,4.544l-1.893,1.893l-2.272,0.757l-5.68,1.515l-2.651,2.272l-0.757,1.515h-0.757
		l-1.893,2.272v2.272l1.136,1.515l2.651,1.515v1.136l-4.165,1.515l-0.379,1.136h-0.757l-1.893-0.757l-6.058-1.515h-7.194
		l-4.922,1.515l-3.408,3.029l-1.893,0.379v-1.515l1.893-3.786l0.379-2.651l-0.757-3.408l-2.651-2.272l-2.651-0.379l-1.515,0.757
		l-1.893,2.272v5.301l0.379,1.136l-0.379,5.301l0.379,3.408v4.544l-1.515,1.136l-4.165,2.272l-4.544,1.136l-15.146-0.379
		l-9.088-1.893l-6.058-0.379l-2.651-0.757l-3.029-1.893l0.379-3.408l-0.757-1.893l-2.272-1.515h-2.272l-1.136,0.757l-1.515,2.272
		l-0.757,2.272l-2.651,0.757l-6.058,1.515l-3.029-0.379l-2.272-1.893l-1.515-0.757v-0.757l-2.272-2.272l-4.922-4.544l-3.029-2.651
		l-1.893-2.272l-0.487-0.406l-0.649-0.73l-2.651-3.786l-2.272-1.515h-2.272l-0.757,0.379l-1.515,1.893l0.379,2.651l1.893,2.272
		l4.165,2.651l1.893,1.515l1.515,0.757v0.757l1.515,1.893l2.272,1.893l3.029,4.922l0.379,2.651l-1.136,0.757l-3.029,2.651
		l-2.272,4.544l-1.704,1.704l-1.325,0.947l-4.165,3.029l-4.165,1.136l-5.301-0.757l-1.893-1.136l-7.194-2.272h-3.029l-0.757,0.379
		l-3.029,2.651l-1.136,2.651l-0.757,3.408l-1.136,2.651l-1.515,0.757h-5.301l-2.272-1.136l-4.922-1.136l-4.544-3.408l-5.301-3.029
		l-4.828-2.556l-0.095-0.095l-0.194-0.058l-1.32-0.699l-3.786-2.651l-2.272-3.786l-3.029-1.893l-2.651-0.379l-1.515,0.757
		l-1.515,1.893l-0.379,1.893l0.757,1.893l2.272,1.893l6.058,1.515l4.009,1.671l3.564,2.495l1.287,0.909l2.878,2.12l1.282,0.816
		l0.99,0.699l4.165,2.651l0.303,0.151l3.862,2.499l4.165,3.786l4.165,3.029l1.515,3.029l0.379,4.544l0.379,0.379l1.893,3.786
		l0.757,2.651v3.408l-3.029,0.757l-4.544,2.272l-0.757,1.515h-0.757l-1.515,1.136l-6.058-1.515l-3.029-0.379l-2.651,1.136h-2.651
		l-2.272,0.757l-3.786,0.379l-3.029,1.515l-0.757,1.515h-0.757l-1.515,1.893l-3.408,1.136l-3.408,1.515l-2.272,2.651l-0.757,1.893
		l-3.408,0.757l-0.437,0.291l-0.32,0.087l-0.379,0.379l-2.272,1.515l-2.651,0.757l-7.194-0.379l-3.408-1.136h-4.544l-4.165,1.893
		l-0.379,1.136l2.651,0.757l1.136,0.757l3.786,1.136h7.194l5.68,0.757l5.68,2.651l2.272,0.757l-0.379,1.893h-3.029l-0.379-0.379
		l-0.252,0.063l-1.641-0.82h-4.165l-0.757,0.379l-1.136,1.136l-0.379,0.379v2.272l1.136,1.515l2.651,1.136l4.165-0.379h5.68
		l2.759,0.92l2.164,1.352l4.165,3.029l0.379,1.136l-1.893,1.515l-3.786,0.757l-2.272,0.757l-1.515,1.515l-0.518,1.036l-0.888,0.478
		h-0.108l-3.408,1.893l-1.893,1.515l-2.651,0.379l-3.029,0.757l-1.893,1.515l-0.379,1.893l1.136,1.515l3.029,1.893l3.786,2.272
		l3.786,1.136h4.165l2.651,0.379l1.515,1.515l3.408,3.786l2.272,1.515h4.544l1.893,0.757l1.515,0.757v2.272l-0.757,3.408
		l-1.515,2.651l-0.606,1.818l-0.909,0.454l-2.651,1.515l-1.515,1.515l-0.757,2.272l0.379,3.029l4.922,4.544l0.379,1.893
		l-1.515,3.408l-2.651,3.029l-0.757,3.408l-1.515,3.029h-3.029l-0.757-0.379l-2.272-0.379l-1.136,1.136v2.272l1.136,0.757v1.893
		l-2.651,3.029v2.651l1.515,4.165l0.379,1.893l-3.408,1.515l-1.893,2.651h-1.136l-3.408-1.893l-3.029-2.272h-1.893l-0.379,0.379
		l-0.379,1.515l0.757,0.757l3.786,2.272l2.651,2.272l2.272,1.515l-0.379,6.058l-0.379,0.379l-5.68,0.757l-1.136,0.757l-1.515,0.757
		l-0.757-1.136l-6.058-1.515l-1.893-2.651l-2.272-1.893h-2.272l-0.757,0.757v1.893l0.379,0.433v0.325l2.272,2.272l1.136,1.893
		l-0.379,2.272h-1.515l-2.651-0.757l-2.651,0.379l-0.757,1.515l0.379,1.515l0.757,0.379l3.408,0.379l1.893,0.757l3.408,2.272
		l1.893,1.893l-0.379,2.272h-2.272l-1.515-1.515l-3.029-2.272h-2.651l-1.515,1.136l-0.757,2.272h-0.757v0.757h-5.301l-0.757,0.757
		v2.651l0.757,0.757l3.408,0.379l2.272-0.757l-0.379,3.408l3.029,3.029l2.651,0.379l5.301-2.651l2.651-0.379l2.272,0.757
		l-0.379,4.544l-1.515,3.029l-2.272,1.136h-3.408l-1.893,0.379l-3.029,2.272l-1.893,0.379v-0.757l-1.893-1.893l-2.651,0.379h-2.272
		l-1.515-1.515l-9.088-1.893l-3.029-1.136l-3.786-3.408h-2.272l-0.757,0.757l-0.379,2.651l0.757,0.757l5.301,3.786h2.651
		l1.893,0.379l3.029,0.757v1.136l-3.786-0.379l-0.379,1.893l1.136,1.136l3.408,0.757l2.272,1.893l0.379,1.893l-1.136,1.136h-1.893
		l-2.272-1.893l-1.893-1.136h-4.544l-0.757-0.379l-1.893-1.515l-1.515,0.379h-3.786l-0.757-1.136l-0.117-0.029l-0.262-0.35
		l-0.568,0.142l-0.568-0.142l-0.379,0.379h-1.325l-0.947-0.379l-0.688,0.138l-0.826-0.138l-0.379,0.379l-0.379,1.893l2.651,3.029
		l0.757,1.893h-3.029l-2.272-0.757l-3.408-0.379l-0.379,0.757l0.379,4.165h-6.437l-0.757,0.379l-0.757,0.379l-0.076,0.454
		l-0.303,0.303v2.272l1.136,1.136l0.379,1.893l-0.757,1.515l-4.544,0.757l-3.029,1.893l-2.272,2.651l-1.515,4.544l-0.379,5.301
		h-4.165l-0.379,0.379h-0.379l-1.136,1.515h-3.029l-1.136,0.757l-0.379,2.272l-0.379,2.651l-1.893,1.515l-1.893,1.893l-2.272,4.544
		l-3.786,0.757l-1.515,1.515l0.379,2.651l2.272,1.136h2.272l0.379-0.379l1.893-0.379h0.757l0.865-0.649l0.27-0.108l0.103-0.172
		l0.275-0.207l1.136-2.272l3.029-1.515l1.136-3.029l0.757-0.757l3.786-0.757l1.515-2.651l2.272-0.757l-0.379-1.136h-0.757
		l0.379-1.893l3.029-3.786v-3.029h9.845l1.893-1.136l3.786-1.893l4.544-1.136l-0.379,1.136l-2.651,3.408l-3.408,2.272l-9.088,3.786
		l-0.757,1.893l1.515,1.893v2.272l-0.379,0.379l-3.029,2.272l-3.029,2.651l-0.379,2.651l1.515,1.136h4.544l4.544-1.515l1.515-1.515
		l0.379-0.379l-0.108-0.433l0.865-2.596l2.651-1.136l3.408-2.272l1.515-1.893l0.757-4.165l1.515-2.272v-3.786l0.757-1.136
		l6.816-1.893l2.651-2.272l0.757-1.515l1.893-0.757h0.757h3.408l3.408-0.757h5.68l1.515,0.757H173l0.757-0.757l1.515,0.379
		l1.893,0.379l0.757-0.757l1.893-0.379l1.893,3.408l2.272,3.029h0.757v0.757l1.136,2.272v3.786l-0.757,2.272l-1.136,1.515
		l-5.301,3.029l-3.029,3.408v2.272l0.757,1.893v3.029l-0.379,2.272l-1.136,0.379l-3.029-2.651l-1.515,0.379l-0.757,1.515v3.029
		l-1.136,0.379l-1.136,1.136v1.893l0.379,0.379l0.379,2.651l-0.757,1.515h-0.757v2.272l2.651,1.136l-0.379,3.408l2.651,0.757v1.893
		l-3.029,4.165l-3.408,2.651l-3.029,4.165l-2.272,3.408v6.437l0.757,1.893l0.379,2.272l-1.893,4.544l-0.757,1.893h-0.757
		l-0.379,1.893l1.136,1.515h3.029l1.136-1.136l1.515-2.272l2.651-1.515l1.515-2.272l0.379-3.786l0.379-0.757l0.284-1.136h0.095
		l0.757-3.408l0.757-0.757v-0.189l0.757-0.947l-0.379-1.893l0.379-4.165l-1.893-0.757l-0.379-1.515l3.408-4.922l6.816-1.136
		l1.893-1.893l1.515-3.786l0.379-4.544l-0.757-1.893l-3.029-2.651l-0.379-1.515l2.272-3.029l1.515-4.544l3.029-6.058l1.136-3.786
		l4.165,1.136l3.029-0.757l1.893-2.272v-4.165l-1.136-2.651l1.136,0.379h2.651l1.515-0.757l0.757-2.272l-1.136-2.651l-1.893-1.515
		l-2.651-2.651l-0.379-1.893l0.757-0.379l2.651-2.272l0.757-4.922l1.515-0.757l3.408-0.757h3.786v3.786l0.757,1.515l2.272,0.757
		l1.893-1.515v-3.029l-0.379-1.136l0.379-2.272l1.515-1.893l7.194-3.408l0.757-2.651l2.651-2.651l0.757-0.757h1.136l1.515,0.505
		l0.784,0.523l0.352,3.516l1.136,2.272l1.136,3.786l1.136,1.515l1.515,0.379l0.757-0.757v-4.165l1.136-1.893l2.272-0.379v0.757
		l0.757,0.379l1.515-0.379l0.757-6.437l0.757-0.757l3.029-0.379l0.757,2.651l0.757,1.136l2.651,1.136l3.029,1.515l0.379,3.408
		l0.757,0.757l1.515,0.379l3.408-1.136l1.136-2.651l-1.136-4.165v-2.272l0.379-0.757l1.893-3.408l0.757-3.786l0.379-0.379
		l3.408-0.757l14.01-4.165l1.893,0.379l1.515,1.893l2.651,4.544l1.515,3.786l0.757,7.573l0.379,0.757l0.379,3.786l-1.893,2.651
		l-3.029,3.786l-1.515,4.922l-1.136,1.136v4.165l2.272,1.136l0.757,1.893l1.515,2.272l3.029,2.272l1.893,1.515l0.379,3.408
		l-0.757,3.786v5.68l0.379,3.408v3.786l-2.651,1.515v0.757h-0.757l-1.136,1.893l-0.757,2.651h-2.651l-0.379,1.515l0.757,0.757v3.029
		l1.515,0.757l0.379,5.301l1.515,4.165l2.272,3.786l3.029,2.651l3.408,1.136l2.651-0.379l2.272-1.515l2.272-2.651l1.515-3.029
		l1.136-5.301v-6.437l-0.757-3.408l-1.893-3.408l-2.272-1.893l-3.408-2.272l-0.379-4.544l-1.136-4.544l0.757-6.058l1.136-3.786
		l3.786-3.786l3.029-4.165l0.757-1.515h0.757l0.757-1.136v-2.651l-1.515-1.515l-0.757-3.786l-0.379-0.379l-4.165-5.301l-0.757-3.029
		l0.379-3.786l1.893-6.437l-0.025-0.101l0.404-1.414l1.136-1.515l9.845-0.379l1.136-0.379h2.651l1.515,1.136l4.165,2.651
		l3.786,1.515h5.68l4.544-2.272l2.272-0.757l2.651,2.272l2.272,3.408l2.272,5.68l1.136,9.088l1.136,4.922v4.165l-1.515,2.651
		l-0.379,1.893l1.136,1.893l2.272,1.136l2.272-0.379l1.893-2.272l0.379-2.651l-1.515-3.408v-3.786l0.947-2.272l2.461-4.922
		l-0.076-0.227l0.454-0.909l1.136-2.272l1.893-1.893h2.651l4.544,2.651l2.651,2.651l1.136,3.408v14.389l1.893,4.165l1.515,3.408
		l1.136,6.058l1.136,4.544l0.379,8.33l0.379,2.272l0.379,6.437l-1.136,3.029l-1.893,4.165v5.301l0.379,1.515l-0.379,3.408
		l-1.515,3.786l-1.515,6.437v9.845l1.515,7.573l1.893,6.816l1.515,7.952l0.379,5.301l-1.136,6.058l-1.893,5.301l-1.515,6.816v3.408
		l0.757,4.544l1.893,5.68l0.379,10.602l-0.757,2.272l-0.379,3.408l-1.136,4.165v7.952l0.379,0.757l1.136,5.68l1.515,5.301
		l3.408,14.767l1.136,7.194l1.515,0.379l1.515-0.757l3.408-0.379l0.757-0.379l3.786-0.379l3.786-1.515l3.029-1.136v-1.893
		l-0.757-3.786l-0.379-7.194l-1.515-11.738v-3.786l0.379-5.301l-0.379-5.301l-1.893-7.952v-3.408l0.379-1.136l3.029-4.922
		l1.893-3.786l1.136-5.301v-5.68l-1.515-6.058l-2.272-5.68l-3.408-6.437v-3.029l1.893-6.058l4.922-13.253l1.893-7.194v-9.845
		l-1.136-4.544l-4.544-10.224l-2.272-6.816l-0.379-7.952l-0.379-1.515v-2.651l1.136-5.68l1.136-10.602v-5.68l-1.136-8.709
		l-0.379-12.117v-8.709l1.136-0.379l3.786-2.651l5.301-3.786l6.058-0.379l0.757-0.379l2.272-0.379l1.893,1.893l3.786,1.893h2.651
		l1.136-0.379l1.893-1.515l1.515-2.651v-2.651l-0.379-1.136l-1.893-3.786l-2.272-3.408l-1.893-3.408l0.379-1.136l1.893-0.757
		l1.136-1.136v-3.029l-0.379-0.379l-0.379-1.893l2.272-2.272l1.136-3.786l1.893-1.893l1.515-1.893l0.757-4.165l-0.757-4.165h4.165
		l3.029,0.379l3.786,3.029l4.544,1.515l6.058,1.136h4.165l4.544-1.136l0.757,2.651l1.893,1.893l4.922,2.651l1.515,3.408l2.272,3.029
		l1.136,1.515l3.786,4.922l1.515,3.029l0.757,4.544l0.379,6.437l1.136,2.651l3.786,3.786l1.893,3.408l1.893,1.515h2.651l1.515-1.515
		v-3.029l-2.272-3.786l-1.515-4.922l-2.272-4.544l-2.173-3.556l-0.099-0.231l-0.071-0.047l-1.822-2.982l-1.136-3.786l-0.379-5.68
		l-0.757-3.408v-4.922l1.136-0.757h6.437l1.515,0.379l1.136,4.544l1.136,2.272l1.893,2.272l3.408,2.272l4.544,1.893l3.029,1.515
		l1.136,4.544l2.272,4.544l3.029,2.651l3.029,1.136l3.408-0.757l2.651-2.272l1.515-3.029l1.041-4.165h0.095l0.379-1.893v-4.544
		l-1.515-5.68l-3.029-4.922l-3.029-3.029l-4.922-3.786l-4.544-2.272l-3.408-0.757h-6.058l-2.651-0.757l-6.058-0.757l-1.515-0.757
		h-4.544l-2.651-0.379l-3.029-1.515l-0.379-1.136v-4.165l-0.379-2.651l-1.515-4.922v-4.165l0.757-1.515l1.515-1.515h2.272
		l0.757,0.379h2.272l1.515-0.757l4.544-1.893h3.786l1.515,0.379l7.952,2.651l4.712,2.062l1.654,0.778l3.272,2.014l1.721,1.205
		l4.165,3.029l5.301,4.165l3.786,3.029l4.165,4.922l4.165,3.408l0.757,2.651l1.136,2.651l5.301,3.408l4.165,3.029l2.272,3.029
		l1.515,3.786l-4.922-2.651l-2.651-3.029l-4.165-4.165l-4.922-3.029l-6.437-2.651l-4.544-2.272l-5.301-3.029l-5.301-3.786
		l-4.922-3.786l-5.301-3.029l-4.165-3.029l-1.893-4.922l-1.893-1.515l-3.029-0.379l-1.515,0.757l-1.515,2.272l0.379,3.408
		l1.136,1.136l2.272,1.136l4.544,0.379l1.683,1.052l3.24,2.356l0.27,0.108l2.38,1.785l5.68,3.786l6.058,4.165l0.172,0.069
		l3.614,2.582l7.952,7.952l5.68,5.301l4.165,2.651l6.437,1.893l3.029,3.029l2.272,0.379l1.515-1.136l0.379-2.651l1.893,1.515
		l2.651,0.379l1.515-1.515v-2.651l-1.136-1.515l-3.786-2.272l-2.651-2.651l-3.408-6.058l-2.651-2.651l-3.029-2.272l-3.408-2.651
		l-3.029-2.651l-3.786-3.786l-1.515-1.515l-1.79-1.515l-1.239-1.136l-0.252-0.126l-1.641-1.388l-5.301-4.165l-3.029-2.272
		l-1.515-1.515l1.515-2.272l1.136-3.029v-4.165l-1.893-3.029l-1.893-1.893l-3.029-1.136l-3.029,0.379l-2.651,1.515l-2.272,3.029
		l-0.379,1.515l-2.651-1.515l-4.544-4.922l-3.786-4.922l-1.515-3.786v-4.922l0.379-1.136l1.515-0.757l1.515-1.136v-2.272
		l-1.515-2.651l0.757-1.515l0.757-1.893l1.515-0.379l9.088-0.757l1.515,1.515l2.651,3.029l4.165,1.515h2.651l1.136-0.757
		l0.175-0.291l0.583-0.466l0.069-0.62l0.31-0.516l-0.126-1.136l0.126-1.136h-0.252l-0.126-1.136l-1.893-1.893l-5.68-3.029
		l-3.408-1.893l-2.272-2.651l-2.272-5.68l-2.272-6.437v-4.544l0.757-3.029l2.272-3.786l3.408-3.408l6.058-4.544l0.757-0.379
		l3.786-1.893l3.408-0.757l1.893-0.757l2.272-0.379l2.272,0.757h10.981l0.757-0.379l3.029-3.786l1.893-0.379l7.194,1.893h3.786
		l1.136-0.379l8.709,0.379l8.709,1.136l5.301,0.379l4.165,0.757h4.544l3.029,0.757l3.786-0.379l5.301-2.272l4.544-0.379l0.379-0.379
		l0.379-2.272l-0.757-0.757l-8.709-0.379l-1.136-0.379h-3.029l-4.165,0.757h-3.786l-2.272,0.757h-10.981l-11.738-0.379l-2.651-1.515
		l-0.138-0.034l-0.62-0.344l-1.136-0.095l-1.136-0.284l-1.47,0.067l-0.802-0.067l-1.298,0.162l-4.76,0.216l-1.515-0.379
		l-2.272-1.515l-0.757-1.893l2.651,1.104v0.032l1.893,0.757l2.651-0.379l2.651-1.515l3.786-1.893l7.194-0.379l1.515-0.379
		l2.651-1.515l2.272-2.651h15.525l1.515,1.515l3.029,1.515l1.515,1.515l1.893,1.136l3.786,0.757l9.466,0.379l1.893,0.379
		l4.165,1.515l6.437,0.379l3.786,1.515l3.029,0.379l5.301-2.272l4.165-0.379l3.408-0.757l2.272-1.893l0.379-2.651l-1.515-1.893
		l-2.651-1.515l-1.893-1.515l-0.379-2.272l0.757-1.136l6.816-0.379l1.515-1.136l0.379-2.651l-2.272-1.893L628.515,354.373z
		 M160.126,526.279h-0.757v-0.757h0.757V526.279z M514.163,177.544l0.757,0.379l0.379,1.515l-1.136,0.379l-0.379-0.757
		L514.163,177.544z M574.747,271.827l-0.757,2.272h-1.515l-1.136-1.893l-0.379-2.651l0.379-0.379h0.568l-0.189,0.379h3.029
		l0.076-0.379h1.06l0.379,1.136L574.747,271.827z M467.589,222.224l-0.379-1.136h1.515L467.589,222.224z M519.767,184.208
		l0.076,0.151l-1.136,0.757l0.379-1.136L519.767,184.208z M466.832,226.011l-1.136,1.515l-2.272,0.757v1.515l-1.136,1.136
		l-1.893,0.379l-0.379-1.515l1.136-3.408l1.893-0.379v-1.515l0.757-0.757h2.272l0.379,0.379L466.832,226.011z M460.016,175.272
		l-0.379-0.379l-0.379-1.515l1.893-1.136l1.515,0.379l0.379,1.893l-0.757,0.757H460.016z M419.5,282.429l-1.893,0.379v-1.515
		l0.757-0.757l1.893,0.379L419.5,282.429z M545.969,210.865h1.515v2.903l-0.189,0.316l-0.568,0.568h-1.893l-0.379-0.379
		l-0.379-1.515L545.969,210.865z M527.037,218.059l4.165-0.379l0.757-2.651h0.757l1.893,1.515l-1.136,3.408l-1.893,2.272
		l-1.893,0.379l-0.757-0.757l0.757-1.893l-3.029,0.379l-0.379-1.893L527.037,218.059z M530.445,186.631h-1.515l0.379-1.515h0.757
		L530.445,186.631z M496.745,423.666h1.136l2.651,1.893v1.136l-3.408-1.515L496.745,423.666z M525.522,205.185l4.544,0.757v0.757
		l-2.651,2.272l-1.893,1.893l-1.515-0.757l-0.379-3.786l-0.379-2.651h0.757l0.379,1.136L525.522,205.185z M525.522,189.282
		l-1.515-0.379v-1.136l0.757-0.379l0.757,0.379V189.282z M530.445,176.029h0.757v0.757h-1.136L530.445,176.029z M500.91,175.65
		l3.786-0.757h1.893l0.757,0.757l5.301,0.757l0.379,0.379l0.379,1.515l-1.515,1.136l-0.757-0.379l-0.757-0.757h-3.029l-2.651-0.379
		h-4.165l-1.136-1.136L500.91,175.65z M491.065,182.845h-1.136l-0.757,2.272l-1.136,0.379l-0.757-3.029l-0.379-1.893l2.272,0.379
		l0.757,0.757h0.757L491.065,182.845z M221.467,531.959l-1.136,0.379l0.757-1.515h0.757L221.467,531.959z M223.026,529.064
		l2.227-2.784l0.126-0.337l0.597,0.199l0.034,0.138v2.272l-0.757,1.136h-1.893l-0.189-0.189L223.026,529.064z M224.875,533.095
		h0.757v0.757h-0.757V533.095z M191.175,503.939l-0.379-1.893h2.651l0.757,0.757l-0.379,1.893h-1.515L191.175,503.939z
		 M185.874,517.571l-0.379-1.515l0.757-0.379h0.757l0.757,1.515L185.874,517.571z M191.175,514.92v-1.136l2.651,0.379l-0.379,1.136
		l0.076,0.076l-0.076,0.303L191.175,514.92z M150.66,553.164l0.379,1.515h-0.757h-2.272l-0.757-0.379v-1.136H150.66z
		 M172.621,532.338h1.893l0.379,0.379l0.379,1.893h-0.757l-0.084,0.168l-1.052,0.21l-1.136-1.136L172.621,532.338z M146.494,561.872
		v-1.136h1.515v0.757L146.494,561.872z M192.69,556.571h-2.272l-0.379-0.379l0.757-1.136h1.893l0.757,0.757L192.69,556.571z
		 M241.157,533.474l-1.01-0.252l-0.126-0.126v-1.136l0.707-2.474l0.808,0.202l4.165,0.757v1.515h-1.893v0.379L241.157,533.474z"/>
	<polygon points="363.082,166.184 366.111,167.699 370.655,167.699 373.305,166.563 375.198,165.048 377.849,161.262 
		377.849,154.825 377.47,154.067 374.82,150.281 371.791,149.524 366.49,149.524 363.839,150.66 362.324,152.553 360.053,156.718 
		360.053,161.262 360.81,163.534 	"/>
	<polygon points="599.737,505.075 603.524,506.59 606.174,506.59 609.204,505.454 611.854,503.182 613.369,499.395 613.369,496.745 
		612.99,495.23 611.097,491.822 609.204,490.308 606.174,488.793 601.631,488.793 597.844,491.065 595.951,494.473 595.951,499.395 
		597.844,503.182 	"/>
	<path d="M601.631,672.059l0.757-0.379l1.136-1.136l-0.379-1.136l-2.651-2.272l-1.515-3.408l-1.515-0.379l-0.757,0.757h-2.272
		l-1.136-1.136l-2.272-1.136h-4.544l-0.757-0.379l-0.379-1.515l3.408-1.136l0.757-1.893l0.379-2.272l-0.757-0.757l-3.029-1.515
		l-2.651,0.757l-0.757-2.272l-1.136-1.515l-1.515,0.757l-1.515,0.379l-0.757-0.757l-4.922-1.136l-3.029-0.379l-3.029,1.515v-1.136
		h0.757l1.136-2.651v-6.437l-0.757-3.029l-2.272-3.786l-3.029-4.165l-3.029-1.136h-4.544l0.379-0.757l1.893-1.136l1.136-1.893
		v-2.651l-0.757-2.272l-1.136-4.165l-1.136-1.515l-3.029-0.379l-1.136,0.379l-1.136,1.136l-0.757,2.272l-2.651,3.029v3.408
		l1.136,2.272l3.029,2.651l-0.757,1.515l-3.408,3.786l-2.272,4.544v0.379v7.194l1.136,3.786l3.786,4.165l1.136,0.612v0.146
		l3.786,1.893l6.437,0.379l-0.757,2.272l0.757,1.515l0.379,1.893h-1.893l0.379,1.515l0.379,2.272l2.272,0.757l0.379,2.651
		l-0.379,6.437l-1.136,2.272l-0.379,1.893l0.757,1.136l1.515-0.379l1.893-2.272l0.757-2.651l2.272-1.893l1.893,0.379l1.136,1.893
		l1.515,1.515l1.893-0.379l2.272,0.379v2.272l-0.757,1.515v2.272l1.136,2.651l2.651,1.515h3.408l1.893-1.515l1.136-2.272
		l-0.379-4.165l1.515,0.379l2.651,2.272l1.136-0.379l0.757-1.515l1.515,0.757l1.515,0.379l0.757-1.893l3.408-1.136l1.136-1.893
		l1.136-0.757h2.272l0.379-1.515h1.136v-0.757l-3.408-0.379V672.059z M596.708,668.652l-0.379-1.515h0.757l0.379,1.136
		L596.708,668.652z M579.669,670.923h2.272l0.757,2.272l1.136,3.029l0.379,2.651l-1.136,0.379l-2.651-1.893l-1.893-3.408
		l-0.379-1.893L579.669,670.923z"/>
	<polygon points="633.816,187.767 634.573,188.903 635.33,192.311 636.088,193.068 637.981,193.068 639.874,191.554 
		642.146,191.932 644.418,191.932 645.554,190.039 647.447,187.767 648.583,185.874 648.583,182.845 647.826,180.951 
		645.933,179.058 645.933,177.922 645.554,176.029 643.661,176.408 639.874,176.029 639.496,176.408 636.088,176.786 
		635.709,178.301 634.952,180.194 633.059,182.087 634.195,183.223 	"/>
	<polygon points="520.978,610.718 520.6,609.582 518.328,606.553 515.299,605.039 512.648,605.039 510.755,605.796 508.483,607.689 
		506.59,610.718 506.59,614.126 507.726,617.155 509.24,619.049 512.269,620.563 515.677,620.563 517.571,619.806 519.464,618.291 
		520.978,614.883 	"/>
	<polygon points="722.798,451.307 714.847,451.686 708.031,450.55 700.458,448.278 694.4,447.142 678.875,445.249 672.059,442.977 
		668.652,442.219 662.972,442.219 659.564,441.462 655.399,438.812 652.748,438.433 651.612,438.812 649.719,440.705 
		649.34,443.355 650.098,444.87 652.37,446.385 654.642,446.385 657.292,445.627 660.7,445.627 664.865,446.763 671.302,448.278 
		678.118,448.656 688.72,451.307 698.565,453.579 709.546,454.715 715.983,456.229 719.769,458.123 723.177,458.501 
		724.692,457.744 725.828,455.851 725.449,453.2 	"/>
	<polygon points="710.303,198.748 712.954,199.884 716.361,199.884 718.633,199.127 720.905,197.233 722.041,194.204 
		722.041,191.175 720.526,188.146 717.497,185.874 713.711,185.495 711.06,186.253 708.788,188.146 707.274,190.418 
		707.274,194.583 708.41,196.855 	"/>
	<polygon points="377.47,116.581 379.742,117.717 383.529,117.717 385.422,116.96 387.694,115.067 388.83,112.795 388.83,108.629 
		388.451,107.115 385.801,104.464 383.529,103.328 380.5,103.328 377.849,104.086 376.334,105.6 374.82,107.872 374.82,113.173 
		375.198,113.931 	"/>
	<polygon points="86.668,482.735 87.425,481.22 86.668,479.327 84.017,478.948 82.503,480.842 83.639,483.113 80.231,483.492 
		78.716,484.249 76.444,487.279 76.444,491.444 79.095,494.473 81.367,495.609 84.017,495.609 85.911,494.852 88.561,491.822 
		88.561,486.521 87.046,484.628 	"/>
	<polygon points="619.427,478.191 615.262,478.191 613.369,476.676 608.825,474.026 604.281,472.133 598.602,471.754 
		590.65,470.997 584.97,469.103 581.184,467.589 572.475,463.424 564.902,461.909 562.63,460.773 560.358,458.123 557.707,455.851 
		553.164,451.686 549.377,449.414 545.212,449.414 542.94,450.55 541.425,452.443 540.289,455.851 540.668,459.259 541.425,460.773 
		544.076,463.802 547.105,465.317 550.892,465.696 556.193,463.802 561.494,463.802 564.902,464.938 570.581,468.346 
		576.64,469.861 583.834,472.133 589.514,474.405 594.436,477.434 600.495,481.22 605.417,483.113 611.097,483.113 614.883,482.735 
		616.777,483.871 619.427,485.385 622.456,485.385 623.971,484.249 624.35,481.599 622.456,479.327 	"/>
	<polygon points="121.125,375.956 125.29,374.82 131.348,374.82 132.106,375.198 136.271,376.713 142.329,376.334 146.116,374.82 
		148.766,374.82 158.233,375.956 161.64,375.956 166.941,375.198 176.029,375.198 178.68,374.82 178.68,373.684 174.136,372.927 
		169.213,372.927 166.941,372.169 160.504,371.033 156.718,371.033 152.931,371.791 144.98,371.791 144.601,371.412 
		140.057,369.897 134.756,369.897 132.106,370.655 129.455,371.412 125.669,371.412 122.261,370.276 119.61,369.519 
		118.096,369.897 116.581,371.412 116.581,374.441 117.717,375.577 	"/>
	<polygon points="68.114,414.578 72.658,414.199 77.202,415.714 81.367,415.335 88.182,413.063 104.843,413.063 109.387,413.821 
		113.552,413.821 116.202,413.442 123.018,413.442 127.183,414.199 131.348,413.821 135.892,413.442 137.785,414.199 
		140.436,414.199 142.329,412.685 142.329,410.034 141.193,408.52 138.543,408.141 135.892,408.898 132.863,408.898 131.727,408.52 
		117.338,408.52 110.901,408.141 105.979,408.898 98.027,409.277 93.484,409.656 90.076,409.656 86.289,408.898 82.881,407.762 
		77.58,407.005 74.551,407.762 71.143,409.656 67.357,410.034 65.842,411.549 66.221,413.442 	"/>
	<polygon points="151.417,655.399 151.038,654.263 149.524,653.506 147.63,654.642 144.601,658.807 142.329,660.321 
		140.436,662.593 138.543,667.516 138.543,671.681 139.3,672.059 141.572,670.166 144.98,665.622 147.63,662.215 150.281,661.836 
		153.31,659.564 153.689,657.671 151.417,656.913 	"/>
	<polygon points="751.197,331.654 747.789,331.654 745.517,331.275 742.109,333.547 736.051,335.062 730.75,336.576 730.75,337.334 
		731.507,337.712 733.779,337.334 742.488,336.198 745.517,336.955 747.789,336.576 750.061,334.683 754.984,335.062 
		756.498,333.926 761.042,331.654 761.042,330.139 754.226,330.139 	"/>
	<polygon points="330.139,116.96 332.032,118.096 333.168,119.989 335.062,122.261 337.334,123.775 339.984,123.775 341.12,123.018 
		342.635,121.125 343.013,118.853 341.499,116.202 339.227,114.688 336.955,114.688 336.198,115.067 333.926,115.067 
		331.654,113.173 329.761,112.416 329.382,113.931 330.897,114.688 	"/>
	<polygon points="142.329,613.747 140.815,616.019 140.815,618.67 141.572,620.185 144.222,622.456 147.63,622.456 148.766,622.078 
		150.281,620.563 151.417,617.534 150.66,614.883 148.766,612.99 145.737,612.233 143.844,612.612 	"/>
	<polygon points="312.721,545.591 310.828,544.455 308.178,544.455 306.663,545.212 304.391,548.241 304.012,552.028 
		304.77,552.785 308.178,553.921 310.071,555.814 311.585,556.193 312.343,553.542 314.236,549.377 313.857,547.484 	"/>
	<polygon points="328.246,155.582 331.275,155.582 333.547,154.067 334.683,152.174 334.683,149.145 334.304,148.388 
		333.093,147.327 332.032,146.116 331.708,146.116 331.275,145.737 328.246,145.737 326.353,146.873 324.838,149.145 
		324.838,152.553 326.353,154.446 	"/>
	<polygon points="600.495,144.601 603.524,144.601 604.66,144.222 606.932,141.572 606.932,138.921 605.796,136.65 603.524,135.135 
		600.495,135.135 598.98,135.892 597.466,137.785 597.466,141.951 598.602,143.465 	"/>
	<polygon points="325.595,552.785 324.838,551.649 322.566,550.134 319.158,550.134 318.022,550.892 316.508,552.785 
		316.508,555.814 318.78,558.086 321.052,561.115 322.945,561.115 323.702,558.465 325.595,556.193 	"/>
	<polygon points="72.658,477.434 70.386,475.919 68.114,475.919 66.221,477.055 64.706,479.327 64.328,481.22 66.221,484.249 
		68.114,485.385 70.765,485.385 73.036,483.492 74.172,481.22 73.794,479.327 	"/>
	<polygon points="527.794,474.026 526.658,474.405 525.522,475.54 524.386,477.434 524.765,480.463 527.794,483.113 
		530.445,483.492 531.581,482.735 533.474,480.463 533.095,477.055 530.823,474.405 	"/>
	<polygon points="613.18,563.955 612.99,563.387 612.422,563.198 612.233,563.008 612.044,563.072 611.854,563.008 609.961,563.766 
		607.31,565.28 607.689,562.251 609.204,560.358 608.825,559.601 606.932,558.843 606.932,557.329 609.961,554.3 610.34,552.785 
		609.204,552.406 608.647,552.852 608.446,552.785 606.174,554.83 605.417,555.435 603.903,555.814 600.495,554.678 
		600.873,553.164 601.252,550.892 599.737,550.513 597.466,554.678 593.3,556.193 591.407,558.465 591.029,559.222 589.893,561.494 
		589.893,566.416 590.271,567.552 591.786,570.203 595.572,573.611 597.466,573.611 598.98,572.853 602.388,572.853 
		605.417,569.824 608.825,569.067 609.961,566.795 611.854,566.416 612.13,566.072 612.233,566.038 612.46,565.659 613.369,564.523 
		613.288,564.28 613.369,564.144 	"/>
	<polygon points="477.434,133.999 478.948,134.648 478.948,134.756 480.084,135.135 482.735,134.378 484.628,132.106 
		484.628,129.834 484.249,129.077 483.871,128.319 483.24,127.814 482.735,127.183 482.356,127.108 481.978,126.805 
		477.812,126.805 475.54,129.455 475.919,132.106 	"/>
	<polygon points="628.893,393.374 626.243,393.374 623.971,395.267 623.592,397.917 624.35,399.432 626.622,400.947 
		629.272,400.947 630.029,400.568 631.544,399.053 631.923,396.781 630.787,394.51 	"/>
	<polygon points="140.815,502.425 140.057,505.832 139.3,507.726 139.3,512.648 140.057,513.405 141.572,516.435 143.465,517.949 
		147.63,519.464 150.66,519.464 154.067,517.192 156.718,516.813 156.718,514.163 157.475,512.648 157.475,500.91 157.097,500.531 
		153.689,500.91 153.689,500.153 152.553,498.259 150.281,497.124 150.66,494.094 149.524,494.094 148.766,494.852 148.009,497.124 
		144.98,497.124 144.222,498.638 142.329,500.153 	"/>
	<polygon points="350.965,123.018 353.994,123.018 355.13,122.261 356.645,119.989 356.266,117.338 353.994,115.445 
		351.344,115.445 349.829,116.202 348.693,118.474 349.072,121.125 	"/>
	<polygon points="639.874,633.437 637.602,633.437 636.088,634.195 634.952,636.466 635.33,639.117 636.845,640.632 639.496,641.01 
		641.389,639.874 642.525,637.981 642.146,635.33 	"/>
	<polygon points="191.554,57.512 191.175,60.162 192.69,60.162 195.34,60.541 196.097,62.056 197.233,62.056 197.612,60.92 
		198.748,61.298 199.884,62.813 201.399,63.192 202.156,60.541 204.806,60.92 206.321,60.541 208.593,59.405 208.971,57.89 
		208.214,57.89 208.593,55.619 208.593,53.347 209.35,52.589 209.729,51.075 208.214,49.939 207.457,46.531 204.806,45.016 
		204.536,44.908 204.049,44.638 203.292,44.411 201.02,43.502 196.855,43.502 193.447,45.016 190.796,48.803 190.418,52.589 
		190.796,56.376 	"/>
	<polygon points="505.075,148.766 505.832,148.009 505.832,145.737 505.075,143.087 503.182,141.572 500.531,141.572 
		499.395,141.951 498.259,143.465 499.017,146.116 501.289,148.766 	"/>
	<polygon points="213.894,65.842 214.273,66.599 214.841,66.789 215.787,67.735 216.292,68.051 216.166,68.114 218.816,69.629 
		221.846,70.386 222.603,71.901 223.739,72.658 223.739,70.765 226.768,70.386 228.283,69.629 231.312,67.735 234.72,63.57 
		235.477,62.056 233.962,60.541 233.962,56.376 233.205,55.619 232.826,53.725 233.962,52.589 233.584,51.832 229.797,51.453 
		225.632,49.56 220.71,49.56 219.952,49.939 216.166,50.318 215.787,50.696 216.166,51.832 215.787,53.347 215.03,53.347 
		212.001,58.269 212.001,60.541 212.758,63.57 	"/>
	<polygon points="218.816,301.362 221.088,300.226 221.846,298.711 221.846,296.061 220.331,294.168 217.68,293.789 
		216.544,294.168 215.03,296.061 215.03,299.469 216.544,300.983 	"/>
	<polygon points="204.806,74.551 204.049,74.93 202.156,77.202 202.156,79.473 202.913,80.609 204.806,81.745 207.078,81.367 
		208.971,79.473 208.971,76.444 207.078,74.551 	"/>
	<polygon points="124.911,355.509 126.805,355.887 129.077,355.887 130.97,355.13 133.999,355.13 136.65,355.509 140.436,357.023 
		143.087,357.023 144.601,355.509 144.601,352.858 143.087,351.344 140.815,350.965 137.407,352.101 128.698,352.101 
		124.911,350.208 122.261,350.208 120.368,351.722 120.368,353.994 121.882,355.509 	"/>
	<polygon points="420.258,201.399 421.015,202.534 422.908,203.67 425.18,203.67 427.452,201.02 427.073,198.748 425.18,196.855 
		422.908,196.855 422.151,197.233 420.636,198.748 	"/>
	<polygon points="160.883,385.422 158.233,385.043 155.961,386.937 155.961,389.966 157.854,391.859 160.504,391.859 
		162.398,389.966 162.776,387.694 	"/>
	<polygon points="363.46,605.039 362.324,605.417 360.431,607.31 360.81,609.961 363.082,611.854 365.354,611.854 367.247,609.961 
		367.247,606.932 366.111,605.796 	"/>
	<polygon points="640.632,296.061 637.602,294.546 634.573,294.168 631.165,295.303 628.515,297.575 627,300.605 627,304.012 
		627.757,306.284 629.272,308.556 633.059,310.828 636.845,311.207 639.874,310.071 642.146,308.178 643.661,305.148 
		643.661,300.605 642.903,298.711 	"/>
	<polygon points="652.748,181.33 656.156,181.33 657.292,180.194 657.671,177.165 656.156,175.272 653.506,174.893 651.991,175.65 
		650.855,177.544 651.234,180.194 	"/>
	<polygon points="407.384,238.127 405.869,240.021 401.325,239.642 399.811,240.021 399.811,241.535 402.461,242.293 
		403.219,243.05 402.84,244.943 401.704,244.943 401.325,246.836 402.083,247.215 403.597,248.73 402.461,248.73 398.296,249.487 
		397.917,251.38 398.675,251.759 402.083,251.002 404.733,251.002 405.869,252.138 405.869,253.652 405.869,254.031 405.869,257.06 
		405.112,257.06 405.112,258.196 406.248,258.196 406.626,257.817 408.52,256.681 409.277,256.303 409.277,255.924 409.656,255.545 
		415.714,254.788 417.229,254.031 417.229,253.273 417.986,253.273 419.122,251.38 419.879,249.108 421.394,248.73 421.772,247.594 
		419.879,246.079 419.879,241.914 418.364,240.778 416.85,238.506 413.063,237.749 411.17,238.506 	"/>
	<polygon points="126.426,345.285 133.242,345.285 133.999,344.907 134.378,343.392 133.62,343.013 129.077,341.12 126.426,340.363 
		125.29,340.741 124.154,341.877 124.533,344.149 	"/>
	<polygon points="394.51,151.038 397.917,152.174 398.296,154.825 399.432,156.718 401.704,158.233 406.248,158.233 
		407.384,157.854 410.034,155.582 411.17,152.553 411.17,148.009 410.413,146.873 407.005,144.98 407.384,143.465 406.248,143.465 
		405.869,144.98 403.597,144.601 401.704,144.98 400.947,146.873 399.811,148.009 395.646,148.766 394.888,149.524 	"/>
	<polygon points="709.546,556.95 709.924,555.057 708.788,553.542 700.079,550.513 697.429,550.134 697.429,550.892 
		699.701,552.406 707.274,557.329 	"/>
	<polygon points="510.376,442.598 510.376,445.627 512.648,447.52 514.92,447.52 516.813,445.627 516.435,442.977 514.92,441.462 
		512.269,441.083 	"/>
	<polygon points="213.137,191.932 212.758,194.204 214.273,196.476 216.544,197.991 218.816,197.991 219.195,197.612 
		219.574,195.719 218.816,193.447 216.166,191.175 213.894,191.175 	"/>
	<polygon points="338.091,133.62 338.47,130.97 336.576,129.077 333.926,129.077 332.411,130.591 332.411,133.999 333.547,135.135 
		336.955,135.135 	"/>
	<polygon points="308.178,639.874 305.148,637.981 301.741,637.981 300.605,638.36 299.09,639.496 296.818,642.525 296.061,645.933 
		297.197,650.476 299.847,653.506 302.876,654.642 306.284,654.263 309.314,651.991 310.828,648.962 311.207,645.175 
		310.071,642.146 	"/>
	<polygon points="157.475,644.797 155.582,646.311 152.931,649.719 152.553,652.748 153.689,653.127 157.097,650.476 
		158.99,648.583 158.99,645.554 158.611,644.797 	"/>
	<polygon points="500.91,137.785 503.561,133.999 507.726,132.863 509.619,130.591 511.134,129.077 512.648,127.183 
		512.648,123.775 510.755,122.261 507.347,122.261 506.211,122.639 503.561,123.397 503.182,126.047 502.803,126.426 
		502.046,128.319 501.289,128.319 501.289,129.077 500.531,129.077 499.774,132.863 499.017,132.863 499.017,133.62 498.259,133.62 
		496.366,135.135 495.988,136.65 498.259,137.407 	"/>
	<polygon points="455.093,127.562 453.958,129.077 454.336,131.348 455.851,132.863 458.501,133.242 460.395,131.348 
		460.016,129.455 458.501,127.562 	"/>
	<polygon points="167.32,286.216 168.835,284.701 168.456,282.808 166.184,280.915 164.291,280.536 162.776,281.672 
		162.776,284.701 165.048,286.216 	"/>
	<polygon points="238.885,286.595 237.749,288.109 238.127,290.002 240.021,294.925 241.157,296.818 244.565,300.226 
		246.836,301.741 249.108,302.119 250.623,300.605 250.244,298.333 248.73,295.303 244.943,291.517 243.807,288.488 
		242.293,286.973 240.021,286.216 	"/>
	<polygon points="105.979,349.072 109.387,349.072 109.387,347.557 107.872,346.8 96.134,346.421 95.755,346.8 96.134,347.936 	"/>
	<polygon points="166.941,243.807 172.243,247.594 174.514,248.351 174.893,246.458 171.864,244.565 165.048,240.778 
		162.776,240.021 163.155,241.157 	"/>
	<polygon points="358.538,575.504 360.81,578.154 362.703,578.533 363.839,576.261 366.49,572.853 366.111,569.824 364.975,567.174 
		362.703,566.038 358.917,566.038 357.402,566.795 355.509,569.067 355.13,571.717 356.266,573.989 	"/>
	<polygon points="719.391,321.052 716.74,322.188 713.332,323.324 712.196,323.702 712.575,325.217 715.604,324.838 
		719.769,324.838 721.284,323.702 720.905,321.43 	"/>
	<polygon points="234.152,230.239 233.192,229.066 233.205,229.04 231.312,226.768 226.011,221.846 223.739,219.249 
		221.846,216.544 220.331,214.651 217.68,214.273 216.166,215.409 215.787,217.68 216.923,219.195 221.467,221.846 225.253,224.875 
		225.632,225.348 225.632,225.632 226.768,226.768 229.419,229.797 230.176,229.797 230.176,230.555 231.69,231.312 231.69,232.069 
		232.448,232.069 232.448,232.826 233.962,234.341 235.477,237.37 237.37,238.885 240.021,238.885 241.157,237.37 241.535,235.477 
		240.021,233.584 236.992,232.448 	"/>
	<polygon points="331.275,266.905 330.897,269.555 331.654,270.691 334.304,271.07 335.44,269.934 335.819,267.662 335.062,266.526 
		333.168,265.769 	"/>
	<polygon points="263.497,596.33 262.361,593.3 260.468,591.407 257.439,590.65 254.031,591.786 252.138,594.058 252.138,598.98 
		252.895,600.116 255.167,602.009 259.332,602.009 262.361,599.737 	"/>
	<polygon points="606.174,174.514 607.31,175.272 609.204,177.165 611.097,179.437 613.369,180.573 616.777,180.194 619.049,178.68 
		620.563,176.408 620.185,173 618.291,168.456 616.777,168.077 616.777,169.213 615.641,169.213 616.398,167.699 614.883,165.805 
		612.233,165.805 611.097,166.941 611.854,168.077 613.369,168.456 612.99,169.592 608.446,171.864 606.553,173 	"/>
	<polygon points="155.961,423.666 148.766,423.287 147.252,424.044 146.873,425.937 147.63,426.316 150.281,426.316 155.582,425.18 
			"/>
	<polygon points="615.641,320.673 614.883,321.052 612.99,323.324 613.369,326.353 614.505,327.867 616.777,329.003 
		619.049,328.625 620.942,326.731 621.32,324.46 620.563,322.566 618.67,320.673 	"/>
	<polygon points="402.461,541.804 398.296,541.804 396.781,542.94 396.024,545.212 397.539,548.241 397.917,551.649 
		398.296,552.028 400.189,552.406 401.325,550.892 405.112,547.105 405.112,544.833 404.354,543.319 	"/>
	<polygon points="280.612,218.059 280.915,218.816 281.131,218.925 281.293,219.195 283.187,219.952 285.08,218.438 285.08,216.544 
		283.944,215.03 282.051,214.651 280.915,215.409 280.41,216.671 280.158,216.923 280.233,217.112 280.158,217.302 	"/>
	<polygon points="598.602,320.673 598.98,319.916 598.602,319.158 591.407,318.78 588.757,318.401 587.999,319.158 588.757,320.673 
		592.543,321.052 	"/>
	<polygon points="425.937,226.011 425.937,228.283 427.073,234.341 428.209,235.856 431.617,238.127 435.404,238.127 436.54,237.37 
		439.19,235.098 440.326,231.69 439.947,228.283 438.736,226.919 438.812,226.768 436.918,224.875 434.646,223.739 431.617,223.739 
		430.86,224.117 428.588,224.117 427.073,223.36 	"/>
	<polygon points="584.97,639.874 584.213,640.632 583.456,642.525 584.591,644.039 586.485,644.039 587.242,645.933 
		589.135,645.554 589.135,644.039 588.378,643.282 586.863,640.253 	"/>
	<polygon points="430.86,215.03 431.996,216.166 435.782,216.166 438.433,213.894 438.433,211.622 435.404,208.593 433.51,208.593 
		431.996,210.486 430.103,210.107 428.588,210.486 428.588,212.001 430.481,213.515 	"/>
	<polygon points="158.99,611.097 158.99,609.204 158.611,608.825 155.961,608.446 154.067,609.961 154.067,612.233 154.446,612.612 
		156.718,612.612 	"/>
	<polygon points="226.768,263.118 228.283,261.225 228.661,258.953 227.904,257.06 226.011,255.545 222.982,255.545 
		222.224,255.924 220.71,257.817 220.331,260.089 221.467,262.361 223.36,263.497 226.011,263.497 	"/>
	<polygon points="698.943,311.964 701.215,310.071 705.002,308.556 704.623,307.42 699.701,307.42 697.808,307.042 696.672,307.42 
		692.506,310.071 692.506,310.828 695.914,311.964 	"/>
	<polygon points="317.265,252.138 317.644,252.516 320.294,252.516 321.809,251.002 321.809,248.73 321.052,248.351 
		319.537,247.972 318.78,248.351 317.265,250.244 	"/>
	<polygon points="559.601,531.959 558.843,532.717 558.086,534.61 559.601,536.503 561.872,536.503 562.63,535.367 562.63,533.474 
		561.872,532.338 	"/>
	<polygon points="727.342,307.799 725.449,309.314 725.07,310.828 725.828,311.585 728.857,311.585 729.993,310.828 
		730.371,308.556 729.614,307.799 	"/>
	<polygon points="135.514,673.195 134.756,673.574 132.484,675.467 130.97,678.875 131.727,681.147 133.62,682.283 136.271,681.904 
		138.164,680.39 139.679,678.118 140.057,675.846 138.543,673.195 	"/>
	<polygon points="600.495,325.217 602.009,323.702 601.631,321.809 599.737,320.673 598.602,321.052 597.466,322.188 
		597.466,324.081 598.223,324.838 	"/>
	<polygon points="251.002,228.661 252.138,227.147 251.759,225.632 250.623,224.496 248.73,224.496 247.594,225.632 
		247.594,227.525 248.73,228.661 	"/>
	<polygon points="420.636,253.652 418.364,255.167 418.743,259.332 419.5,260.089 421.772,261.604 424.044,261.604 425.18,260.468 
		425.937,258.575 425.559,255.167 424.423,254.031 421.772,253.273 	"/>
	<polygon points="617.534,391.859 617.534,389.966 616.398,388.83 614.505,388.83 613.747,389.587 613.369,391.48 614.126,392.616 
		616.019,392.995 	"/>
	<polygon points="707.652,291.896 708.41,290.76 708.031,288.866 705.381,288.866 703.487,290.381 703.487,292.274 706.516,292.274 
			"/>
	<polygon points="570.96,330.518 572.475,329.382 572.853,327.11 572.096,325.217 569.824,323.702 567.174,323.702 564.902,325.217 
		564.902,328.246 567.552,330.518 	"/>
	<polygon points="601.631,190.796 600.116,191.932 599.737,193.826 600.495,194.583 602.388,194.961 603.903,193.447 
		603.524,191.175 	"/>
	<polygon points="614.883,677.739 614.505,678.875 616.777,680.011 619.427,682.283 621.32,681.904 622.835,680.768 
		618.291,678.875 	"/>
	<polygon points="225.632,544.455 224.496,545.212 224.117,547.105 225.253,548.241 227.904,547.862 228.283,545.212 
		227.525,544.455 	"/>
	<polygon points="562.63,623.592 561.872,624.35 561.872,626.622 562.251,627.379 564.144,627.757 565.28,626.622 565.659,624.728 
		564.523,623.592 	"/>
	<polygon points="68.114,470.618 68.493,468.346 67.357,467.21 65.463,467.21 64.706,467.968 64.328,469.861 65.463,470.997 	"/>
	<polygon points="547.862,606.553 548.241,603.903 547.484,603.145 545.969,602.767 544.455,603.903 544.833,605.796 
		546.348,607.31 	"/>
	<polygon points="115.445,586.485 114.309,587.621 114.688,589.135 116.96,589.893 118.853,588.757 118.853,586.863 
		118.474,586.485 	"/>
	<polygon points="363.46,122.639 364.596,121.504 364.218,119.232 362.324,118.853 361.188,119.232 360.431,120.368 
		361.188,122.261 	"/>
	<polygon points="562.63,600.116 563.008,602.009 564.902,602.767 566.038,601.631 566.416,599.737 565.659,598.98 564.144,598.602 
			"/>
	<polygon points="253.273,242.293 255.167,241.914 255.545,240.778 255.167,238.127 253.273,238.127 252.516,239.263 
		252.138,241.157 	"/>
	<polygon points="555.435,193.447 556.193,191.932 554.678,190.039 552.406,190.039 552.028,190.418 552.028,192.311 
		552.785,193.447 	"/>
	<polygon points="577.018,556.571 578.533,558.086 581.184,558.086 582.698,556.193 582.698,553.921 581.184,552.406 
		578.533,552.406 577.018,553.921 	"/>
	<polygon points="492.201,168.077 494.094,168.456 494.852,166.563 495.23,164.291 493.716,163.912 491.822,166.184 	"/>
	<polygon points="355.887,609.582 355.13,609.961 353.994,611.854 354.373,614.126 355.509,615.262 357.781,615.641 
		359.674,613.747 359.674,611.097 358.538,609.961 	"/>
	<polygon points="222.982,278.643 224.496,278.264 224.875,275.992 224.117,275.235 222.224,274.856 221.088,275.992 
		221.846,278.264 	"/>
	<polygon points="520.978,108.629 521.736,107.872 521.736,105.979 520.978,105.222 519.085,105.222 518.328,105.979 
		517.949,107.494 519.085,108.629 	"/>
	<polygon points="148.388,607.31 149.902,606.553 150.66,605.039 150.281,603.145 149.145,602.009 147.252,601.631 145.358,603.145 
		145.358,606.174 146.116,606.932 	"/>
	<polygon points="492.58,59.405 493.337,58.648 493.337,56.755 491.444,55.997 490.308,56.376 489.551,57.89 489.929,59.405 	"/>
	<polygon points="527.037,602.388 525.522,603.903 525.522,606.932 527.037,608.068 529.309,608.068 530.823,606.932 
		530.823,603.524 529.687,602.388 	"/>
	<polygon points="501.667,72.658 502.425,70.765 502.046,67.357 501.289,66.221 499.395,65.842 499.017,66.221 498.638,72.279 
		499.774,73.415 	"/>
	<polygon points="557.707,184.738 558.843,183.981 559.222,181.33 558.086,179.816 555.057,179.816 554.3,180.951 554.3,183.602 
		555.057,184.359 	"/>
	<polygon points="182.087,161.262 182.315,161.565 183.223,163.155 185.874,165.805 189.66,168.456 194.204,172.621 
		196.097,173.378 196.097,172.243 193.068,169.213 189.265,164.324 189.282,164.291 187.767,162.398 186.253,161.64 
		186.253,160.883 184.359,159.368 182.466,158.99 181.709,159.368 181.709,160.504 182.058,161.116 	"/>
	<polygon points="408.52,644.418 407.005,645.554 406.626,647.447 408.141,648.583 410.413,648.962 412.306,647.826 
		412.685,645.933 411.17,644.418 	"/>
	<polygon points="515.677,419.879 513.405,419.5 512.648,419.879 512.648,422.151 514.541,422.908 516.056,421.772 	"/>
	<polygon points="434.646,629.272 431.617,630.408 431.239,632.301 431.996,633.059 434.268,633.059 437.676,631.923 
		438.433,630.408 437.297,629.272 	"/>
	<polygon points="598.98,186.631 599.737,185.874 600.116,183.602 598.98,182.087 597.466,181.33 596.33,182.845 594.815,183.602 
		594.436,184.738 595.951,186.631 	"/>
	<polygon points="587.621,648.962 587.242,650.855 587.999,651.234 589.514,650.855 591.029,649.34 590.65,648.205 589.135,647.826 
			"/>
	<polygon points="706.895,576.261 706.895,577.397 708.788,578.912 711.06,579.29 711.439,577.776 709.546,576.64 	"/>
	<polygon points="52.589,514.92 51.832,515.677 51.453,517.192 52.211,517.949 54.104,518.328 54.861,517.192 54.483,515.299 	"/>
	<polygon points="670.923,423.666 670.923,425.559 671.302,425.937 673.195,426.316 674.331,425.18 673.953,423.666 
		672.059,422.908 	"/>
	<polygon points="432.375,512.648 432.375,510.755 431.617,509.998 429.724,509.619 429.345,509.998 429.345,511.891 
		430.103,513.027 431.996,513.027 	"/>
	<polygon points="145.358,479.327 144.98,477.434 143.465,476.676 142.329,477.434 142.329,479.706 142.708,480.084 
		144.601,480.084 	"/>
	<polygon points="675.846,246.079 675.846,244.186 675.467,243.807 673.953,243.429 672.817,244.186 672.438,245.7 673.195,246.458 
		675.467,246.458 	"/>
	<polygon points="621.32,469.103 620.942,466.453 619.427,466.074 618.67,466.453 618.291,468.346 619.427,469.482 	"/>
	<polygon points="600.495,179.437 600.873,177.544 599.359,176.786 597.844,177.544 597.466,179.058 598.602,180.194 	"/>
	<polygon points="278.643,272.963 278.643,270.691 276.371,270.313 275.992,270.691 275.614,272.585 276.371,273.342 	"/>
	<polygon points="358.159,266.905 360.053,266.905 360.431,266.526 360.431,264.633 360.053,264.254 358.159,263.876 
		357.781,264.254 357.402,266.148 	"/>
	<polygon points="307.042,150.281 308.178,148.766 307.799,147.63 305.906,147.252 304.77,148.766 305.148,150.281 	"/>
	<polygon points="603.903,168.456 603.903,170.349 605.039,171.485 606.932,171.485 607.31,170.349 605.796,168.835 	"/>
	<polygon points="314.236,123.018 314.615,122.639 314.993,121.125 313.1,120.368 311.207,121.504 311.964,123.018 	"/>
	<polygon points="28.735,563.387 28.356,563.766 27.977,565.659 29.492,566.416 31.006,565.659 31.006,563.766 30.628,563.387 	"/>
	<polygon points="615.641,556.571 614.126,556.571 612.612,557.707 611.854,559.222 613.369,559.601 615.262,558.465 	"/>
	<polygon points="229.797,112.795 230.555,113.552 232.448,113.552 233.205,112.037 232.069,110.901 230.176,110.901 	"/>
	<polygon points="447.899,43.123 448.278,41.23 447.52,40.473 445.249,40.473 445.249,41.987 446.763,43.502 	"/>
	<polygon points="526.658,692.506 525.901,694.778 527.037,694.778 528.93,693.264 529.309,691.371 528.551,690.992 	"/>
	<polygon points="262.361,602.767 261.225,603.524 261.225,606.174 261.604,606.553 264.254,606.932 265.39,605.039 
		265.012,603.145 	"/>
	<polygon points="428.209,153.31 427.831,151.417 425.937,151.038 425.18,151.795 425.18,153.31 427.831,153.689 	"/>
	<polygon points="579.669,534.231 579.29,533.852 577.397,533.852 577.018,534.231 577.018,536.124 577.776,536.882 
		579.669,536.124 	"/>
	<polygon points="207.836,568.688 207.457,569.067 207.457,570.96 208.593,571.717 210.107,570.96 210.107,569.067 209.729,568.688 
			"/>
	<polygon points="478.57,166.563 480.084,167.32 481.978,166.941 481.978,165.427 479.327,165.048 478.57,165.427 	"/>
	<polygon points="455.093,186.253 455.093,184.359 453.2,183.981 452.064,185.495 452.443,186.631 454.715,186.631 	"/>
	<polygon points="485.007,708.41 483.871,709.167 484.249,711.06 486.143,711.06 486.9,710.303 486.521,708.788 	"/>
	<polygon points="97.649,391.859 97.649,389.966 95.377,389.587 94.619,391.102 95.755,392.238 	"/>
	<polygon points="28.735,541.804 26.463,541.425 24.569,542.183 24.569,543.319 27.22,543.319 28.356,542.94 	"/>
	<polygon points="394.51,243.05 394.888,244.565 396.781,244.943 397.539,244.186 397.16,242.671 395.267,242.293 	"/>
	<polygon points="496.745,163.155 496.745,164.291 497.502,165.048 499.395,165.427 499.774,163.534 497.502,162.776 	"/>
	<polygon points="543.697,593.679 543.697,591.786 542.183,591.407 541.047,592.543 541.425,594.058 543.319,594.058 	"/>
	<polygon points="339.227,559.979 339.605,561.872 341.499,561.494 341.877,559.979 340.363,559.222 	"/>
	<polygon points="621.699,283.187 621.32,285.08 622.456,285.459 623.971,284.701 623.592,283.187 622.078,282.808 	"/>
	<polygon points="382.014,126.805 382.771,127.183 385.422,126.805 384.665,125.29 382.393,125.29 	"/>
	<polygon points="537.639,691.371 538.018,693.264 539.911,692.506 539.911,690.613 538.775,690.235 	"/>
	<polygon points="557.707,666.001 558.086,668.273 559.601,668.652 559.979,667.894 559.979,665.622 559.601,665.622 	"/>
	<polygon points="536.882,170.728 537.26,170.349 536.882,168.835 534.988,168.456 534.231,169.213 534.61,170.728 	"/>
	<polygon points="611.854,150.281 610.718,149.902 609.582,153.31 611.476,152.931 	"/>
	<polygon points="149.902,489.929 149.902,492.58 150.66,492.958 152.174,492.58 152.553,491.444 151.038,490.686 150.66,489.929 	
		"/>
	<polygon points="425.559,217.302 424.802,215.787 422.908,215.787 422.53,217.68 425.18,217.68 	"/>
	<polygon points="599.359,679.254 599.737,682.283 601.252,682.662 601.252,680.39 600.873,679.632 	"/>
	<polygon points="508.104,547.484 508.104,545.212 506.968,544.833 506.211,545.591 506.211,547.484 506.59,547.862 	"/>
	<polygon points="605.796,184.738 606.174,186.253 607.689,186.631 608.446,185.874 608.068,184.359 606.174,184.359 	"/>
	<polygon points="437.297,138.921 437.297,137.407 435.404,137.028 434.646,138.164 435.782,139.3 	"/>
	<polygon points="232.448,350.586 232.448,352.48 234.341,352.48 234.72,350.586 232.826,350.208 	"/>
	<rect x="545.383" y="120.917" transform="matrix(0.1961 -0.9806 0.9806 0.1961 319.6849 633.7173)" width="1.931" height="1.931"/>
	<polygon points="566.416,577.018 565.28,577.018 564.144,578.154 564.902,579.669 566.416,579.29 	"/>
	<polygon points="501.289,419.122 502.425,420.258 503.939,419.879 503.561,418.364 501.667,417.986 	"/>
	<polygon points="701.594,249.108 701.973,247.594 700.079,247.215 699.701,247.594 700.079,249.487 	"/>
	<polygon points="279.4,225.253 279.4,223.36 277.886,222.982 277.128,224.117 277.507,225.253 	"/>
	<polygon points="418.743,211.622 418.743,210.107 416.471,209.729 416.093,210.107 416.85,211.622 	"/>
	<polygon points="566.416,321.052 566.038,319.158 564.523,319.158 564.144,319.537 564.902,321.43 	"/>
	<polygon points="698.565,428.588 698.565,430.103 700.079,430.481 700.458,428.588 698.943,428.209 	"/>
	<polygon points="179.437,617.155 179.058,619.049 180.951,618.67 180.951,616.777 180.194,616.398 	"/>
	<polygon points="491.444,569.445 492.958,569.824 493.337,567.931 491.822,567.552 	"/>
	<polygon points="686.186,215.816 686.448,216.166 688.72,216.544 690.613,215.03 690.613,212.379 689.856,211.622 687.584,210.865 
		686.827,211.243 685.312,212.758 685.312,214.651 686.069,215.787 	"/>
	<polygon points="592.164,639.117 592.543,640.632 594.436,640.253 594.436,639.117 592.543,638.738 	"/>
	<polygon points="470.239,61.677 468.725,61.298 468.346,61.677 468.346,63.192 470.239,63.192 	"/>
	<polygon points="526.279,527.037 525.901,525.901 524.765,525.522 524.386,525.901 524.008,527.415 525.522,527.794 	"/>
	<polygon points="506.968,738.702 508.862,739.08 508.862,737.187 507.347,737.187 	"/>
	<polygon points="503.561,707.652 504.318,708.031 505.075,707.652 505.454,706.138 503.939,705.759 	"/>
	<polygon points="519.842,653.506 521.736,653.884 522.114,652.37 520.6,651.991 	"/>
	<polygon points="590.271,324.46 592.164,324.46 592.164,322.945 591.029,322.566 589.893,323.702 	"/>
	<polygon points="594.436,653.506 596.708,653.127 597.087,651.991 595.194,651.991 594.436,652.37 	"/>
	<polygon points="421.015,166.941 421.015,166.184 419.122,165.048 418.743,166.563 419.879,167.32 	"/>
	<rect x="645.341" y="326.897" transform="matrix(0.2425 -0.9701 0.9701 0.2425 171.52 875.0348)" width="1.561" height="1.561"/>
	<rect x="594.602" y="288.654" transform="matrix(0.2425 -0.9701 0.9701 0.2425 170.1887 796.8426)" width="1.561" height="1.561"/>
	<polygon points="324.081,84.775 322.188,84.396 321.809,85.911 323.702,85.911 	"/>
	<polygon points="595.194,684.176 596.33,684.555 596.708,682.662 595.194,682.283 	"/>
	<polygon points="471.754,576.64 473.647,577.018 474.026,575.883 472.133,575.504 	"/>
	<polygon points="777.324,326.731 776.945,328.246 778.839,328.246 778.839,326.731 	"/>
	<polygon points="543.319,715.225 544.833,715.604 545.212,714.468 543.697,713.711 	"/>
	<polygon points="570.203,563.387 570.203,562.251 568.688,561.872 568.31,562.251 569.067,563.766 	"/>
	<polygon points="319.537,267.662 319.537,268.798 321.052,269.177 321.43,268.041 320.294,267.283 	"/>
	<polygon points="393.752,212.379 392.238,212.379 391.859,213.515 393.752,213.894 	"/>
	<polygon points="599.737,646.69 598.223,646.311 597.466,647.826 598.98,647.826 	"/>
	<polygon points="617.155,621.32 616.019,621.32 615.641,622.835 616.777,623.214 	"/>
	<polygon points="192.311,164.291 193.826,164.67 194.204,163.534 192.311,163.155 	"/>
	<polygon points="393.752,132.484 392.238,132.106 391.859,133.62 393.752,133.62 	"/>
	<polygon points="540.668,101.056 539.154,101.056 538.775,102.192 540.668,102.571 	"/>
	<polygon points="527.415,632.301 525.901,632.301 525.522,633.816 526.658,633.816 	"/>
	<polygon points="266.905,557.329 268.041,557.707 268.419,556.193 267.283,555.814 	"/>
	<polygon points="570.96,511.512 570.96,513.027 572.096,513.027 572.475,511.512 	"/>
	<polygon points="162.776,486.143 161.262,485.764 160.883,486.9 162.398,487.279 	"/>
	<polygon points="407.005,227.525 405.869,226.389 405.112,226.768 405.112,227.525 406.626,228.283 	"/>
	<polygon points="194.204,413.442 194.204,414.578 195.34,414.957 195.719,413.442 	"/>
	<polygon points="393.752,128.698 393.374,127.562 392.238,127.562 391.859,128.319 392.238,129.077 	"/>
	<polygon points="233.962,48.046 232.826,48.046 232.448,49.182 233.962,49.56 	"/>
	<polygon points="544.076,699.322 542.94,698.943 542.94,700.837 543.697,700.837 	"/>
	<polygon points="611.097,686.069 612.233,686.448 612.612,685.312 611.097,684.933 	"/>
	<polygon points="565.659,681.526 567.174,681.904 567.174,680.39 566.038,680.39 	"/>
	<polygon points="558.843,674.331 559.979,674.331 560.358,672.817 559.222,672.817 	"/>
	<polygon points="588.757,638.36 587.621,637.981 587.242,639.496 588.378,639.496 	"/>
	<polygon points="400.568,228.283 399.432,227.904 399.053,229.04 400.568,229.419 	"/>
	<polygon points="449.414,154.067 449.414,155.203 450.55,155.961 450.928,154.825 	"/>
	<polygon points="81.367,563.008 80.988,564.523 82.503,564.144 82.124,563.008 	"/>
	<polygon points="162.398,497.124 162.398,495.988 161.262,495.609 160.883,496.745 	"/>
	<polygon points="632.68,267.662 634.195,267.662 634.573,266.905 633.059,266.526 	"/>
	<polygon points="539.911,168.835 540.668,169.213 541.425,167.699 539.911,167.699 	"/>
	<polygon points="532.338,219.574 531.202,218.816 530.445,219.574 532.338,220.331 	"/>
	<polygon points="374.82,199.884 375.956,200.263 376.334,199.127 375.577,198.748 374.82,199.127 	"/>
	<polygon points="356.266,133.999 357.402,133.999 357.402,132.484 356.645,132.484 	"/>
	<polygon points="609.204,674.331 610.34,674.71 610.718,673.574 609.204,673.574 	"/>
	<polygon points="435.025,181.709 434.268,181.33 433.51,182.466 434.646,182.845 	"/>
	<polygon points="512.648,118.096 511.891,117.717 511.512,119.232 512.648,119.232 	"/>
	<rect x="706.138" y="581.184" width="1.136" height="1.136"/>
	<polygon points="521.357,575.883 520.221,575.504 519.842,576.261 521.357,576.64 	"/>
	<polygon points="689.856,311.964 690.992,311.585 690.992,310.828 689.477,310.828 	"/>
	<polygon points="535.746,199.884 536.503,199.884 536.882,198.748 536.124,198.369 	"/>
	<polygon points="536.882,189.66 536.124,189.282 536.124,191.175 536.882,191.175 	"/>
	<polygon points="415.714,165.805 414.578,165.427 414.578,166.563 415.714,166.941 	"/>
	<polygon points="518.706,155.582 519.464,155.582 519.464,154.067 518.706,153.689 	"/>
	<polygon points="467.589,49.182 466.832,48.803 466.453,50.318 467.21,50.318 	"/>
	<polygon points="419.122,659.943 420.258,660.321 420.258,659.185 419.122,659.185 	"/>
	<polygon points="603.903,656.156 605.039,656.535 605.039,655.399 603.903,655.399 	"/>
	<polygon points="528.93,637.981 527.794,637.602 527.794,638.738 528.93,638.738 	"/>
	<polygon points="314.993,276.75 316.508,276.371 315.751,275.614 314.993,275.992 	"/>
	<polygon points="595.951,179.437 595.194,179.437 594.815,180.573 595.951,180.573 	"/>
	<polygon points="407.384,121.504 406.626,121.125 406.248,122.261 407.005,122.639 	"/>
	<polygon points="216.923,98.027 215.787,98.027 215.787,99.163 216.544,99.163 	"/>
	<polygon points="398.296,603.145 399.053,603.145 399.432,602.388 398.296,602.009 	"/>
	<polygon points="235.477,324.46 234.341,324.081 234.341,325.217 235.098,325.217 	"/>
	<polygon points="595.194,277.128 594.815,277.886 595.951,278.264 595.951,277.128 	"/>
	<polygon points="536.124,194.204 536.503,195.719 536.882,194.204 	"/>
	<polygon points="588.378,174.136 589.135,174.136 589.514,173.378 588.378,173 	"/>
	<polygon points="401.704,165.048 401.325,166.184 402.461,166.184 402.461,165.427 	"/>
	<polygon points="522.872,144.98 522.872,143.844 522.114,143.844 521.736,144.601 	"/>
	<polygon points="332.032,102.571 331.275,102.192 330.897,103.328 332.032,103.328 	"/>
	<rect x="47.288" y="536.124" width="1.136" height="0.757"/>
	<rect x="597.466" y="285.459" width="0.757" height="1.136"/>
	<polygon points="311.585,280.915 311.207,282.051 312.343,281.672 	"/>
	<polygon points="453.579,159.368 453.2,160.504 454.336,160.126 	"/>
	<polygon points="395.267,146.873 394.51,146.494 394.131,147.252 395.267,147.63 	"/>
	<polygon points="588.757,107.494 587.999,107.494 587.621,107.872 588.378,108.629 	"/>
	<polygon points="502.046,47.288 501.289,46.91 500.91,47.667 502.046,48.046 	"/>
	<polygon points="220.331,43.88 219.952,45.016 221.088,44.638 	"/>
	<polygon points="485.385,603.903 485.385,604.66 486.521,604.281 	"/>
	<polygon points="161.262,598.602 160.883,599.359 162.019,599.359 	"/>
	<polygon points="204.806,442.219 205.942,441.841 204.806,441.462 	"/>
	<polygon points="182.845,51.075 181.709,51.075 181.709,51.453 182.845,51.832 	"/>
	<polygon points="185.495,47.667 184.738,47.667 185.117,48.803 	"/>
	<rect x="325.595" y="653.506" width="0.757" height="0.757"/>
	<polygon points="524.008,634.573 525.144,634.573 524.386,634.195 	"/>
	<polygon points="501.289,624.728 502.425,624.728 501.667,624.35 	"/>
	<rect x="540.668" y="602.388" width="0.757" height="0.757"/>
	<rect x="707.274" y="597.087" width="0.757" height="0.757"/>
	<rect x="184.738" y="590.65" width="0.757" height="0.757"/>
	<rect x="727.342" y="337.334" width="0.757" height="0.757"/>
	<rect x="598.98" y="277.128" width="0.757" height="0.757"/>
	<polygon points="211.622,96.891 211.622,98.027 212.379,97.649 	"/>
	<rect x="316.887" y="91.969" width="0.757" height="0.757"/>
	<rect x="230.176" y="87.425" width="0.757" height="0.757"/>
	<polygon points="524.008,729.993 524.386,729.235 523.629,729.235 	"/>
	<polygon points="615.641,672.817 616.398,672.438 615.641,672.059 	"/>
	<polygon points="279.4,544.076 280.158,544.455 279.779,543.697 	"/>
	<polygon points="21.162,544.076 21.919,543.697 21.162,543.319 	"/>
	<polygon points="634.195,387.315 634.573,386.558 633.816,386.558 	"/>
	<polygon points="263.497,234.72 262.74,234.72 263.118,235.477 	"/>
	<polygon points="403.976,196.097 404.354,196.855 404.733,196.097 	"/>
	<polygon points="345.285,128.319 345.285,129.077 346.042,129.077 	"/>
	<polygon points="164.291,38.201 163.534,38.201 163.912,38.958 	"/>
</g>
</svg>
