<?xml version="1.0" encoding="utf-8"?>
<!-- Generator: Adobe Illustrator 27.5.0, SVG Export Plug-In . SVG Version: 6.00 Build 0)  -->
<svg version="1.1" id="Layer_1" xmlns="http://www.w3.org/2000/svg" xmlns:xlink="http://www.w3.org/1999/xlink" x="0px" y="0px"
	 viewBox="0 0 750 750" style="enable-background:new 0 0 750 750;" xml:space="preserve">
<g>
	<polygon points="693.937,249.446 691.532,249.927 688.165,250.408 684.797,251.851 681.911,252.813 681.55,253.294 681.43,253.294 
		680.468,254.737 680.468,258.586 680.468,260.51 680.853,261.279 680.949,261.953 681.791,263.155 682.392,264.358 
		682.684,264.431 684.316,266.763 687.893,266.366 690.089,267.244 691.532,268.207 692.057,268.032 692.494,268.207 
		692.735,267.806 692.975,267.725 693.071,267.244 693.937,265.801 695.861,265.801 698.567,269.108 698.748,269.65 
		700.191,271.093 703.077,271.093 703.558,269.169 703.077,268.207 700.031,266.03 699.674,265.623 699.229,263.396 
		700.672,262.915 702.115,260.51 702.115,257.623 700.191,255.218 699.229,249.927 698.748,249.446 698.404,249.514 
		696.342,248.483 697.167,247.453 697.786,247.04 697.882,246.559 698.267,246.078 698.106,245.437 698.267,244.635 
		697.786,244.154 695.38,243.673 694.418,245.116 	"/>
	<polygon points="645.351,166.224 645.351,172.477 645.351,176.326 643.908,176.807 643.215,177.73 642.946,177.769 
		642.877,178.181 642.465,178.731 642.64,179.606 642.465,180.655 642.85,180.655 642.946,181.136 645.351,181.136 646.313,180.174 
		647.275,176.807 652.616,177.14 652.567,177.288 654.972,177.288 658.339,175.364 659.33,174.769 659.783,174.883 660.745,173.92 
		661.226,171.515 662.188,171.515 663.15,170.072 661.707,167.186 662.188,163.337 658.339,162.375 658.339,161.413 
		656.896,159.489 653.529,159.489 651.605,158.527 648.718,158.527 647.275,162.856 	"/>
	<polygon points="627.552,376.924 625.628,376.924 624.185,383.659 624.185,388.469 624.666,388.95 626.59,392.799 627.191,393.521 
		627.071,393.761 628.995,395.685 630.919,396.166 630.919,394.242 631.882,394.242 633.806,393.761 636.692,393.28 
		637.013,392.959 637.654,392.799 638.414,391.887 638.616,391.837 640.06,389.913 641.022,384.621 641.503,382.216 
		641.022,381.735 639.097,378.848 635.249,376.924 631.882,376.443 629.957,377.405 	"/>
	<path d="M313.906,679.025l4.329-2.886l7.216-2.886l3.848-2.886h2.886h2.405l2.886-0.962h4.811l1.443,0.481l0.962-1.443v-2.886
		l-0.468-3.51l0.468-5.149l1.443-2.405l0.962-5.773h0.962l3.367-1.443l0.962-2.405l2.405-4.811l2.405-1.443l1.924,1.443l2.405,0.481
		l0.898-0.513l0.064,0.032l2.405-1.443l4.811,0.962v-0.962l-1.443-3.367v-3.367l1.443-1.924l-0.206-0.137l0.206-0.344l-1.443-0.481
		l-5.773-0.481v-0.481l3.367-2.405l0,0l3.367-2.405l2.405-2.886l-0.481-3.367l1.443-2.405l2.405-0.962l4.329,2.886l5.292,2.886
		l2.886,0.481l2.886-5.292v-3.848l-0.481-0.481l-1.924,0.481l-5.292,3.848h-2.405l-1.443-0.962l-2.886-4.329l0.481-3.367
		l1.924-0.962V603.5l-0.962-0.962l0.962-3.367l3.367-0.962l0.55-0.344l0.412-0.137l4.329-2.886v-2.886v-3.848l2.646-1.924
		l2.967-1.978l2.566-0.428l0.962,6.254l0.962,2.886l-0.481,2.886l-0.481,3.367l2.405,2.405h3.367l2.886-2.405l0.042-0.105
		l0.439-0.376l0.756-1.512l0.206,0.069l1.924-3.848v-0.481l0.481-0.962l0.962-4.81l1.924-1.924l6.254-2.405l0.16-0.16l0.802-0.321
		l2.02-2.598l1.549-1.808l3.646-1.367l0.481,0.962l-1.443,0.962l-0.12,0.601l-0.361,0.361v1.443l-0.481,3.367l-0.481,0.962
		l0.175,0.875l-0.175,1.05l0.412,0.137l0.069,0.344l2.405,0.481l1.443,0.481l0.428-0.107l0.535,0.107l0.396-0.34l0.566-0.141
		l1.203-1.374l1.203-1.031v-0.344l0.962-1.1v-2.886h0.962l6.254-2.886l2.886-0.481l-0.481,0.481l0.962,1.924h4.329l0.481-0.481
		l0.962-0.962v-2.405h-1.924v-0.962l4.81-0.481l1.924,3.367l0.063-0.188l0.418,0.669l2.886,0.481l1.924,0.481h1.924l1.924-4.329
		l2.405-0.481v0.962l0.289,0.481l0.192,0.962l0.241-0.24l0.722,1.203l1.443,2.405l-2.886,0.481l-3.367,0.962l-0.962,7.697
		l-1.443,3.367l-0.481,3.367l0.962,2.405l3.367,2.886l1.924,0.481l1.443-1.443l0.481-0.866l1.443-2.02v-0.577l0.481-0.866v-3.848
		l-0.481-2.886h1.443l0.962,3.367l2.405,1.443l-1.443,1.443l0.481,4.329l1.924,3.848l2.405,0.481l1.443-1.924l0.069-0.344
		l0.412-0.618v-1.443l0.481-6.735l1.443-2.886l0.962-7.697l0.481-0.962h1.443l4.329,4.329l1.443,2.405l-4.329,0.481l-2.886,1.443
		l-0.481,0.962l-0.481,0.962l-0.289,2.886l-0.192,0.962l0.069,0.275l-0.069,0.687l0.962,1.924v0.481l1.443,2.405l-3.848,0.962
		l-1.443,2.886l0.962,1.924l0.481,3.848l0.916,0.55l0.046,0.412l1.443,0.481l2.749-1.924h0.137l1.924-1.443l0.481-3.367
		l-2.405-0.481l-0.481,2.405l-1.443-0.481l0.222-1.11l1.221-0.814l0.962-1.924l1.443-0.481l0.16-0.321l1.283-0.641l5.773-1.443
		l1.443-1.443v-3.848l0.481-5.292h1.443l1.924,0.962l0.481,1.924l-1.443,2.405l-0.962,1.924l1.443,0.962h5.292l0.481-0.481
		l2.886-3.848v-2.886l1.443-0.962l2.886-3.367v-3.367l-0.481-0.577v-0.385l-1.924-1.924l-0.481-2.405l1.443-0.962l1.443-2.405h1.443
		l0.962,0.962l0.573,0.115l-0.092,0.366h1.924l0.962-0.962l1.443-2.886l1.924-0.481l0.481,0.962l0.481,2.405l-1.443,2.405
		l-0.481,2.886l1.924,0.481l6.735-1.443l-0.198,1.783l-0.283,0.141v2.405l0.962,0.962l0.481,2.886l-3.367,0.481l-0.481-2.886
		l-0.449-0.224l-0.032-0.257l-2.405-0.962l-4.329,0.962l-1.443,1.443v3.848l2.405,1.924h3.848l2.405-0.962l0.962,3.367l1.443,0.962
		h3.848l1.443-0.481l1.443,0.481l0.962,5.773l4.329,0.962l2.405-0.481l0.481-2.886v-2.886l0.481-1.443h3.848l0.962,0.962
		l0.481,0.481l0.962,0.962l1.443,1.443l0.962,0.962l0.641-0.16l0.321,0.16l0.321-0.321l0.641-0.16l0.962-1.443l0.481-0.481
		l0.069-0.344l0.412-0.618h1.443l1.443,0.962l1.924,2.886l1.443,2.405l2.405,0.481l1.443-1.443l0.481-3.848l2.405-0.481l0.962-1.924
		h0.962l1.924-1.924l0.481-0.481l0.481-5.773l3.848-1.924l1.443-1.443l0.481-2.405l-1.443-2.405l-0.481-1.924l1.443-0.962
		l0.096-0.192l0.385-0.289l0.12-0.722l0.361-0.721l-0.131-0.656l0.131-0.787l-0.481-0.962h-1.924l-0.962,0.962l-1.443,3.848h-2.405
		h-0.481l-0.481-4.329l-0.962-6.254h1.804l4.393,0.764l2.943,0.679l0.33-0.11l0.632,0.11l0.12-0.361l0.361-0.12l0.321-1.924
		l0.16-0.481h-0.08l0.08-0.481l4.329-1.443v-4.33l-0.962-5.292h-2.405l-1.093,0.437l-0.35,0.044l-0.275,0.206l-0.687,0.275
		l-0.535,0.641l-0.428,0.321l-0.069,0.275l-1.374,1.649l-3.367,0.481l-0.77,0.481h-0.192l-0.321,0.321l-2.566,1.604l1.443-3.367
		v-5.292l-0.481-1.924l-0.481-0.722l-0.962-2.646l-1.924-2.405h-0.08l-0.401-0.481h-2.886l-1.443,0.962l-1.924-0.481l-0.962-2.405
		l3.848,0.296v0.185h2.405l0.962-1.443v-2.886l-4.089-1.363l-3.608-2.004l-5.773,0.481l1.443-1.443l4.329-3.848l2.886,0.962
		l4.329,1.924l0.641-0.16l0.802,0.16v-0.361l0.481-0.12l0.621-1.864l3.227,1.383l0.481,1.443l1.443,0.481l1.443-3.367l3.367-0.962
		l1.924-1.924l-0.962-3.367h2.886l0.962-0.481l0.962-0.481l2.566-3.207l2.245-2.566l3.367-0.481l1.443-0.962l3.367-0.962
		l2.405,1.924l1.184-0.148l0.74,0.148v-0.241l1.924-0.241l6.735-0.481l1.924,1.924l1.924,3.848l1.443,1.924l2.405-0.481l0.35-1.224
		l0.131,0.262v-0.722l0.481-1.684l5.773-2.886l0.825-1.374l0.137-0.069v-0.16l0.481-0.802v-3.848l0.962-2.405l-0.109-0.153
		l0.109-0.328l-1.924-2.405l-0.096-0.019l-0.385-0.462l-0.962,0.192l-0.962-0.192l-0.167,0.418l-0.314,0.063l-0.962,2.886
		l-2.886,0.481h-6.254l-1.443-0.962l-2.405-0.481l-2.405,0.962l-2.405-1.924l-0.332-0.182l-0.149-0.299l-0.999-0.333l-1.837-1.011
		l-0.05-0.1l-3.367-1.924l-0.107,0.053l-2.779-1.497l-1.443,0.481l-0.787,2.099l-0.175-0.175l-1.082,3.247l-1.804,3.969
		l-2.886,2.405l0.078,0.052l-1.04,0.91l0.481,3.367l-2.405,1.924l-5.773,1.924l-1.443,0.866l-0.481,0.096v0.192l-0.481,0.289
		l-2.405,0.481l-1.443-0.962l-1.924,0.481l-0.481,0.481h-0.481l-0.481,0.962l0.481,1.924l0.344,2.405h-1.306l-0.481-2.405
		l-0.12-0.301l-0.361-1.624l-0.481-1.684v-1.684l0.962-1.443l3.464-3.079l0.385-0.289l0.013-0.065l0.468-0.416v-0.048l0.481-0.433
		v-2.886l-0.481-0.481l-0.962-2.405l3.367-0.481l3.367-2.886l1.443-3.848l3.848-1.924l0.481,2.405h2.405l0.481-0.481l-0.16-0.802
		l0.16-0.641l-0.449-1.122l0.449-2.245l3.848-1.443l3.367-1.443l1.443-2.886l0.962-2.886l1.924-0.481l0.962,1.924l0,0l0.962,1.924
		l-0.481,2.405l-0.481,0.481l-0.481,0.481v2.405l0.481,0.481l1.924-0.481v-0.962h0.962l0.962-1.924l0.962-1.924l1.443-2.886l0,0
		l0.481-0.962l-0.148-1.036l0.148-0.888l-0.481-1.443l-0.206-0.275l-0.275-0.687l-0.962-0.962l0.481-2.886l-0.18-0.722l0.18-0.722
		l-0.481-0.481l-3.848,0.962l-0.071,0.107l-1.372,0.374l0.481-2.405l1.443-2.886l1.443-1.443l3.848-1.924l0.962-1.924l4.329,0.962
		l3.848-3.367v-2.405l-0.451-0.752l-0.03-0.21l-0.962-1.443l0,0l-3.367-5.292l-0.866-2.02l-0.457-1.828l0.2-0.802l1.122-1.122
		l2.405-1.924l1.443-2.886l1.443-2.405l5.773-3.367l2.405-1.924v-4.329h-1.443l-2.405,1.924l-5.773,0.481l-1.443,0.481l0,0
		l-2.886,0.962v0.131l-0.962,0.35l-3.247,1.082l-2.646,0.241l-1.848-0.142l-1.399-0.7l-2.405-0.962l-0.481-3.848l-0.962-1.443
		l-0.962-0.481v-0.481h-0.962v-2.886l1.443-0.481l0.962-1.443v-2.886l-0.361-1.804l0.361-2.526h3.367h3.367l0.481-0.481l1.924-0.962
		l0.962,3.367h3.367l3.367-1.443l0.321-0.401l0.16-0.08l0.289-0.481l1.154-1.443l-0.085-0.34l0.085-0.141l-0.481-1.443l-1.698-2.122
		l-0.3-0.801l-0.325-2.274l2.323,0.387l1.924,0.962v4.811l0.962,1.443l1.924,0.481l3.848-2.405l2.405-4.329l3.848,0.481l1.443-0.962
		l1.924-0.481l1.443,3.367l1.443,0.962l3.367-0.481l2.886,3.367l3.367,0.481l0.481-0.481l-0.175-1.05l0.175-0.875l-0.481-0.962
		l-3.848-3.848l-0.481-5.773l-0.481-0.481l-0.481-0.481l-6.254-0.481v-2.886l-0.962-1.443l-0.481-0.481l-1.443-1.924l-0.385,0.096
		l-0.096-0.096l-0.802,0.321l-0.641,0.16l-2.165,0.962l-1.203,0.481l-0.096,0.096l-0.866,0.385l-0.962,1.443l-0.481,0.481v0.241
		l-0.481,0.722v2.886l0.962,1.924h-4.81l-0.962-2.405l-1.924-4.233v-0.096l-0.481-0.962l-0.543-0.652l0.062-0.31l-1.924-1.924
		h-2.405l-1.924,0.962l-0.175,0.437l-2.23,1.487l-1.443,6.254h-1.443l-0.306-0.525l-0.175-0.437l-2.405-4.329l-0.226-0.057
		l-0.255-0.424h-2.886l-0.962,0.481l1.924-7.697l0.481,1.443l0.16,0.16l0.321,0.802l2.405,1.924l3.367-0.481l3.848-3.367v-4.811
		l-1.924-1.443h-3.367l-3.848,1.924l0.962-3.367l0.198-1.486l0.283-0.92v-1.203l0.481-3.608l2.886-5.773l1.443-2.886l0.206-0.825
		l0.275-0.618l0.722-3.367l0.241-0.962v-0.16l0.481-2.245l3.367-4.811l2.886-1.443v-1.443v-1.443l1.443-1.443l0.722-1.082
		l0.722-0.842l0.241-0.601l1.203-1.804l2.886-3.848l8.178-0.481l0.962-0.962v-2.405l-1.924-2.886l-1.924-3.848l5.773-0.481
		l0.481-0.481h0.481l0.481-0.962v-4.329l-0.481-0.137v-0.344l-2.886-0.481l-2.566-1.283l-0.058-0.292l1.662-0.831l1.924-1.443
		l4.81-4.329l0.481-1.924h-2.405l-2.886,2.405l-3.848,3.367l-0.219,0.875l-0.262,0.087v0.962l-5.292-0.481l-1.924-0.481v-3.848
		l2.405-1.924v-3.367l-3.367-3.367l2.405-3.367l0.481-3.367l-2.405-3.848l0.481-1.443l3.367-0.962l0.962-0.962l0.087-0.787
		l0.394-0.656l0.962-3.367v-2.405l-1.443-2.405l3.848,0.481l0.962-2.405l-5.292-0.481l-2.405-1.924h-3.367l-0.962,0.481
		l-0.962,0.481l-0.962,0.481l-0.022,0.056l-4.307,2.349l2.886-4.329l0,0l0.962-1.443l0.962-4.811l-1.924-1.924l0.481-1.924v-2.886
		l-0.962-0.962v-1.924l5.773-2.886l1.443-1.443l1.924-1.924l2.165-2.165l2.165-0.722l1.924-2.405l0.802-1.604l0.641-0.802
		l0.12-0.722l1.323-2.646l-0.092-0.275l0.092-0.206l-0.481-0.962l-0.16-0.16l-0.321-0.802l-0.962-0.481l-0.481-0.481l-1.203-0.361
		l-0.24-0.12l-4.811-1.443v-1.924l1.924-0.962l2.245-1.924l0.641-0.481l0.022-0.087l0.459-0.394l4.329-2.886h2.405l1.924,1.924
		h2.405l2.886-0.962l-0.481,1.924l0.481,1.443h3.367l0.962-0.481v-0.962h1.924l-0.481,3.367l-0.962,2.886l0.481,1.443l2.886,1.443
		l2.405,3.848v3.367h-1.443l-3.367,0.481l-0.962,2.405l-0.481,7.216l0.962,0.481l2.886,0.481l2.405-0.962l1.924-2.405l0.481-4.811
		l0.962-1.443v-1.443v-2.886v-0.962l-0.481-0.481l-0.481-2.886l1.443-0.962l0.481-2.886l-1.082-0.962h0.12l-1.203-0.962
		l-2.165-1.924v-4.811l0.385-1.155l0.577-0.77l1.804-2.105l2.526-1.263l2.886-1.443l0.361-0.361l1.082-0.601l1.443-1.443
		l2.886-1.443l1.443-2.405v-3.848v-1.443l-0.962-1.443l-0.16-0.053l-0.321-0.428l-0.321-0.192l-0.641-0.77h-0.641l-0.802-0.481
		h-3.367l-2.886,0.962l-1.924,2.405v3.848l0.481,1.283v3.047l-1.443,1.443h-3.367l-2.172-0.869l-0.714-2.498l-0.481-0.481
		l-0.481-0.481h-2.886l-0.481,0.481l-6.735-0.481l-3.848,1.443l-0.141,0.33l-0.34,0.151v0.641l-0.962,2.245l-4.329,3.367
		l-4.81,3.367l-2.405-0.481l-2.405-2.886l-0.555-0.444l-0.888-0.999l-0.456-0.076l-0.506-0.405l-0.962,0.16l-0.962-0.16
		l-0.962,0.481l-2.405,0.481l-0.481-1.443l-2.405-2.886v-8.659l-2.886-2.405h-2.886l-1.924,0.962l-1.924-0.962h-2.405l-0.481,0.481
		l-0.962,2.886v3.367l0.962,0.962v4.329l-1.924,1.924l-5.292,0.481l-2.405,1.924h-4.81l-1.443-1.443l-0.08,0.16l-0.401-0.573v-0.069
		l-2.405-3.367l-0.154-0.031l-0.328-0.45l-3.169-0.453l-0.439-0.329l-0.76-0.95l0.038-0.192l-0.481-0.481l-0.481-0.481h-3.367
		l-0.481-0.962v-5.292l3.848,0.962l2.886-0.481l1.443-1.924l3.848-0.962l1.443-1.443l0.481-2.886l-0.962-0.962l-1.443-3.367
		l-0.962-0.962l-4.329-0.962h-6.254l-1.924,3.367l-0.518,1.295l-0.444,0.148l-0.321,0.962h-1.122v-1.443l-2.405-3.848l-0.24-0.12
		l-0.241-0.361l-0.802-0.16l-0.641-0.321H557.8l-2.405-0.481l-1.071-1.225l0.109-0.219l-2.405-2.405l-5.773-2.886l-0.962-2.405
		h-0.962l-0.962,1.443l-4.329-2.405h-0.481l-5.773-2.886l-1.009-0.31l-1.397-0.652h-0.722l-0.92-0.283l0.198-0.198l-2.405-0.481
		l-2.405-1.443l-3.367-0.962l-1.443-0.962l-1.122-0.374l0.16-0.107l-1.924-0.481l0,0l-1.443-0.481l-4.811-1.924l-1.924-0.641
		l-1.924-0.802h-0.481l-2.886-0.962l-0.962-0.962l-2.886-1.924l-7.312-1.828l-0.866-0.577l-0.437,0.073l-0.319-0.142l-0.206-0.412
		l-2.886-0.962l-0.481-1.443l-0.722-0.962l-0.241-0.481l-0.177-0.076l-0.304-0.405l-0.962-0.137l-1.924-0.825l-1.443-1.443
		l-1.443-4.811l-0.069-0.103l-0.412-1.34v-5.292v-5.773l-0.481-5.292l-0.481-0.962l-0.344-0.275l-0.275-0.412l0.137-0.275
		l-0.962-0.962l-5.292-3.367l-2.405-3.848l-0.481-3.848l-0.481-3.848l-0.962-1.924l-0.878-1.025l-0.084-0.418h-0.275l-1.649-1.924
		l-0.847-0.308l-0.115-0.173l-4.329-1.443l-8.178-3.367l-4.329-0.481l-0.481-0.962v-3.047l0.962-8.018V95.99l-0.481-0.481
		l-0.481-0.481l-4.81-0.481l-0.962,1.443l-0.74,2.775l-0.222,0.592l-0.064,0.481l-0.898,3.367l-0.962,7.697h-3.367h-1.924
		l-1.924,0.962l-1.732-0.289l-0.192-0.192l-0.385,0.096l-0.577-0.096l-7.216,2.405h-4.329l-0.962,0.481l-7.257-1.814l-0.046-0.416
		l0.087-0.175l-0.481-3.367l-2.886,0.481l-0.481-2.405l-0.481-1.122v-0.321l-0.175-0.087l-0.787-1.837l-0.481-3.367l0.962-1.924
		V87.331l-0.481-0.481l-0.321-0.16l-1.604-1.283h-2.886h-1.924l-0.481,0.481l-2.279,1.367l-0.768,0.236l-3.207,0.802l-0.962,0.481
		l-2.886,0.481l-1.443-2.405l-0.962-5.773l-0.962-1.443l-1.924-0.962l-9.621,0.481l-8.659-0.962l-0.962-2.886l-2.405-2.405
		l-1.443-3.848l-2.886-13.469l-2.886-0.481l-1.443,0.962v4.811l1.443,7.216l0.456,1.139l0.025,0.304l1.443,3.367l-0.481,3.848
		l-1.443,2.405h-4.329l-0.962,0.962l-0.481,0.481l-1.443,2.886l-1.443,1.924l-0.962-1.443l-1.443-3.367l-0.481-0.481l0,0
		l-0.481-0.962l-3.367-2.405l-0.481-3.848l-1.443-3.848l-0.481-0.641v-0.321l-0.962-0.962l-2.405-2.405l-5.292,0.481l-0.481,0.481
		l-0.044,0.219l-0.918,1.224l-2.886,0.962l-1.443,1.443l-2.405,4.329l-4.81,3.367l-3.367,6.735l-0.962,8.659l1.924,3.848v11.064
		l-0.481,1.443l0.962,5.773l2.405,9.14l0.481,6.735h-4.329l-2.886-2.886l-2.405-0.481l-2.782,1.192l0.376-2.635l3.367-3.848
		l0.481-2.886l-2.886-0.962l1.443-4.811v-4.329l-2.405-3.367l-0.192-0.096l-0.289-0.385l-0.673-0.096l-1.411-0.706l0.16-0.16
		l-2.405-0.962v-1.924v-2.405l-1.443-1.443l-1.283-3.421l-0.641-2.352l-2.886-4.811l-2.405-1.924l-2.219-1.21l-0.186-0.233
		l-0.38-0.076l-1.562-0.852l0.017-0.034l-0.962-0.481l-2.886-5.292l-2.886-2.405l-1.443-3.752v-1.539l-0.481-0.962l-0.722-0.08
		l-2.44-0.813l-1.649-2.474l-0.117-0.047l-1.807-2.839l-3.848-7.697l-2.886-2.405l-3.848-3.367l-3.848-2.886l-3.367,0.481
		l-1.924,2.405v3.367l0.962,1.924l0.192,0.096l0.42,0.735l0.671,1.788l1.122,4.116l1.924,2.405v9.14l0.481,0.481l0.962,3.848
		l0.192,0.385l0.289,1.058h0.241l0.241,0.481v6.735v3.848l0.962,1.924v6.254l1.443,6.254l0.337,0.421l0.144,0.541l0.481,2.405v1.443
		l1.203,1.443l2.034,2.711l1.574,3.542l-0.481,2.886v2.886l0.385,1.347l0.096,1.058l-1.924,3.848l0.481,2.886h0.044l0.437,2.405
		h-4.329l-1.069-1.283l0.107-0.16l-1.443-1.443h-2.886l-0.962,0.481h-2.886h-2.405l-1.203,0.241l-3.608,0.241l-1.924-0.962
		l-0.962-2.405l-1.443-4.811l-1.443-3.367l-0.962,0.962v2.886l-1.924,1.443l-0.08,0.16l-0.401,0.321v0.481l-0.481,0.962
		l-0.962-0.481l-1.924-4.329l-0.019,0.056l-0.463-1.018l-2.886-7.697l-0.481-1.122v-0.802l-0.962-1.443l-2.886-1.924h-3.848
		l-1.443,1.203l-0.481,0.241l-0.137,0.275l-0.825,0.687l-1.924,3.848l-0.962,0.481v-0.962l-1.924-3.848l-1.924-0.481l-0.481,2.405
		l0.962,1.443l0.962,4.329l0.962,2.886v0l0.481,2.886l-1.924,1.924l0.167,0.084l-0.348,0.397h-0.301l-0.962,1.443l0.412,4.123
		l-0.172,1.89l-0.529,2.646h-0.192l-0.321,2.566l-0.641,3.207v3.367l-4.81,1.443l-4.329-0.481l-1.924-0.962l-2.886,0.962
		l-6.254,0.962l-4.811-0.481v-1.443v-2.886l-0.481-0.481l-4.329-0.962v-2.886l-0.962-0.481l-2.405,1.924v0.08l-0.481,0.401h-1.924
		l-3.367-0.962l-0.962,1.924l2.405,8.659v5.773v1.443h-0.962l-1.924,2.405v2.886l0.481,0.481l0.481,0.481l5.292,1.924l0.481,0.962
		v6.254l-1.443,2.886v4.329l4.329,3.367l0.962,2.886l0.962,0.962l0.962,0.962l1.019,0.226l0.424,0.255l3.214,0.918l1.115,1.487
		l0.802,0.321l0.641,0.641h0.962l2.309,0.385l0.818,0.818l1.203,3.608l0.55,0.275l-0.069,0.206l1.443,0.481v0.962l-4.329-1.924
		h-2.886l-0.481,0.481v1.924l0.412,0.55l0.069,0.412l0.673,0.577l0.289,0.385l0.209,0.042l1.404,1.203l0.94,1.567l0.333,1.998
		l-2.886,0.962v5.773h-2.405l-4.329-0.962l-1.924,2.405h-2.405l-11.614,0.893l-1.488-0.186l-6.14-2.632l-2.405,0.481h-5.773
		l-2.886,1.443l-0.481,1.924l-8.178,0.962l-1.031-3.092l0.069-0.275l-0.262-0.306l-0.219-0.656l-1.374-1.203l-1.031-1.203h-0.344
		l-1.1-0.962l-1.871-0.748l0.428-0.214h-0.962l-0.481-3.367l-0.481-0.481l-0.481-0.481l-0.481-0.481l-5.292-2.886l-0.962-1.924
		l-4.811-2.886l-0.182-0.026l-0.78-0.455h-2.405h-0.962l-0.481-1.924l-2.405-0.962l-3.848-2.886l-5.292-1.924h-8.178l-0.962-0.481
		l-2.405-0.481l-1.443,0.962l-0.481,4.329l2.405,11.064l2.886,9.14l1.924,4.329l1.924,0.481l4.329-1.443l1.924-1.443l0.962-4.811
		h2.405l1.924,0.962l8.659,1.924l0.481,1.924l0.481,5.773l0.481,1.924l0.962,3.848l0.481,1.924l1.954,6.254h-0.03l0.481,1.443
		l1.443,2.405l4.811-0.962l0.962,5.292l0.523,0.672l-0.041,0.29l2.886,3.367l1.924,2.405h3.367l0.962-0.481l0.962-0.481l0.802-0.561
		l0.16,0.08l0.577-0.577l2.309-1.347l0.577-0.693l0.385-0.269l1.1-1.512l0.344-0.412l2.886-3.848l0.053-0.481l1.871-3.367
		l4.329,0.481l1.924,1.924l4.329,0.962l0.481,8.659l0.962,1.924l2.886,1.443h2.886h1.443l0.962,4.329h-1.443l-0.55,0.412
		l-0.412,0.069l-0.074,0.296l-0.888,0.666l-3.848,2.405l-6.735,5.292l-3.367,3.848l-0.481,4.811l2.405,2.886l0.481,1.924
		l-2.886,0.481l-0.481,0.481l-0.481,0.481v4.811l0.481,0.481l0.421,0.241l1.503,1.203l0.962,6.254l-2.886-0.481H146.5l-0.481-0.481
		l-3.848-7.216l-1.443-5.292l-3.367-1.924l-0.481-3.367l-0.481-0.481h-2.405l-2.886-1.443l-7.216,0.962l-0.962,0.481l-1.443,2.886
		l-4.329,0.962l-3.367,2.886l-2.405,0.481l-0.962-0.962h-3.367l-0.962,0.481l-3.367,2.886l-1.924,3.848v3.367l0.962,4.811
		l1.443,4.811l-0.962,2.886v2.886l0.962,2.886l-0.481,2.405l-3.367,4.329l-2.405,0.962l-0.962-3.848h-4.329l-1.443,0.481
		l-4.329,2.886l-4.329,0.962l-2.405,1.443l-6.254,3.367l-3.367,0.481l-0.962-1.443l-1.924-0.962l-2.886,0.481l-3.848,4.811
		l-1.443,3.848l-3.848,2.886l-2.886,3.367l-2.405,4.811l-1.924,2.405l-1.924,3.848v2.886l0.481,0.481v2.886l-0.962,0.962
		l-1.443,3.367l-2.405,5.773l0.481,2.886l1.082,0.902l-0.12,0.06l1.955,1.521l0.931,2.328l-1.924,4.329l0.481,1.924l4.329,2.886
		l-0.481,5.773l3.367,3.848l2.405,0.962v0.962l-0.962,2.405v2.405l2.886,2.405v1.924l-1.924,2.405l0.481,2.405l3.848,2.405h7.216
		l1.443,0.481v4.329l2.886,1.924l1.924,2.405l2.886,0.481l5.773,0.481l2.886,3.848l3.848,2.886l1.924,0.962v1.443l-5.773,1.443
		v-1.443l-0.962-1.443l-2.405-1.443h-3.367l-0.481,0.481l-0.481,3.367l-0.962,0.481l-4.329,1.443l-1.443,4.329l-1.443,0.962
		l-1.443,5.773h-1.443l-10.583,2.405l-14.432,1.924l-1.443,0.962v4.329l0.481,1.924v3.848l-0.962,3.367v8.178l1.443,4.811
		l1.924,0.481l1.924-1.443l2.405,0.962l1.924,6.254l1.924,5.292l2.405,1.443l2.886-0.481l7.216-4.329l6.735-1.924l14.913-0.962
		l3.848-3.367l0.962-2.405l-1.443-0.962v-5.292l-0.481-0.802v-0.16l-0.241-0.241l-1.299-2.165l-0.79-1.975l0.405-2.836l1.924-0.962
		v0.962l1.924,2.405l1.924-0.481l-1.443-3.367l0.481-2.405l1.443-4.329l2.405-0.481l5.773-1.443l2.886,0.962l3.848,0.481
		l4.811,1.443l-0.481,1.924l0.481,2.886l2.405,0.481l0.962-0.962l0.481-0.481v-4.329l1.443,0.481l3.367,1.443l3.367,0.481
		l4.811,3.367l1.443-0.481l0.962-1.924l1.924,0.481l0.962,0.962l0.802,0.16l0.16,0.321h1.443l0.481-1.443l-1.443-1.924l-4.329-3.367
		l-5.773-2.405l-5.773-1.443l1.443-1.443l8.178-0.481l0.962,0.481l1.443,2.405l1.924,2.405h0.08l0.401,0.481l3.367,0.481
		l3.367,3.848l0.962,3.367l3.367,7.697h2.405l0.481-0.481l2.886-0.962l0.481,3.367l0.941,1.318l0.021,0.126l0.802,1.069l0.16,0.374
		l0.148,0.037l0.333,0.444l3.367,0.962v5.292l-2.085,2.085l-1.283,0.802l0.053,0.053l-0.754,0.48l-0.261-0.052l-1.336,1.069
		l-0.588,0.374l-0.03,0.12l-0.451,0.361l0.144,0.866l-0.144,0.577l0.412,1.031l0.069,0.412l0.219,0.306l0.262,0.656l0.401,0.321
		l0.08,0.16l0.241,0.241l1.203,1.684l0.561,0.08l0.401,0.401l1.519-0.127l0.886,0.127l1.203-0.301l2.165-0.18l1.443,1.924h0.962
		l0.481,1.443v2.886l-1.443,1.924l-0.481,1.924l7.216,7.216l0.962,0.641l1.924,1.764l0.962,3.848l0.962,2.405l0.321,0.16l0.16,0.321
		h0.481l1.924,0.962l0.481,0.962l1.924,5.773l2.886,2.405l0.481,2.405l-3.367,0.481l-0.137,0.481h-0.344l-0.481,2.886l-2.405,2.405
		l-0.962,2.886l1.924,0.481v1.443h-2.886v1.443h1.924v3.848l-0.481,0.962l-0.481,0.962h-3.848l-1.924-1.924l-1.924-0.962
		l-4.329-2.405h-5.292l-4.329,0.962l-0.962,2.886l-1.924,0.481l-1.924,1.924l1.443,5.292l2.405,0.481l1.443-1.443h6.735l1.924,0.722
		l4.329,2.165l2.405,1.443l0.962,4.329l2.421,4.438l0.466,3.259l-0.962,0.481l-6.735,1.443l-3.848,1.924l-2.405-0.481l-2.405-1.924
		h-3.848l-2.886,1.443l-7.216,0.481l-1.924,1.924v4.81l1.443,1.924l4.811,1.924l4.329,2.886l-0.481,2.405v2.886l0.481,0.962
		l2.886,2.405l1.924-0.481l3.367-4.33l0.962-2.405l1.924,0.481l1.443,2.405l2.405,2.405l3.848,0.962l-0.481,1.924l-1.924,2.886
		l0.481,1.924h4.329l3.367-0.962l3.367-2.886l3.367-5.292l1.924-0.962h0.481l0.481-0.481l0.962-2.886l-1.443-3.367h-2.405
		l-0.401,0.401l-0.561,0.08l0.481-1.924v-6.254l-0.962-3.367l5.773,0.481l1.924-2.405l0.481-2.886l-2.886-2.405l-3.367-0.481
		l-2.405,1.924l-1.924,0.962l0.481-9.621l1.924,0.962l2.405,1.924l4.329,1.924l1.388,0.74l0.056,0.222l5.773,2.886l9.14,0.481
		l2.886,1.443l4.811,0.481h4.329l2.405-0.962h6.735l2.405-0.962l3.848-2.405l10.102-4.811h3.367l0.962,1.443l1.924,0.481
		l2.405-2.405l2.886-5.292l3.149-1.968l1.341-0.224l2.245,0.748l0.481,3.367l0.481,1.443l0.275,0.069l0.206,0.412l0.962-0.12
		l0.481,0.12l0.656-0.262l1.749-0.219l0.962,2.405l0.481,0.962l0.385,0.192l0.577,0.77l0.481-0.241l0.481,0.241l0.321-0.641
		l0.641-0.321l2.405-0.481l3.848,1.924l2.405,2.405l2.405,0.962v1.443l-1.443,0.962l-2.405,3.848l-2.886,4.329l-2.405,1.924
		l-6.735,4.329l-3.367,2.886l-0.481,1.924l0.962,2.405l-2.886,1.443l-1.924,2.405l-2.405,4.329l-2.405,2.405l-2.886-0.481
		l-3.367-0.481l-4.329,1.443l-2.405,2.405l-1.924,2.886l-2.886,1.924l-1.924,1.924l0.962,2.405l2.886,0.481l3.367-1.924l4.329-2.886
		l5.292-2.886l2.405,0.962l2.405,1.443l1.924-0.481l2.886-2.405l4.329-2.886l4.329-1.443l-0.962,3.848l-3.367,2.886v2.886
		l0.481,0.481l5.292,1.443l6.735,1.443v1.443l-5.292,0.481l-9.14,1.924l-0.86,0.983l-0.102-0.02l-2.405,2.886v2.405l2.886,4.329
		l3.848,2.886l2.886,0.481l1.443-0.962h4.329l1.443,0.481l1.443-0.481l2.405-0.481l1.924,0.962l1.443,2.405l-0.481,0.962
		l-5.292,0.481l-8.659,2.405l-5.292,2.405l-1.443,1.443l2.886,1.924l1.924,0.962l2.405-1.443h3.848l1.443-0.962l3.848-0.481
		l2.405-1.443h6.254l0.481,0.481l2.405,0.481l0.962-1.443h2.886l3.848,1.443l3.367,1.443l1.924,0.962l5.292-2.886h4.329l0.962,3.367
		l4.811-0.481l2.405,1.443l6.254,0.481l-0.481,1.924l-2.405,2.405l-1.924,2.886l-1.443,2.405l-2.405,2.405l-0.962,2.405
		l-1.443,3.367l-1.443,4.329l-3.367,5.292l-2.405,5.773l-2.405,3.848l-0.481,1.924l1.443,0.481l0.481,0.962l-0.481,2.405
		l-0.962,2.405h1.443l2.886-2.405L313.906,679.025z M175.845,144.576v-0.481h1.443v0.481H175.845z M570.307,579.447l-0.481-2.405
		h1.924v1.924L570.307,579.447z M185.947,545.773l-4.329,1.443l-2.405-0.481l-0.481-1.443l1.443-2.886l2.405-0.481L185.947,545.773z
		 M157.084,282.638l0.321-0.449l0.16-0.032l1.443-1.924l0.053-0.321l0.428-0.641l-0.148-1.036l0.148-0.888l-0.301-0.18l-0.18-1.263
		h1.443l1.813-1.295l0.592-0.148l0.566-0.679l0.396-0.283l0.641-0.962l0.802-0.962l1.443-2.405l0,0l5.592-9.32l0.127,0.127
		l0.053,0.534v5.773l-2.405,1.443v2.886l0.481,0.962v3.367l3.367,0.481l-0.962,1.443l-2.886,0.962l-0.481,1.443l-3.367,0.962
		l-3.367,3.367l-3.367,0.481L157.084,282.638z M605.424,408.193h1.924l2.405,0.962l0.866,2.165l-0.423,0.529l-3.561,1.978
		l-1.211-3.229h-0.18l-0.116-0.925L605.424,408.193z M498.63,575.117l1.855,5.566l-0.412,0.206v0.481l-0.481,0.481h-1.443
		l-0.481-3.367l-0.488-0.057l-0.474-3.791L498.63,575.117z M466.881,574.155v-0.962l-0.641-0.321l-0.802-1.603l0.481-1.443h1.924
		l2.886,2.405l-0.481,1.443l-0.481,0.069v-0.069L466.881,574.155z M597.933,465.85l-0.206-0.412l-1.283-0.321h0l0.321-0.16
		l-3.367-2.405l-0.296-0.74l0.296-1.184h2.886l2.405,2.405v2.405l-0.241,0.241L597.933,465.85z M535.19,549.141l-2.886-1.924
		l-1.443-0.962l-2.886-0.481l0.481-2.405l0.962-0.962h1.443l3.367,1.443l0.962,0.096v0.385l3.367,0.962l-0.481,2.405l-0.481,1.924
		L535.19,549.141z M610.876,273.498h-0.16v0.096l-3.358,0.336l0.311-1.554l0.16-0.321h2.405l0.748,1.122L610.876,273.498z
		 M612.158,236.938l-0.481-3.367l0.481-0.481h3.367v0.481l0.344,0.069l0.137,0.412v2.405l-0.481,0.481H612.158z M476.021,593.878
		v-0.962h1.443v0.962H476.021z M604.563,459.64l-0.101,0.025l-0.481,2.886h-1.443v-0.481l-1.443-0.481l-0.962-1.924l2.886-0.481
		l0.481-0.962l0.192-1.347l0.577-1.155l1.155-0.385L604.563,459.64z M608.31,338.44l-0.687-0.825l-1.237-2.062l-2.886-2.405
		l0.481-2.405l-0.134-1.47l0.134-0.935h-0.219l-0.262-2.886h1.924l0.601-1.203l0.361-0.241h2.405l1.155,0.898l0.77,1.026
		l2.405,1.924l2.405,2.886l-0.481,1.443l-4.329,3.367l-1.924,2.886H608.31z M564.342,208.556l0.192,0.962h0.481v1.924h-1.443v-2.886
		H564.342z M557.319,210.687v3.642l-1.443,1.443l0.177,0.886l-1.139,1.519h-1.443v-0.962l-0.987-2.763l0.025-0.123l-0.962-2.886
		l-0.214-0.214l-0.267-0.748l-1.531-2.449l-0.297-1.784l0.385-0.577l2.493-2.908l1.837-0.459l-0.962,3.367l0.481,3.367l1.443,0.962
		l1.603,0.229L557.319,210.687z M191.527,200.186l0.192-0.77l1.924,0.77v3.079h-1.924l-0.37-1.48L191.527,200.186z M555.875,586.422
		v-0.722l-0.481-0.962l-3.367-0.481l-0.481,0.481l-0.16,0.802l-0.321,0.641l0.17,0.113l-0.17,0.849l-0.962-0.481l-4.329,0.481
		l-1.924-1.924l-2.886-1.924l-2.886,0.481l-2.292-1.273l-0.113-0.17l-1.924-0.962l-0.962-1.924l0.481-2.405v-4.81l0.394-2.362
		l0.087-0.044l-0.074-0.037l0.074-0.444l0.962-1.443l1.443-1.443v-0.241l2.886-0.722l9.14-2.886l2.405-1.924h2.405v0.481
		l-0.962,1.924l0.481,2.886l1.443,1.924h3.848l1.443-0.481l1.924-1.443l0.12-0.601l0.361-0.361v-1.082l0.481-0.842l1.924,0.481
		l4.329,0.962v1.443l-1.443-0.481l-0.802,0.16l-1.122-0.16l-0.08,0.401l-0.401,0.08l0.175,1.05l-0.175,0.875l0.214-0.641
		l0.267,1.604l-0.481,3.848l0.641,0.641l-0.16,0.321l1.924,1.443l0.943,5.189l-0.462,0.103l-0.481,0.962l-0.481,4.329l-0.481,0.481
		l-9.621,1.924L555.875,586.422z M343.732,105.13l-0.321-0.16l0.321-0.802h0.481l0.481-2.405h0.962v1.924h0.192l0.289,2.886
		l-2.886,0.962L343.732,105.13z"/>
	<polygon points="667.961,522.202 666.036,524.607 664.112,524.126 660.264,520.759 657.858,521.24 656.415,522.202 
		656.295,522.803 655.453,523.645 654.972,527.493 657.377,529.899 661.226,531.823 663.631,532.304 666.036,528.937 
		671.328,528.937 672.29,528.456 678.063,528.937 678.544,527.012 678.063,526.05 677.1,523.164 675.657,520.759 672.29,518.834 
		669.885,519.316 	"/>
	<polygon points="147.228,168.465 147.463,169.11 147.73,169.11 149.387,171.24 149.387,171.515 150.349,172.477 152.273,172.958 
		155.64,171.034 156.328,169.889 156.603,170.072 156.751,169.184 157.084,168.629 156.973,167.852 157.084,167.186 
		156.774,166.464 156.603,165.261 155.837,164.278 155.64,163.818 155.55,163.909 155.159,163.406 155.159,163.337 155.031,163.241 
		154.553,162.626 154.678,162.375 153.235,160.932 153.716,159.008 156.603,157.565 157.084,155.64 156.603,154.678 
		156.121,154.197 156.121,153.716 154.197,152.273 151.792,149.387 151.578,149.28 150.83,148.425 150.189,148.585 149.868,148.425 
		149.547,148.745 148.906,148.906 148.425,149.868 148.41,150.063 147.463,152.273 147.463,156.603 149.387,158.046 
		149.868,159.489 148.906,159.97 148.136,160.355 147.463,160.451 147.463,160.691 146.019,161.413 145.538,163.818 
		146.982,168.148 	"/>
	<polygon points="570.307,190.276 569.345,188.833 564.053,185.466 560.686,185.466 559.243,185.947 559.243,183.06 557.8,183.06 
		555.394,184.985 554.913,188.352 556.276,189.715 555.875,191.719 555.875,194.606 560.686,198.935 565.496,199.416 
		567.902,200.378 568.864,196.53 570.307,193.644 	"/>
	<polygon points="663.631,323.046 662.188,324.009 659.302,327.857 659.302,331.705 659.783,332.186 664.112,334.111 
		667.479,334.111 668.923,333.148 668.983,332.908 669.885,332.186 674.695,331.224 676.138,329.781 676.619,323.046 
		673.252,322.565 671.809,321.603 666.998,320.641 666.517,320.16 664.593,320.641 	"/>
	<polygon points="451.968,690.089 449.563,691.051 449.082,691.532 448.12,692.855 445.715,695.861 445.632,696.276 
		445.234,696.824 445.394,697.465 445.234,698.267 445.627,698.398 445.715,698.748 446.264,698.61 446.677,698.748 
		447.195,698.378 447.639,698.267 448.395,697.579 450.044,696.343 451.259,694.975 452.93,693.456 453.004,693.012 
		453.892,692.013 454.855,689.127 456.298,687.684 460.627,686.24 462.231,685.278 462.551,685.278 463.032,684.797 
		463.995,682.392 463.514,681.911 461.108,678.063 457.26,676.138 454.374,675.657 452.93,676.619 451.968,677.582 449.563,679.506 
		449.563,684.316 450.525,688.165 	"/>
	<polygon points="404.825,636.211 405.306,637.173 408.674,634.287 409.155,630.438 411.56,631.401 413.484,631.882 
		413.965,629.957 413.003,623.704 410.598,620.817 407.712,616.969 406.268,615.526 404.825,619.374 402.42,620.336 
		400.015,622.742 400.015,626.59 400.496,628.033 402.901,631.401 405.306,633.806 	"/>
	<polygon points="644.389,344.694 641.503,338.921 639.097,338.921 638.135,340.845 637.654,346.618 639.097,348.061 
		642.465,347.58 641.503,349.504 640.541,352.391 641.984,353.834 647.275,353.834 648.718,351.91 651.605,350.466 652.865,349.458 
		653.048,349.504 654.01,348.542 654.491,344.694 654.01,343.732 653.529,343.732 653.048,343.251 649.199,342.77 647.275,344.213 	
		"/>
	<polygon points="561.648,115.232 558.281,116.675 557.319,117.637 555.875,119.081 554.467,122.462 554.432,122.448 
		553.47,124.853 553.47,128.702 555.394,130.626 559.243,130.626 561.167,128.702 561.648,128.221 561.808,127.419 562.61,125.815 
		564.189,124.039 564.534,123.891 566.459,121.486 566.94,118.599 566.459,117.156 565.015,115.713 	"/>
	<polygon points="240.787,654.972 242.711,653.529 246.559,651.605 247.521,650.162 245.597,645.832 243.673,644.87 237.419,644.87 
		234.533,645.832 232.128,648.718 230.685,651.605 231.166,653.529 234.052,655.453 236.938,654.972 	"/>
	<polygon points="630.679,158.406 629.957,158.527 625.147,161.413 625.062,161.838 623.704,162.856 623.704,165.743 
		624.002,166.141 624.185,168.148 627.552,171.034 627.552,174.401 629.476,174.401 630.919,171.515 632.363,170.072 
		632.188,169.897 632.622,169.535 632.844,169.591 634.287,168.148 636.211,165.261 636.211,161.413 635.73,160.451 634.68,159.576 
		633.806,158.527 633.299,158.425 632.844,158.046 632.057,158.177 631.401,158.046 	"/>
	<polygon points="620.336,655.453 625.628,660.745 629.476,660.264 631.882,662.669 634.768,664.112 636.211,663.631 
		636.211,660.264 635.73,659.783 632.363,658.339 630.919,653.048 629.476,650.643 626.59,649.68 622.742,649.199 620.336,653.048 	
		"/>
	<polygon points="552.989,620.817 552.027,623.704 553.47,626.59 556.838,628.995 560.686,629.476 562.61,628.514 562.61,626.109 
		562.61,624.185 561.648,621.298 561.44,621.142 561.064,620.165 561.167,619.855 560.205,617.931 557.319,614.564 554.913,614.083 
		552.989,617.45 	"/>
	<polygon points="616.007,546.735 617.45,545.773 617.45,542.406 615.045,535.19 612.158,531.823 610.715,531.823 608.31,534.709 
		607.348,540.482 607.829,543.368 611.677,546.735 	"/>
	<polygon points="628.755,278.357 628.995,278.309 628.995,278.212 630.438,277.346 634.287,277.346 635.249,275.903 
		637.654,273.979 638.616,272.055 637.815,269.65 636.211,262.434 635.249,260.991 630.334,260.718 630.438,260.51 626.59,260.51 
		625.147,260.991 625.33,261.082 624.473,261.472 624.185,261.472 621.298,262.915 618.893,265.801 618.893,268.688 618.893,269.65 
		619.855,272.536 621.779,273.498 622.742,275.422 623.772,276.659 623.704,276.865 625.147,278.309 626.59,278.79 627.246,278.658 
		628.033,278.79 	"/>
	<polygon points="674.695,219.139 672.771,220.582 671.809,222.988 672.29,225.393 673.252,225.874 674.214,225.714 
		675.176,225.874 678.063,224.912 678.063,225.874 679.506,228.279 687.203,227.798 687.684,227.317 687.684,224.912 
		687.203,222.988 686.721,222.507 686.24,222.026 681.911,222.026 682.392,219.62 682.873,217.696 680.949,217.215 679.025,219.139 
			"/>
	<polygon points="624.666,563.091 617.931,563.091 617.117,564.516 616.969,564.534 616.007,566.459 615.526,570.307 
		616.488,571.269 616.873,571.317 617.45,571.75 620.817,572.231 625.147,570.788 628.033,568.864 628.033,566.459 626.59,564.053 	
		"/>
	<polygon points="669.404,277.828 666.517,276.384 664.686,276.181 664.593,275.903 662.188,275.903 660.264,278.309 
		657.858,280.714 657.858,283.6 659.302,285.043 659.783,285.524 661.269,285.437 661.707,285.524 661.827,285.404 667.961,285.043 
		669.404,281.195 669.885,278.309 	"/>
	<polygon points="535.54,611.94 531.823,611.196 526.05,611.196 521.24,615.045 521.24,619.374 520.278,621.779 522.202,623.704 
		525.088,628.995 525.315,629.041 525.569,629.476 528.455,631.401 530.38,630.919 531.342,628.995 533.747,628.514 
		537.114,626.109 541.925,625.628 542.406,625.147 542.887,620.336 542.406,619.374 539.039,617.45 539.52,614.083 539.039,612.158 
			"/>
	<polygon points="367.007,676.693 367.303,676.619 367.624,675.337 369.227,671.809 369.708,668.442 368.746,666.517 
		366.341,664.593 363.455,664.593 362.493,665.074 360.087,667.479 360.568,670.366 362.733,673.493 364.417,676.138 
		364.609,676.202 364.898,676.619 365.464,676.761 365.379,677.1 366.101,676.92 366.822,677.1 	"/>
	<polygon points="675.176,506.327 675.176,511.619 677.581,512.581 680.949,512.581 682.392,511.138 686.721,509.694 
		686.721,507.289 684.316,504.403 684.247,504.403 683.835,503.922 679.506,503.922 676.138,504.403 	"/>
	<polygon points="487.085,637.654 481.793,637.173 479.869,637.654 479.388,641.022 480.35,646.794 480.831,647.516 
		480.831,647.756 482.275,649.68 485.161,650.162 486.123,643.908 488.047,643.427 488.047,641.984 487.566,639.578 	"/>
	<polygon points="651.124,688.646 654.972,693.456 657.377,693.456 659.783,695.38 661.707,696.343 661.707,697.305 663.15,699.229 
		665.555,699.71 665.555,696.824 664.593,695.38 661.226,694.418 661.226,693.456 659.783,690.089 658.82,686.721 656.896,684.797 
		653.529,684.797 652.086,685.759 	"/>
	<polygon points="672.771,382.216 671.809,383.178 671.328,383.178 670.366,384.621 669.885,386.545 670.847,387.988 
		675.176,389.913 678.063,389.913 680.468,387.507 679.987,385.583 679.025,383.178 680.468,381.735 680.468,379.329 
		678.544,379.329 677.1,381.254 	"/>
	<polygon points="657.377,476.021 658.339,476.983 662.669,476.983 666.517,474.097 667.961,471.21 665.555,468.805 663.15,468.324 
		657.377,470.248 	"/>
	<polygon points="695.621,585.22 695.38,585.22 694.899,585.701 694.418,588.106 696.342,590.511 696.556,590.511 697.334,591.386 
		697.305,591.473 698.267,592.435 702.596,592.916 704.52,590.511 705.001,586.663 704.52,586.182 704.16,586.061 703.012,585.241 
		703.077,585.22 701.634,584.257 696.342,584.739 	"/>
	<polygon points="652.086,487.085 653.048,491.896 655.453,494.301 658.82,493.82 660.745,493.82 662.188,493.82 662.669,492.377 
		661.707,490.933 660.264,488.047 658.82,486.123 656.415,484.68 654.01,485.161 	"/>
	<polygon points="699.229,398.572 700.672,400.015 706.445,402.42 709.812,402.901 712.217,401.458 712.698,399.053 712.217,398.09 
		705.001,395.685 701.634,395.204 699.71,396.647 	"/>
	<polygon points="580.409,593.878 578.966,595.322 578.485,600.132 579.928,601.575 584.739,603.018 588.106,603.5 588.587,602.056 
		586.182,596.284 582.333,593.397 	"/>
	<polygon points="649.68,553.47 645.832,553.47 644.389,555.875 644.87,558.281 647.275,560.686 650.162,561.648 652.567,563.091 
		654.491,564.053 654.491,565.015 655.934,565.977 657.858,566.459 657.858,564.534 655.453,563.091 653.529,561.648 
		652.086,556.357 	"/>
	<polygon points="579.928,147.463 577.042,146.982 576.08,147.944 574.636,150.349 573.193,152.273 572.712,154.197 
		573.674,155.159 576.561,155.159 577.523,154.678 581.852,155.159 583.295,153.235 583.776,151.311 583.295,150.349 	"/>
	<polygon points="385.583,599.651 382.697,603.018 382.216,605.905 383.178,606.867 387.026,608.791 389.432,609.272 
		390.875,607.348 391.356,603.981 390.875,603.018 388.469,600.132 	"/>
	<polygon points="168.756,134.064 169.11,133.993 169.11,131.588 168.629,131.107 165.743,130.145 166.224,126.777 165.743,126.296 
		163.337,126.296 162.375,127.258 161.413,132.069 161.894,135.436 164.78,137.36 166.705,138.323 168.629,134.955 	"/>
	<polygon points="633.806,548.66 633.806,547.216 631.882,545.773 629.957,544.811 629.476,540.482 626.59,538.077 623.223,537.595 
		622.261,538.558 622.261,540.963 623.704,541.925 624.666,544.811 628.995,546.254 631.401,548.179 	"/>
	<polygon points="578.485,536.633 576.08,536.633 572.712,540.001 571.75,542.406 573.674,546.254 575.599,546.254 576.08,545.292 
		579.928,541.925 580.409,538.558 	"/>
	<polygon points="433.207,602.056 433.207,608.31 435.613,612.64 438.018,612.64 438.499,616.488 439.461,616.969 443.79,616.969 
		447.158,612.158 447.639,607.829 445.234,603.981 445.234,601.575 446.677,600.613 450.044,596.765 450.525,593.397 
		449.082,590.992 445.715,588.106 443.309,587.625 440.423,590.03 438.018,591.473 437.674,591.748 436.575,592.435 
		436.353,592.805 435.613,593.397 435.511,594.208 435.131,594.841 435.292,595.963 435.131,597.246 436.094,601.575 	"/>
	<polygon points="447.158,624.666 447.639,622.261 446.677,620.336 449.563,619.374 450.044,617.45 449.082,616.488 
		446.196,616.007 444.753,616.969 445.234,618.893 443.309,618.412 440.904,619.855 440.423,623.223 442.347,625.147 	"/>
	<polygon points="396.166,612.158 396.166,618.893 398.09,619.374 400.496,616.969 400.977,614.564 398.572,612.64 400.977,610.234 
		401.458,607.829 400.496,606.867 398.09,606.386 395.685,608.31 395.685,611.196 	"/>
	<polygon points="679.506,432.245 679.987,432.726 686.721,435.131 689.608,435.131 690.089,434.65 690.57,432.726 690.089,431.764 
		687.203,429.359 680.468,428.878 679.506,429.84 	"/>
	<polygon points="657.057,397.289 656.415,397.609 654.01,398.09 652.086,396.647 649.199,396.166 647.275,398.09 646.794,402.42 
		649.199,404.344 652.567,404.344 653.529,403.863 654.491,401.458 657.377,401.939 661.707,401.939 662.669,401.458 
		664.112,398.09 664.112,395.685 663.631,395.204 661.226,395.204 657.858,396.647 	"/>
	<polygon points="596.957,123.506 594.841,123.891 595.081,124.132 594.36,124.372 592.435,123.891 590.03,124.372 588.587,125.815 
		588.587,129.183 588.587,131.107 587.625,131.107 587.537,131.457 587.144,131.588 587.144,135.917 587.625,137.842 
		590.03,139.766 592.435,140.728 592.435,143.133 594.841,143.614 599.651,141.69 601.575,140.247 602.028,139.756 602.056,139.766 
		607.348,133.993 607.468,133.692 607.829,133.512 607.829,132.79 608.31,131.588 607.829,131.107 606.626,130.956 604.462,130.145 
		604.943,127.258 604.462,125.815 601.575,125.334 600.613,123.41 600.387,123.353 600.132,122.929 599.297,123.081 
		598.689,122.929 	"/>
	<polygon points="171.996,94.066 172.477,91.661 170.072,88.293 168.629,80.596 166.705,73.862 164.78,72.9 162.856,73.862 
		161.894,76.267 161.894,81.077 162.375,84.926 163.337,86.85 163.818,87.812 163.818,90.698 163.818,94.066 166.224,95.99 
		170.072,96.471 	"/>
	<polygon points="693.456,327.857 695.38,329.3 699.71,329.3 701.153,324.971 698.748,323.046 694.899,323.046 693.456,324.49 	"/>
	<polygon points="652.246,295.787 651.605,296.108 651.774,296.164 650.643,297.07 650.643,300.437 651.605,302.361 
		653.529,302.842 656.896,300.918 657.377,297.551 655.934,296.108 653.529,295.145 653.336,295.242 653.048,295.145 	"/>
	<polygon points="687.203,571.75 686.721,574.155 691.532,574.155 693.456,576.561 695.38,577.523 695.861,575.599 693.937,572.712 
		694.899,566.459 693.937,565.977 691.051,570.307 	"/>
	<polygon points="573.674,125.815 572.712,123.891 569.826,123.891 568.864,125.334 568.383,127.739 569.826,131.588 
		574.155,132.069 574.155,129.183 	"/>
	<polygon points="429.359,612.64 429.84,611.196 430.321,607.829 428.397,605.905 425.029,605.905 424.067,606.867 423.586,610.234 
		425.029,611.677 427.435,613.121 	"/>
	<polygon points="455.817,629.957 451.487,629.957 450.525,630.919 450.525,635.249 451.487,636.211 454.855,635.73 
		456.779,633.806 456.779,630.919 	"/>
	<polygon points="621.298,185.947 620.817,184.985 617.931,183.541 616.969,178.731 615.526,178.25 613.121,176.807 
		610.715,176.807 608.31,177.769 604.943,177.769 602.056,179.212 600.613,181.617 600.613,184.504 601.094,185.466 600.83,187.318 
		600.613,187.39 600.744,187.915 600.613,188.833 601.575,189.795 603.843,191.238 605.905,192.681 606.222,192.752 
		606.867,193.162 610.395,193.804 610.715,194.125 611.225,193.955 612.158,194.125 612.72,193.563 613.121,193.644 614.083,192.2 
		616.969,190.757 620.336,187.871 	"/>
	<polygon points="560.205,144.576 561.167,143.614 564.053,139.766 564.534,136.879 561.167,137.36 559.724,138.804 
		557.319,140.728 557.319,142.652 558.281,144.095 	"/>
	<polygon points="657.858,186.909 658.82,188.352 661.707,188.833 664.112,186.428 664.112,183.06 663.15,182.098 660.745,182.098 
		658.339,184.504 	"/>
	<polygon points="678.063,278.79 679.025,279.752 682.392,279.752 683.354,278.79 683.835,275.422 681.911,273.498 678.544,273.498 
		678.063,274.46 	"/>
	<polygon points="231.166,573.674 234.052,573.674 235.976,572.231 236.457,569.826 235.014,567.902 232.128,567.421 
		230.203,569.345 229.722,571.75 	"/>
	<polygon points="516.429,628.995 514.986,630.919 515.948,633.325 518.353,635.73 520.759,636.211 521.24,635.249 521.721,631.882 
		518.353,629.476 	"/>
	<polygon points="215.772,574.636 217.215,576.08 219.62,576.561 221.545,574.155 222.026,571.269 221.063,570.307 218.177,570.307 
		216.253,572.231 	"/>
	<polygon points="541.444,150.83 542.406,151.792 546.735,151.792 547.698,150.83 547.698,148.425 546.735,146.5 542.887,146.5 
		541.925,147.944 	"/>
	<polygon points="471.21,697.305 469.286,695.861 466.4,695.38 465.919,696.343 464.957,700.672 465.919,701.634 468.805,701.634 
		469.767,701.153 470.729,699.229 	"/>
	<polygon points="128.702,88.293 122.929,85.407 120.043,84.445 119.562,85.888 122.448,87.812 124.372,90.698 128.702,90.698 
		129.183,88.774 	"/>
	<polygon points="610.715,149.387 610.715,150.349 613.121,150.83 616.007,149.387 616.488,146.982 615.045,145.057 
		613.121,144.576 610.715,146.5 	"/>
	<polygon points="463.514,603.981 460.146,603.5 458.703,604.943 458.703,607.829 459.665,608.791 462.551,609.272 463.995,607.829 
		464.957,604.943 	"/>
	<polygon points="693.937,533.266 695.38,534.709 699.71,535.19 700.191,532.785 698.748,530.861 695.861,529.418 693.937,529.899 	
		"/>
	<polygon points="410.117,608.31 408.674,606.867 407.986,606.729 407.712,606.386 406.268,606.386 404.344,608.791 
		403.863,611.196 405.306,612.158 408.193,612.158 409.636,610.715 	"/>
	<polygon points="354.315,696.343 352.872,694.418 348.061,693.937 348.061,695.861 352.391,699.71 354.315,700.672 
		354.796,698.748 	"/>
	<polygon points="305.247,650.162 300.437,649.68 299.956,651.605 301.88,653.048 304.285,655.453 306.691,655.934 307.172,654.491 
			"/>
	<polygon points="128.221,563.572 127.258,562.129 123.891,562.61 122.448,565.496 123.891,567.902 126.296,567.902 
		127.739,566.459 	"/>
	<polygon points="513.062,635.73 512.581,638.135 514.986,641.022 516.91,641.503 518.834,639.578 518.353,638.616 515.467,635.249 
			"/>
	<polygon points="651.605,268.207 649.199,267.725 648.237,269.169 648.237,273.017 651.124,273.498 653.048,272.536 
		654.01,270.612 	"/>
	<polygon points="375.481,655.453 375,657.858 376.443,658.339 377.886,657.137 380.773,654.972 383.659,651.605 382.697,648.718 
		383.659,648.237 389.432,646.794 391.837,644.87 391.837,641.503 390.394,639.097 386.064,636.211 383.178,636.692 
		379.329,639.578 379.329,642.946 380.292,650.162 377.886,652.567 	"/>
	<polygon points="394.242,661.707 398.09,661.707 399.053,660.745 399.534,657.858 398.572,656.896 395.685,656.415 
		393.761,659.783 	"/>
	<polygon points="613.602,488.528 614.083,489.009 616.488,489.49 618.893,488.528 618.893,485.161 617.931,484.199 
		615.526,484.199 613.602,485.642 	"/>
	<polygon points="464.476,636.692 466.4,637.654 468.805,635.249 468.805,632.844 467.843,631.882 465.438,631.401 463.995,632.844 
		463.995,636.211 	"/>
	<polygon points="518.834,655.453 517.391,654.972 515.948,655.453 515.467,658.339 518.353,662.188 520.759,662.669 
		521.24,660.745 520.759,659.783 520.556,659.833 519.797,658.82 517.391,659.783 517.391,657.858 519.315,658.339 	"/>
	<polygon points="188.352,609.272 188.352,606.867 187.871,605.905 185.466,605.905 183.541,607.829 183.541,610.715 
		184.985,612.158 185.947,611.677 	"/>
	<polygon points="667.479,269.169 669.885,269.169 670.847,268.207 671.328,265.32 670.366,263.877 667.961,263.396 
		666.998,264.358 666.517,267.725 	"/>
	<polygon points="524.607,167.667 522.202,166.705 520.759,168.148 520.278,170.072 522.683,172.477 525.088,171.996 
		525.569,169.591 	"/>
	<polygon points="273.979,559.724 272.536,558.281 270.131,557.8 268.688,559.243 268.688,561.648 269.65,562.61 272.055,563.091 
		273.498,561.648 	"/>
	<polygon points="561.648,150.349 564.534,151.792 566.94,151.311 566.94,148.425 565.977,146.982 564.053,146.5 562.129,147.944 	
		"/>
	<polygon points="645.351,330.262 644.389,329.781 642.465,330.262 641.984,333.63 643.427,336.035 646.313,336.035 
		646.313,333.148 	"/>
	<polygon points="622.742,370.671 624.666,371.633 627.071,370.671 627.552,367.303 626.59,366.341 624.185,366.341 
		622.742,367.784 	"/>
	<polygon points="90.698,284.562 91.18,283.119 88.293,280.714 85.407,280.233 84.926,282.157 87.331,285.043 	"/>
	<polygon points="604.462,498.63 604.943,499.592 607.348,500.073 609.272,498.149 609.272,495.744 608.791,495.263 
		604.943,495.263 604.462,495.744 	"/>
	<polygon points="550.103,574.155 551.546,575.117 553.951,574.155 554.913,571.75 553.47,569.826 551.065,569.826 550.103,571.269 
			"/>
	<polygon points="124.372,482.756 123.41,482.275 121.486,482.756 120.043,485.161 120.524,487.566 122.929,488.047 
		124.372,486.604 	"/>
	<polygon points="143.518,129.76 144.095,129.664 145.538,127.258 147.944,125.815 150.349,127.739 152.754,127.739 
		153.716,126.777 154.197,126.296 154.197,122.448 155.64,120.524 159.008,120.043 160.451,120.043 160.451,117.637 158.527,114.27 
		155.159,114.27 155.159,112.346 154.65,111.072 154.678,110.903 154.197,109.941 149.387,109.459 148.906,108.497 147.463,106.092 
		143.614,105.611 142.652,104.168 141.209,103.687 140.728,105.13 136.398,105.611 135.436,108.497 133.031,109.941 
		133.031,114.751 132.55,116.194 132.55,119.562 133.031,120.524 133.031,120.524 133.512,121.486 137.842,124.853 139.766,128.702 
		141.209,130.145 142.258,129.97 143.133,130.145 	"/>
	<polygon points="549.141,607.829 552.508,608.791 554.432,607.829 554.432,605.424 553.951,604.462 550.584,604.462 
		549.622,605.424 	"/>
	<polygon points="494.301,605.424 491.896,607.348 491.896,611.196 492.377,612.158 492.377,616.969 493.339,618.412 
		496.225,619.855 499.111,620.817 499.592,622.742 501.517,623.223 502.96,621.779 504.884,618.893 506.327,618.893 507.77,620.336 
		509.694,619.855 509.694,614.564 513.062,614.083 513.062,612.158 510.657,610.234 511.138,605.905 508.251,605.424 507.289,603.5 
		504.884,603.981 502.96,603.5 500.073,603.5 497.187,604.462 496.706,604.462 	"/>
	<polygon points="491.896,153.235 494.301,154.197 495.744,152.754 495.744,149.868 495.263,149.387 492.858,148.906 
		491.415,149.868 	"/>
	<polygon points="586.182,529.418 582.814,530.861 582.333,532.304 584.257,532.785 589.068,532.304 589.549,530.38 
		589.068,529.418 588.587,529.418 588.106,528.937 	"/>
	<polygon points="149.868,530.38 149.387,529.899 146.982,530.38 145.538,532.785 146.019,534.709 148.425,535.19 149.868,533.747 	
		"/>
	<polygon points="673.252,241.749 673.733,242.23 676.138,242.711 677.581,241.749 677.581,238.862 676.619,237.9 674.214,237.9 
		673.252,238.862 	"/>
	<polygon points="222.026,644.389 222.507,641.022 221.063,641.022 220.643,641.503 220.582,641.503 218.658,643.427 
		218.658,643.77 217.696,644.87 217.696,647.275 220.101,646.794 	"/>
	<polygon points="633.806,531.823 630.919,528.456 628.995,527.974 628.995,529.899 630.919,532.785 633.325,534.709 
		634.287,532.785 	"/>
	<polygon points="629.476,293.702 632.363,293.702 633.325,292.74 633.325,289.373 630.919,289.373 628.514,291.778 	"/>
	<polygon points="637.654,666.998 638.616,668.442 641.022,668.923 641.984,666.517 641.503,665.555 639.097,663.631 
		637.654,664.112 	"/>
	<polygon points="163.818,100.801 166.224,101.282 167.186,99.357 166.224,96.952 163.818,96.471 162.856,97.433 162.856,99.838 	
		"/>
	<polygon points="647.275,420.7 649.199,423.586 651.605,423.105 652.086,421.181 649.199,418.295 647.756,418.776 	"/>
	<polygon points="669.885,250.889 672.29,250.889 672.771,250.408 673.252,248.002 672.29,246.559 669.885,246.559 668.923,247.521 
		668.923,249.927 	"/>
	<polygon points="552.508,141.69 553.951,140.247 553.951,137.36 552.989,135.917 551.065,136.398 550.584,140.728 	"/>
	<polygon points="127.739,171.996 125.815,170.072 123.41,170.553 123.41,173.439 124.372,174.401 126.777,174.401 127.258,173.92 	
		"/>
	<polygon points="701.634,539.039 698.748,539.039 697.786,539.52 697.786,540.482 696.824,540.482 692.013,540.482 
		691.532,546.735 691.051,548.179 691.051,552.989 691.051,553.47 691.532,553.951 693.456,557.8 698.267,557.319 698.748,560.205 
		699.71,560.686 702.115,559.724 703.077,557.319 704.039,557.319 705.536,556.463 705.964,556.357 705.964,556.219 
		707.407,555.394 709.331,552.989 709.812,547.698 711.255,546.735 712.217,543.849 711.255,542.887 708.315,542.085 
		707.888,541.925 705.859,540.989 705.964,540.963 	"/>
	<polygon points="155.159,109.459 157.084,108.978 157.084,106.092 155.64,104.168 153.716,104.649 153.235,106.573 	"/>
	<polygon points="206.632,76.267 203.746,75.305 203.746,76.748 207.113,80.115 209.037,81.077 209.518,78.672 	"/>
	<polygon points="448.12,84.926 445.234,84.445 444.753,86.85 446.677,88.293 449.563,88.293 450.044,86.369 	"/>
	<polygon points="509.213,622.261 507.289,623.223 507.289,625.628 508.251,627.071 510.657,627.071 511.138,624.185 	"/>
	<polygon points="585.013,565.909 584.739,565.977 584.498,566.218 583.295,566.94 583.199,567.517 582.814,567.902 
		582.975,568.864 582.814,569.826 583.199,570.211 583.295,570.788 584.739,573.193 588.106,572.712 588.106,569.826 
		587.144,565.977 586.783,565.857 586.663,565.496 586.113,565.634 585.701,565.496 	"/>
	<polygon points="433.688,596.284 429.359,593.397 427.435,592.916 426.473,593.878 425.991,597.727 427.435,599.651 
		430.802,600.132 432.726,599.651 434.169,596.765 	"/>
	<polygon points="513.062,592.916 510.657,592.435 508.251,593.878 509.213,596.284 511.619,596.284 512.581,595.322 	"/>
	<polygon points="555.875,86.369 556.356,86.85 558.762,87.331 559.724,86.369 559.724,83.964 559.243,83.483 556.838,83.002 
		555.875,83.964 	"/>
	<polygon points="578.485,161.894 575.599,161.894 574.155,163.337 574.155,167.186 575.599,168.629 578.004,169.11 
		578.966,168.148 578.966,162.375 	"/>
	<polygon points="570.307,175.845 569.826,180.174 571.269,184.022 571.349,183.702 574.636,190.276 577.523,191.238 
		580.89,191.719 581.467,191.816 581.852,192.2 583.776,192.2 584.739,190.757 586.182,190.276 588.587,191.719 590.03,191.88 
		590.03,192.2 592.916,192.2 592.916,190.757 592.435,190.276 588.106,187.871 589.068,182.098 588.106,180.174 584.739,179.212 
		585.22,177.288 586.663,175.845 585.701,173.92 582.402,174.287 581.028,174.172 579.928,173.439 577.523,173.439 576.08,174.883 
		572.712,174.883 571.269,173.439 570.788,167.186 567.902,164.78 562.61,164.299 563.091,163.337 564.534,162.856 564.534,161.894 
		562.129,161.894 561.648,162.375 560.205,165.743 558.762,167.667 557.8,171.034 559.724,172.958 561.167,175.364 564.534,175.845 
		566.94,174.401 569.345,174.401 	"/>
	<polygon points="705.964,436.094 708.369,437.537 711.736,437.537 712.217,435.612 711.255,434.65 706.445,435.131 	"/>
	<polygon points="133.031,175.845 131.588,174.401 129.664,174.883 129.183,177.288 130.626,178.731 133.031,178.25 	"/>
	<polygon points="134.955,206.151 136.879,205.67 136.879,202.784 136.398,201.821 133.993,201.821 133.031,203.746 	"/>
	<polygon points="146.982,86.85 147.463,84.445 146.5,83.002 144.576,82.521 143.614,83.483 144.576,86.369 	"/>
	<polygon points="643.908,307.653 647.275,307.653 647.756,305.729 647.275,305.248 644.87,304.285 642.946,306.21 	"/>
	<polygon points="156.603,200.859 158.527,200.378 159.008,198.454 158.046,197.011 155.64,197.011 155.159,199.416 	"/>
	<polygon points="139.285,171.515 141.69,171.034 142.171,169.11 140.728,167.667 138.804,168.148 138.323,170.553 	"/>
	<polygon points="147.463,475.059 146.019,474.097 144.576,474.578 144.095,476.021 145.057,478.426 147.463,477.945 	"/>
	<polygon points="562.61,94.066 565.015,96.952 566.459,101.763 567.902,105.13 568.383,109.459 568.864,109.941 571.75,110.422 
		572.712,109.459 573.674,106.092 573.193,104.649 570.788,102.244 569.345,97.914 569.345,91.661 567.902,90.795 567.902,90.698 
		567.793,90.73 566.94,90.217 564.534,89.736 562.61,91.18 	"/>
	<polygon points="155.159,557.319 157.565,554.913 154.197,555.875 150.349,558.281 150.349,559.724 151.792,559.243 	"/>
	<polygon points="151.311,105.611 151.311,101.763 150.83,100.801 147.944,98.395 147.944,99.838 149.868,104.649 	"/>
	<polygon points="572.712,611.196 575.117,612.158 575.117,610.234 572.712,608.791 570.307,608.31 570.307,609.753 	"/>
	<polygon points="639.097,313.906 641.503,314.388 642.465,313.425 642.465,311.02 640.541,310.539 639.578,311.501 	"/>
	<polygon points="197.973,595.803 196.049,595.322 194.606,597.246 195.087,599.17 197.492,598.689 	"/>
	<polygon points="187.39,582.814 185.466,582.333 184.022,584.257 184.985,586.182 187.39,585.701 	"/>
	<polygon points="550.584,578.485 548.179,576.561 544.811,576.08 545.773,570.788 544.811,568.864 538.558,570.307 
		537.595,571.269 537.114,573.674 539.039,578.485 541.444,578.966 543.368,578.004 543.368,578.485 543.368,581.371 
		544.33,582.333 548.179,582.814 550.584,580.89 	"/>
	<polygon points="569.826,159.489 567.902,159.97 567.421,160.932 568.383,162.856 570.788,162.856 571.269,160.451 	"/>
	<polygon points="72.107,287.166 72.9,286.487 76.748,285.043 77.349,284.562 77.71,284.562 79.153,283.119 79.634,279.271 
		75.786,277.346 72.419,277.346 70.494,278.309 65.203,278.79 63.76,280.233 63.76,283.119 63.279,287.93 64.722,289.373 
		69.532,289.373 71.937,287.449 	"/>
	<polygon points="547.698,610.715 548.66,608.791 548.179,608.31 544.811,607.829 544.33,608.31 545.292,610.234 	"/>
	<polygon points="666.517,339.883 668.442,339.883 670.847,338.44 671.328,336.035 670.366,336.035 666.998,338.44 	"/>
	<polygon points="614.564,173.439 616.969,172.477 617.45,170.553 615.526,170.553 613.121,171.515 613.121,173.439 	"/>
	<polygon points="446.196,663.15 447.158,662.188 448.12,660.264 446.196,659.783 444.271,661.226 444.753,663.15 	"/>
	<polygon points="604.943,581.275 604.462,581.852 604.462,587.625 606.386,589.068 608.791,589.549 613.602,590.03 
		614.083,588.106 613.361,584.739 613.121,582.814 612.82,582.213 612.64,581.371 611.677,579.928 611.529,579.891 611.196,579.447 
		609.753,579.287 609.753,578.966 606.867,578.966 604.943,580.89 	"/>
	<polygon points="551.546,625.628 550.584,624.185 549.141,625.147 549.622,628.514 551.546,628.033 	"/>
	<polygon points="694.418,510.176 696.342,509.694 696.342,507.289 693.456,507.289 692.975,509.213 	"/>
	<polygon points="484.68,667.96 483.718,661.707 482.756,660.264 477.945,655.453 475.54,655.453 475.54,655.754 474.097,655.934 
		473.295,656.415 472.653,656.415 472.172,656.896 471.691,657.377 470.248,662.669 470.729,666.998 473.616,669.885 
		475.54,670.847 475.54,676.138 476.021,675.176 476.983,675.176 479.388,672.29 479.388,671.648 480.35,669.404 484.199,669.885 	
		"/>
	<polygon points="708.85,539.039 710.774,538.077 711.255,536.152 708.369,536.152 707.407,537.595 	"/>
	<polygon points="172.958,59.43 172.477,58.468 170.072,56.544 166.224,56.544 165.454,57.506 165.261,57.506 164.299,58.949 
		164.78,61.354 167.186,64.241 167.201,64.179 167.667,64.722 169.591,65.684 172.477,62.316 	"/>
	<polygon points="631.401,459.184 634.768,458.703 634.768,456.779 634.287,456.298 631.882,457.26 	"/>
	<polygon points="273.555,46.399 276.384,50.771 277.347,54.139 278.79,56.063 281.195,56.544 283.119,53.657 283.119,50.771 
		277.828,46.923 273.017,42.593 271.093,41.631 271.093,42.593 273.498,46.442 	"/>
	<polygon points="439.942,626.109 438.98,625.628 438.499,625.748 438.018,625.628 437.58,625.978 437.056,626.109 437.331,626.178 
		435.613,627.552 435.613,629.957 436.575,630.919 438.98,630.919 439.942,629.957 	"/>
	<polygon points="699.229,459.184 698.748,461.589 701.153,461.108 701.634,458.703 	"/>
	<polygon points="246.078,82.521 246.559,81.077 245.116,79.634 243.192,80.596 243.673,82.04 	"/>
	<polygon points="589.068,576.561 588.587,578.485 589.549,579.447 591.473,578.966 591.473,577.042 	"/>
	<polygon points="672.771,434.169 671.905,433.881 669.885,432.726 666.517,432.245 667.479,434.169 671.328,436.094 
		673.252,436.575 673.252,434.65 	"/>
	<polygon points="675.176,425.991 675.657,424.067 675.176,423.586 673.252,423.105 672.771,425.51 	"/>
	<polygon points="689.608,459.184 690.57,459.665 692.013,459.184 692.013,456.779 691.532,456.298 689.608,456.779 	"/>
	<polygon points="468.805,619.374 470.729,618.893 470.729,616.007 468.324,616.969 	"/>
	<polygon points="624.185,460.627 626.109,460.627 627.071,458.703 624.666,458.222 623.704,459.665 	"/>
	<polygon points="706.926,248.964 708.85,249.446 711.255,248.483 711.255,247.04 708.369,247.521 	"/>
	<polygon points="523.164,106.573 520.759,111.384 520.278,113.308 522.683,117.156 524.607,119.081 528.455,120.043 
		530.861,121.005 533.266,120.524 533.342,120.296 534.228,120.043 537.595,118.599 539.52,116.194 539.52,113.308 538.076,108.978 
		537.595,103.206 535.671,103.206 526.05,104.649 525.329,105.13 525.088,105.13 	"/>
	<polygon points="635.73,549.622 636.692,552.027 638.616,552.508 638.616,550.584 636.692,549.141 	"/>
	<polygon points="640.06,536.633 640.541,535.19 640.06,534.228 638.135,534.228 637.654,536.152 	"/>
	<polygon points="653.048,543.368 654.491,542.887 657.377,539.52 655.934,539.52 653.048,541.925 	"/>
	<polygon points="471.691,613.602 472.172,612.158 474.097,609.753 474.578,607.348 474.097,606.867 471.691,606.386 
		470.248,607.829 469.549,612.377 469.286,612.64 469.424,613.189 469.286,614.083 469.698,614.289 469.767,614.564 
		470.248,614.564 471.21,615.045 471.371,614.564 471.691,614.564 	"/>
	<polygon points="425.029,620.817 423.586,620.817 422.143,622.261 421.662,624.666 424.067,622.742 	"/>
	<polygon points="166.705,619.374 166.224,621.779 168.148,621.779 168.629,619.855 	"/>
	<polygon points="357.682,688.646 358.163,686.24 356.239,686.24 355.758,688.165 	"/>
	<polygon points="362.493,652.567 364.417,652.567 364.898,650.643 362.974,650.162 	"/>
	<polygon points="510.176,684.797 512.1,685.278 512.1,682.873 511.138,682.392 509.694,682.873 	"/>
	<polygon points="636.692,572.712 637.173,570.788 634.768,570.307 634.287,572.231 	"/>
	<polygon points="398.572,691.532 396.647,691.532 396.647,693.456 398.572,693.937 	"/>
	<polygon points="445.715,699.71 444.753,699.71 442.828,702.115 441.866,704.039 442.828,704.039 444.271,702.596 	"/>
	<polygon points="464.476,689.127 464.957,690.57 466.881,691.051 467.362,689.127 466.881,688.646 	"/>
	<polygon points="627.552,425.51 628.033,423.586 626.109,423.586 625.628,425.991 	"/>
	<polygon points="299.475,688.165 298.513,688.165 296.108,691.051 297.07,691.532 298.994,690.089 	"/>
	<polygon points="356.239,642.465 355.758,644.87 357.682,644.87 358.163,642.946 	"/>
	<polygon points="375.481,628.995 374.519,630.919 376.443,631.882 376.924,629.476 	"/>
	<polygon points="604.943,542.887 605.424,540.963 603.018,540.482 603.018,542.406 	"/>
	<polygon points="676.619,368.746 677.1,366.822 675.176,366.341 674.695,368.746 	"/>
	
		<rect x="193.373" y="578.215" transform="matrix(0.2425 -0.9701 0.9701 0.2425 -414.6879 627.2935)" width="1.983" height="1.983"/>
	<rect x="651.335" y="207.324" transform="matrix(0.2425 -0.9701 0.9701 0.2425 292.0148 790.6391)" width="1.983" height="1.983"/>
	<polygon points="514.505,654.01 514.505,652.567 514.024,651.605 512.1,651.124 512.581,653.048 	"/>
	<polygon points="556.838,116.194 557.319,114.751 556.356,113.308 554.913,114.27 555.394,116.194 	"/>
	<polygon points="561.167,575.117 562.129,574.636 562.61,572.712 560.686,572.712 560.205,574.636 	"/>
	<polygon points="621.298,543.849 622.261,541.925 619.855,541.444 619.855,543.368 	"/>
	<polygon points="635.73,282.638 634.768,282.638 634.287,283.6 633.806,286.005 635.73,285.043 	"/>
	<polygon points="640.06,525.569 641.984,526.05 642.465,524.126 641.503,523.645 640.06,524.126 	"/>
	<polygon points="646.313,504.403 646.313,506.327 647.756,506.808 648.718,504.884 	"/>
	<polygon points="663.631,245.597 663.15,247.04 665.074,248.002 665.555,245.597 	"/>
	<polygon points="184.985,141.69 185.466,139.766 183.06,140.247 183.541,142.171 	"/>
	<polygon points="366.341,695.38 365.379,695.38 365.379,697.305 366.822,699.229 367.303,697.305 	"/>
	<polygon points="639.578,187.871 639.097,189.795 641.022,189.795 641.503,187.871 	"/>
	<polygon points="395.204,649.199 393.761,649.68 394.242,651.605 395.685,651.605 396.166,650.162 	"/>
	<polygon points="693.456,523.164 693.456,522.202 690.57,520.759 691.051,522.683 	"/>
	<polygon points="103.206,237.419 102.725,238.862 104.649,239.343 105.13,237.9 	"/>
	<polygon points="226.355,100.801 226.836,99.357 224.912,98.876 224.431,100.32 	"/>
	<polygon points="377.886,668.923 378.367,667.479 376.443,666.998 375.962,668.442 	"/>
	<polygon points="449.082,707.407 448.601,706.926 446.196,706.926 446.196,708.369 448.601,708.369 	"/>
	<polygon points="572.231,115.713 573.193,113.789 572.712,112.827 571.75,112.827 571.269,115.232 	"/>
	<polygon points="603.5,522.202 603.018,523.645 604.943,524.126 605.424,522.683 	"/>
	<polygon points="621.298,179.693 620.817,179.212 618.893,180.174 619.855,181.617 621.298,181.136 	"/>
	<polygon points="644.87,319.198 645.351,317.755 643.427,317.274 642.946,318.717 	"/>
	<polygon points="131.588,149.868 131.107,151.792 132.55,152.273 133.031,150.349 	"/>
	<polygon points="601.575,422.624 601.094,425.51 602.537,425.029 602.537,422.624 	"/>
	<polygon points="640.06,487.085 640.06,489.009 641.503,489.009 641.984,487.085 	"/>
	<polygon points="586.182,590.992 585.701,592.916 586.663,593.397 587.625,591.473 	"/>
	<polygon points="393.28,690.089 393.28,692.013 394.723,692.494 394.723,690.57 	"/>
	<polygon points="557.8,103.687 556.356,103.206 555.875,105.13 556.838,105.611 	"/>
	<polygon points="582.333,160.932 582.333,162.375 583.776,163.337 584.257,161.894 	"/>
	<polygon points="614.083,127.258 614.564,125.334 613.121,125.334 612.64,126.777 	"/>
	<polygon points="614.564,457.741 614.083,459.184 615.045,459.665 616.488,458.222 	"/>
	<polygon points="635.249,482.756 635.73,481.312 634.287,480.831 633.806,482.756 	"/>
	<rect x="132.069" y="463.995" width="1.443" height="1.924"/>
	<polygon points="593.397,568.383 595.322,568.864 595.803,567.421 593.878,567.421 	"/>
	<rect x="710.495" y="291.017" transform="matrix(0.3162 -0.9487 0.9487 0.3162 209.5315 874.2656)" width="1.521" height="1.521"/>
	<polygon points="511.138,140.247 512.1,140.247 512.581,138.323 511.138,138.323 	"/>
	<polygon points="537.114,629.957 537.114,628.995 535.671,628.033 535.19,629.476 	"/>
	<polygon points="616.007,427.435 616.007,425.991 614.564,425.991 614.083,427.435 	"/>
	<polygon points="696.342,402.42 697.305,402.42 697.786,400.496 696.342,400.496 	"/>
	<polygon points="660.745,415.408 660.745,413.965 659.783,413.484 659.302,415.408 	"/>
	<polygon points="661.707,298.032 663.15,298.513 663.631,297.07 663.15,296.589 661.707,297.07 	"/>
	<polygon points="692.013,390.875 692.494,388.95 691.051,388.95 691.051,390.394 	"/>
	<polygon points="706.926,459.665 707.407,457.741 706.445,457.741 705.964,459.665 	"/>
	<rect x="402.901" y="661.707" width="1.443" height="1.443"/>
	<polygon points="524.607,605.424 525.569,605.424 526.05,603.981 525.088,603.5 	"/>
	<rect x="677.581" y="554.913" width="1.443" height="1.443"/>
	<polygon points="117.156,126.777 117.156,127.739 118.599,128.221 118.599,126.777 	"/>
	<polygon points="409.155,658.82 407.712,658.339 407.23,659.302 408.674,659.783 	"/>
	<polygon points="583.776,107.535 584.257,106.092 582.814,106.092 582.814,107.535 	"/>
	<polygon points="150.83,187.39 151.311,185.947 149.868,185.947 149.868,186.909 	"/>
	<polygon points="485.161,625.147 485.161,626.59 486.123,626.59 486.604,625.628 	"/>
	<polygon points="499.111,144.095 499.111,142.652 498.149,142.652 497.668,143.614 	"/>
	<polygon points="539.039,142.652 539.52,141.69 538.076,141.209 538.076,142.652 	"/>
	<polygon points="599.17,145.057 599.17,146.019 600.132,146.5 600.613,145.057 	"/>
	<polygon points="661.707,200.378 661.707,198.935 660.745,198.935 660.264,199.897 	"/>
	<rect x="52.695" y="410.117" width="1.443" height="0.962"/>
	<polygon points="384.14,702.115 384.621,703.558 385.583,702.596 	"/>
	<polygon points="514.024,590.511 514.505,589.549 512.581,590.03 	"/>
	<rect x="539.52" y="120.043" width="0.962" height="1.443"/>
	<rect x="667.961" y="399.053" width="0.962" height="1.443"/>
	<polygon points="679.506,521.721 679.025,523.164 679.987,523.164 680.468,522.202 	"/>
	<polygon points="69.532,317.274 68.57,317.274 69.051,318.717 	"/>
	<polygon points="481.312,623.704 479.869,624.185 481.312,624.666 	"/>
	<polygon points="498.63,625.628 497.187,626.109 498.63,626.59 	"/>
	<polygon points="659.302,568.864 659.783,570.307 660.264,568.864 	"/>
	<polygon points="694.899,502.96 693.456,502.479 693.456,503.441 	"/>
	<rect x="562.129" y="107.054" width="0.962" height="0.962"/>
	<polygon points="142.171,90.217 142.652,91.18 143.133,90.217 	"/>
	<polygon points="194.125,89.736 194.606,90.698 195.087,89.736 	"/>
	<polygon points="639.097,565.977 638.135,565.977 638.135,566.94 	"/>
</g>
</svg>
