<?xml version="1.0" encoding="utf-8"?>
<!-- Generator: Adobe Illustrator 27.5.0, SVG Export Plug-In . SVG Version: 6.00 Build 0)  -->
<svg version="1.1" id="Layer_1" xmlns="http://www.w3.org/2000/svg" xmlns:xlink="http://www.w3.org/1999/xlink" x="0px" y="0px"
	 viewBox="0 0 800 800" style="enable-background:new 0 0 800 800;" xml:space="preserve">
<g>
	<path d="M671.255,379.078l-11.191-1.46v-1.46l-0.973-2.433l-3.406-0.973l-1.946-1.46l-2.919-0.973v-2.919l0.973-1.46l2.919-3.892
		l-2.919-0.973l-1.46-2.433l-2.919-2.433l-4.379-5.352l-2.433-0.973l0.487-6.812l-3.406-1.46l-4.379-1.946v-1.46l2.433-3.406v-2.919
		l-0.973-2.433v-6.325l0.973-4.379l1.46-1.946v-3.406h-3.406l-0.487-0.973l-0.487-2.433l2.919-0.973l0.91-5.007l1.036-0.345
		l3.406-2.433l4.379-5.352l-0.487-4.379l-0.487-3.406l1.946-2.919l2.433-4.866l0.973-9.245v-6.812l-0.487-0.973l-2.433-1.946v-7.298
		l0.973-2.433l0.973-5.352v-5.839l-0.973-3.406l-3.892-8.271l-2.919-3.892l0.487-3.406l-0.15-0.898l0.15-1.048l-0.389-0.389
		l-0.097-0.584l-0.852-0.365l-0.122-0.122h-0.162l-2.271-0.973l-0.487-4.866l-0.487-2.433l-2.433-1.46l-1.46-0.243v-0.243
		l-4.379-0.487l-0.487-0.487l-1.46-2.919l-1.946-2.433l-1.946-3.892l-0.487-0.973l-1.946-2.433l-5.352-1.46l-1.946-1.946h-15.083
		l-2.919-0.487l-0.973-3.406l-1.46-1.46l-3.406-0.487l-3.892,2.919l-4.866,0.487l-8.758-0.973l-0.973-0.487l-0.973-2.919
		l-1.946-9.731l-0.487-0.487l-4.865-3.892l-5.352-4.379l-3.406,0.973h-4.866l-4.379-0.973l-6.812-0.487l-0.487,1.946l-6.812,0.487
		l-4.379,0.973l-0.973,1.46l-0.487,5.839l0.487,2.433l0.973,4.379l-0.487,2.433l-3.406,0.487l-1.46,1.46l-0.973,0.973l0,0
		l-0.487,0.487v5.839l-0.487,0.487l-2.433,1.46l-0.973-0.487h-1.946l0.412,2.47l-0.898,0.449l-1.46,1.46l-0.061,0.365l-0.912,1.095
		l-0.487,2.433l-3.892-0.487l-3.892-2.919l-2.919-0.487l-1.46,0.973l-1.946,1.216l-3.73,1.865l-0.862,0.355l-3.193,0.456
		l-0.487-2.433l-1.46-3.406l-2.433-1.946l-2.433-2.433l-1.46-3.892l-1.946-7.785l-0.973-1.46l-3.892-4.379l-3.892-2.919l-0.487-1.46
		l6.812,0.973l2.433-2.919l0.487-2.433l-1.46-1.46l-4.866-1.46l0.487-2.433l3.406-0.487v-0.973l-2.433-3.892l0.487-3.892
		l3.406-4.379l-0.487-1.46l-3.406-2.919v-2.433l0.973-1.946v-6.812l-1.46-1.46l-7.298-1.946l-1.946-1.946l-6.812,0.487l-1.946-0.487
		l-1.46-4.379l-2.433-2.433l-1.946-4.866l-0.487-7.298l-4.866-1.946l-7.298-7.785l-4.379-1.46h-3.406l-0.487,0.487v3.892
		l-0.487,7.298l-1.946-0.487l-1.946-5.352v-6.812l-2.433-1.46h-3.892l-1.946,0.487l-4.866,1.46l-2.433-1.46l-1.46-0.487
		l-2.595-0.324l-3.244-0.649l-1.347,0.075l-0.599-0.075l-6.812,0.487v-0.973l-0.973-1.622v-0.324l-0.487-0.487l-1.946-0.487
		l-0.487,0.487l-0.106,0.529l-2.814,4.823l-0.973,2.919h-1.946l-0.487-2.433l-2.433-0.487l-0.487,1.946l1.946,2.433l-0.973,1.46
		l-4.866,0.973l-0.973-2.919l-0.304-0.061l-0.182-0.426l-1.946-0.973l-2.433,4.866v2.433l-4.379,0.487l-3.892,2.433v2.919
		l1.946,2.919h1.946h0.973l2.433-1.46l-0.487,3.892l-1.946-0.973h-3.892l-0.973,0.487l-0.973,2.433l0.487,4.866l1.396,6.05
		l0.022,0.267l-2.392-0.478l-0.927-0.348l-0.046-0.139l-6.812-2.433l-2.433-0.487l-2.919,1.946l-0.487,1.946l1.946,4.379
		l-0.973,2.433l-0.973,1.946l0.608,0.73l-0.122,0.243l1.946,1.946l1.946,4.866v3.892l-2.433,0.487l-1.946,1.946l-5.352,3.406h-2.919
		l-0.973-0.487l-2.433-0.973l0.487-0.973v-1.946l-2.919,0.487l-1.946,0.487l-0.487-0.487l-1.946-1.946h-1.946h-3.892l-0.973-0.487
		l0,0l-0.973-0.487l-2.53-0.389l-2.335-0.584l-0.701,0.117l-0.759-0.117l-1.46,0.487l-4.379,3.406l-0.15,0.299l-0.823,0.674
		l-2.433,5.839l-0.973,4.379l-0.973-0.487l-0.029,0.057l-2.404-1.03l-1.946-1.46h-2.433l-5.839-2.433l-7.298-6.812l-5.352-4.379
		l-5.839-2.919l-7.785-0.487l-2.433,1.46l-3.892,2.919l-1.946,2.919l-4.379,4.866l-1.46,4.379l-3.892,3.892l-0.487,6.325
		l-0.973,1.46l-3.892,1.46l-0.973,4.379l-1.946,0.487l-6.325,3.892l-0.973,3.892l-1.46,1.46l-1.46,2.433v4.866l-2.919,0.973
		l-2.919,1.946h-2.919l-0.973,0.973l-0.487,3.406l-8.271,0.487l-1.46,1.946l-0.973,2.433h-0.973l-10.218-2.919l-1.946-3.892
		l-5.352-0.487l-0.487-0.487l-0.973-3.406h3.406v-2.433l-1.946-0.487l-2.433,1.46l-0.973,1.946l-2.433-0.487l-3.892-0.487
		l-1.46,1.946l-1.46,1.46v-0.973l-1.946-2.919l-2.433-0.973l-1.946,1.946l-3.892,4.379l-2.433-0.487h-3.406l-1.46,2.433
		l-0.973,5.352l-0.487,0.487l-4.379,8.271l-4.379,6.812l-4.379,5.352l-3.892,7.785l-2.433,11.677l-1.46,1.946l-0.487,2.433
		l5.352,5.352l0.584,0.146l0.389,0.341l3.28,0.757l1.586,1.189l1.497,5.24l0.322,3.222l-0.36,4.675l-1.352,2.703l-3.027,2.162
		l-0.122,0.608l-0.365,0.365l0.162,0.649l-0.162,0.811l0.487,0.487l0.487,1.946v1.946l0.389,0.389l0.097,0.584l0.584,0.097
		l1.362,1.362l0.487,3.406l0.487,0.892v0.081l2.433,4.379l0.649,0.162l0.811,0.811h3.406l-0.834,1.46h-0.139l-0.973,1.946v4.379
		l1.46,4.866l-0.487,5.839h2.433l2.044-0.876l0.389-0.097l0.187-0.15l0.786-0.337v1.46l-2.919,3.892l-2.433-0.487v1.46l1.46,0.973
		l0.487,6.812l0.487,1.946l0.973,0.973l0.779,0.389l-0.292,0.097l2.433,0.973v3.892l0.423,0.592l0.063,0.381l0.254,0.063
		l1.692,2.369l-0.487,1.946l-2.919,1.46v3.406l-0.973,3.406l-4.379,0.973l-2.919,2.433h-2.919l-0.973-0.487l-1.946-0.487
		l-0.973,0.973l-0.973,2.433l-3.455,0.432l-0.437-4.811l-0.487-0.487h-2.433l-0.973,0.973l-0.973,2.433l-3.128-0.348l-1.251-0.626
		h-1.46l-0.243,0.243l-1.703,0.243l-1.946,2.433l-0.487,3.892l0.973,2.433l0.27,0.054l1.189,2.379v2.919l-0.973,1.946l-4.866,0.973
		l-2.433,2.919l0.487,3.406l3.406,3.406l1.946,3.406v3.406l-0.487,0.973h-1.46l-2.433-3.406l-2.433-1.46l-2.967-0.247l0.048-0.239
		h-2.919l-2.433-0.487h-4.379l-0.973,3.406l-0.973,0.487l-0.487,0.608l-0.487,0.365l-0.195,0.487l-0.778,0.973v3.163l-0.973,0.243
		l-1.946,1.946L96.632,400l-6.325,0.973l-0.973,0.973l-0.487,2.919l3.406,0.487l1.946,0.973l0.487,2.919l-1.46,2.433l-0.102,0.717
		l-0.384,0.256v2.433h1.46l0.073-0.219l1.225-0.175l3.082,0.88l2.433,0.973h0.487l5.839,1.946l1.916,1.368l0.03,0.091l0.221,0.088
		l1.239,0.885l0.717-0.102l0.256,0.102l0.304-0.182l2.129-0.304l1.46,0.973v2.919l-1.362,1.946l-1.557,1.946l-0.078,0.389
		l-0.409,0.584l0.162,0.649l-0.162,0.811l0.274-0.365l0.213,0.851l3.892,2.433l6.812,1.946l1.946,1.946l0.278,0.139l0.209,0.348
		h0.487l2.919,1.46l2.919,2.433l0.487,1.946h-0.973l-1.46,2.433l1.46,0.487v1.46l-2.433,1.46l-5.352,0.487l-0.973,0.487l-1.46,4.379
		l-0.487,3.406l0.487,0.73v0.243l0.487,0.487h0.195l0.778,0.973h2.919l1.946,1.946l0.487,2.919l-3.406,1.946l-1.946,2.433
		l-2.433,5.839l-2.919,3.892l-1.946,6.812l-1.946,7.785l-2.433,0.973l-1.946,1.46l-0.487,5.352l-0.487,1.46l-1.46,0.487
		l-4.866,3.892l-4.866,7.298v5.839l-5.839,0.973l-0.601,0.429l-0.372,0.057l-1.31,1.048l-0.15-0.075l-0.973,0.973l-1.46,2.919v5.352
		l1.46,2.433l3.406,2.433h4.866l0.487-0.487h0.487l0.487-0.973l1.46-5.352l0.973-0.973l5.352,0.487l2.433-0.973l0.487-0.487
		l0.035-0.382l0.938-1.564l1.46-8.758l0.487-7.298l0.487-0.487h3.892l0.487-0.487l3.406-3.892l0.487-3.406l-1.46-6.325l0.487-3.406
		l3.892-1.946l0.973-4.379l1.946,0.487l2.433,2.919l5.352,5.352l1.946,2.919l-3.892-0.487l-5.839-5.839h-2.433l-0.973,2.919v8.758
		l0.973,1.46l0.365,0.122l0.122,0.365l2.433,0.487l1.488,1.116l0.263,1.317l-0.195,0.973h-0.584l-0.487,0.973v3.406l-0.487,0.973
		l-0.07,0.209l-3.336,7.09l-0.487,3.406l0.973,1.946l3.406,2.919l2.433-0.487l0.487-2.433l-1.46-3.406l2.433-0.487l2.919-2.433
		l0.042-0.106l0.444-0.381l0.133-1.062l0.354-0.885l-0.139-0.834l0.139-1.112l-0.432-0.649l-0.054-0.324l-0.973-1.216l-0.487-0.73
		v-0.876l1.946-1.557v-0.487l0.487-0.487v-2.919l-0.973-1.46l-1.46-4.866l2.676,0.892l3.649,2.027v2.433l-1.46,2.919l0.058,0.117
		l-0.267,0.578l-0.278,0.278l-0.973,2.433l0.487,5.839l-0.973,0.973l-1.46,2.919l-0.487,3.406l2.433,3.892l-0.487,1.946h-1.946
		l-0.487,1.46l1.946,0.487l-1.46,4.866l-0.973,7.298l-3.406,4.379l-2.919,0.973l-0.973,0.973l-2.919,5.839v3.406l3.892,3.406v2.433
		l-1.946,2.919l0.487,1.46l1.46,1.46l0.27,0.054l0.216,0.432l1.062-0.177l0.885,0.177l0.487-0.405l0.487-0.081l0.885-1.062
		l1.062-0.885l0.265-0.708l0.221-0.265v-0.324l0.973-2.595h0.973l4.379,6.812l0.008-0.032l0.965,1.492l4.379,1.46l-0.487,2.919
		l-4.866,2.433v1.946l3.892-0.487v1.46l-3.406,6.812v3.406l0.487,0.973l0.389,0.195l0.584,0.779l3.406,0.487l1.46-0.973l3.406-3.892
		l1.46-7.785l0.973-4.866l0.487-7.785l3.406-0.973l1.46-0.973v-0.487l0.487-0.487v-2.919l0.973,0.487l0.973,3.406h1.946l0.487-3.406
		l0.973-0.487l1.46,2.919l0,0l0.487,0.973l0.044-0.177l0.248,0.372l0.195,0.779l0.973,0.973h4.379l0.973-0.973l0.026-0.359
		l0.461-0.615l0.973-7.298l2.433-1.46l0.487-2.919l-1.946-1.946l-0.487-3.406l2.919-0.973l1.46-4.379h1.946l1.946,2.433l0.487,1.946
		l-1.46,1.946l-0.139,0.626l-0.348,0.348l-0.487,3.406l-1.46,6.812l-0.973,0.973l-0.973,3.892l0.487,7.785l-1.46,1.946l-0.681,1.265
		l-0.778,1.168l-0.649,1.483l-1.297,2.41l0.105,0.316l-0.501,1.144h-0.091v0.208l-0.973,2.224l0.487,3.892l-1.946,1.946
		l-2.919,4.866l-0.487,2.433l2.433,3.406l-2.433,4.866l-2.919,7.785l0.487,1.946l0.973,0.278v0.208l2.433,0.487v0.973h-2.433
		l-2.433,0.973l-0.487,2.919l0.973,1.46l0.15,0.037l0.337,0.449l1.46,0.209v0.278l0.898-0.15l1.048,0.15l0.556-0.417l0.417-0.07
		l0.195-0.389l0.778-0.584l0.133-0.31l0.354-0.177l0.299-1.347l0.674-1.572l2.919-6.325l2.433-1.46v-1.46v-1.946l0.973-6.812
		l2.271-0.973l3.568-0.973l0.973-1.46l-0.973-2.433l-0.487-1.946l2.433-3.892l0.11-0.769l0.377-0.691v-3.406l2.919-0.973h0.487
		l0.973-0.487l2.919-3.406l2.919-0.973l0.73-0.487h0.243l2.433-1.946l0.162-0.649l0.324-0.324l-0.162-0.324l0.162-0.649
		l-0.649-0.324l-0.324-0.649l-0.541,0.216l-0.433-0.216l-0.778,0.584l-0.195-0.097l-0.487,0.487h-6.325l-1.504-2.256l-0.269-1.88
		l0.269-1.88l0.531-0.796l-0.162-0.811l0.162-0.649l-0.324-0.162l-0.162-0.811l-3.892-0.487l0.487-1.946l2.433-1.46l0.973-1.946
		l1.946-1.46h3.406v3.406l0.973,1.46v0.487l0.973,0.973h2.433l1.946-2.433l1.946-5.839l0.487-4.379l-0.487-0.973v-3.406l0.973-1.46
		l4.379-1.946l1.46-0.973l0.061-0.243l0.912-0.73v-2.433h0.973l0.584-0.778l0.389-0.195l0.07-0.417l0.417-0.556l-0.162-0.973
		l0.162-0.973l-0.432-0.649L210,540.615l-0.209-0.07l-0.278-0.417l-0.487-3.892l1.946-0.487l2.433,4.379l3.406-0.487l2.856,0.952
		l1.882,2.07l0.128,0.384h0.221l2.212,2.433v2.433l-0.487,0.973l-0.973,1.946l-0.487,0.973l-0.487,0.973l-0.487,5.352h-0.973
		l-0.487,0.973h1.46l-0.487,10.218l-0.973,1.46v6.325l-2.433,2.433l-0.541,1.081l-0.432,0.378l-0.973,2.433l-1.877,7.507
		l-0.278,0.463l-4.17,3.707l-0.973,2.433l-2.433,0.973l0.487,2.433l0.449,0.299l0.037,0.187h0.243l2.189,1.46l-0.487,1.946
		l0.487,2.433l0.313-0.035l0.174,0.521l4.379-0.487l0.487-1.946l2.919,0.973l-0.487,3.892l-1.46,8.271l-0.973,1.946l-0.122,0.73
		l-0.365,0.73l0.133,0.663l-0.133,0.796l0.973,1.946l-0.487,5.352l-2.433,6.812l-2.433,2.919l0.487,4.866l-1.46,1.946l-0.973,1.946
		l-0.417,1.39l-1.043,2.502l0.133,0.531l-0.133,0.442l0.324,0.324l0.162,0.649l0.209,0.139l0.278,0.834l0.292,1.46l-0.292,1.46
		l-0.487,0.487l-0.73,1.946l-0.243,0.487l-0.088,0.398l-1.858,4.954l-1.946,7.298l-3.406,11.677v5.352l-1.946,3.406l-1.946,4.379
		l-1.946,6.325l-2.919,6.325l-3.892,5.839l-3.406,5.352l-1.946,10.704l-1.46,2.433l-0.487,2.919l0.973,0.973l0.429,0.258
		l0.057,0.229l0.73,0.243l1.216,0.73l0.487-0.162l0.487,0.162v-0.324l1.946-0.649l1.46-2.433v-4.379l2.919-0.487l1.46-1.46v-5.352
		l7.298-1.946l1.946-1.46l0.487-0.973l0.487-0.487l0.162-0.811l0.811-1.622l3.406-1.946l2.433-4.379l0.973-2.919h0.973l-0.225-0.299
		l1.684-0.674l0.973-2.433l-3.406-5.839v-3.406l1.46-2.433l1.46-4.379l3.406-2.433v-2.919l-0.973-0.973l-0.21,0.026l-0.709-0.567
		l-0.541-0.676v-1.216l3.892-2.433l1.946-1.946l-0.487-3.892h0.973l0.584-0.389l2.335-0.584l1.946-1.946l2.433-1.946v-2.919
		l-0.487-0.973h-1.946h-7.298l0.487-2.919l3.406-1.946l1.216-0.973l0.73-0.487v-0.097l0.487-0.389l1.946-7.298l1.946-0.973
		l0.973-0.487l1.431-4.293l3.434-3.005l0.973-1.946l0.15-0.674l0.337-0.786l0.708-3.362l0.752-1.504l1.946-4.866l0.234-0.856
		l1.713-4.496l0.876-2.627l0.584-0.778l-0.195-0.389l0.195-0.584h0.973l0.487,0.973l-0.973,3.73l-0.973,3.568l0.021,0.083
		l-0.486,1.863h-0.021l-0.487,1.946v5.352l0.487,0.487l2.433,0.487l0.973-0.973l0.487-0.487l1.946-5.839l1.46-3.892l0,0l1.46-3.892
		l1.46-1.46h4.379l2.433-0.487l0.292-0.292l0.681-0.195l0.195-0.681l0.292-0.292l-0.133-0.265l0.619-2.167l1.46-2.919v-2.919
		l-1.46-0.973l-4.379-0.973l0.487-1.946l1.946-3.406l4.866-0.973l0.973-1.946l-0.973-3.406v-2.919h1.46h2.919l-0.973,2.433v3.406
		v5.352l0.487,2.433l0.324,1.081l0.649,2.811l0.336,0.47l0.151,0.503l1.251,1.46l0.695,0.973l1.112,1.668l0.348,1.738l-1.46,4.379
		v3.406v2.271l-0.973,1.622l-5.352,6.325l0.487,3.406l1.46,1.46l1.46-0.973l2.919-4.866l1.946-5.352v-2.433l0.324-0.973h3.082
		l1.46,0.973v3.892l0.973,0.973l1.216,0.608l0.243,0.365l1.135,0.324l1.297,0.649l0.449-0.15l0.524,0.15l0.07-0.348l0.417-0.139
		l0.487-3.406l2.919-0.973l0.061-0.304l0.426-0.182v-2.919l6.325-0.487l3.892-2.919l3.892,0.487l2.433-0.487l1.46-2.433l0.973-9.731
		l3.892-1.46v-1.46l-1.46-0.973l-0.487-1.946l1.135-1.622l1.541-1.541l0.72-0.432l-0.477,14.786l-1.46,6.812l-1.46,3.892v3.406
		l-1.46,3.406l-0.139,0.591l-0.348,0.869l-1.946,7.785l0,0l-2.311,4.622l-0.122-0.243l-0.487,1.46l-1.46,1.946l-0.487,6.812
		l1.946,1.946l0.487,2.919l-0.973,3.892l-2.433,6.812l-0.973,5.352l-0.432,0.973h-0.054l-1.46,3.406l-3.892,5.352l-0.973,5.352
		l-0.973,1.946l-1.946,6.325v3.892h0.973l1.946-2.919l2.919-3.892l2.919-5.352l3.892-7.785l1.946-3.406l1.946-0.973v3.406
		l-1.946,9.731l-2.919,9.245l-1.946,11.677l-1.946,4.866l-2.919,6.812l-2.433,3.406l-0.487,2.919l0.973,1.46l1.342,0.192
		l0.118,0.295l0.811-0.162l1.135,0.162l1.46-1.46v-2.919v-1.946l0.695-1.738l1.738-3.128l0.531-1.15l0.442-0.796l5.839-12.65
		l5.352-16.056l2.433-1.46l0.973-2.433l1.46-2.919l2.919-3.892l3.406-1.946l0.292-0.365l0.195-0.122l3.244-4.217l3.568-4.541
		l1.946-2.433l5.352-0.487l0.973-0.973l0.487-7.785l3.892-1.946l2.458-2.049l3.137-0.627l2.676-0.243l0.973-1.46l-1.46-3.892v-5.352
		l0.487-1.946l3.406-1.946l1.46-2.919l3.406-1.46l7.298-2.433h6.812l1.946,0.487l1.946,1.46l3.892,1.946l10.704,1.946h15.083
		l4.866-0.487l0.973-0.162l2.919-0.324l0.823-0.299l1.123-0.187l4.622-1.946l6.082-2.433h0.487l1.946-0.973l0.162-0.162l0.811-0.324
		l0.973-1.46l0.487-0.487l4.866-1.946h4.379l2.919,1.946l1.946,2.919l1.46,5.839v4.866l0.487,0.487l0.177,0.044l1.769,1.415
		l2.919,3.406l3.892,4.379l5.839,1.946l6.325-0.487l0.487-0.487l2.433-1.46h7.785l0.973-0.487l0.973-2.919l2.919-1.946l0.487-1.946
		l-2.433-4.379l-0.487-9.245h5.352l2.919-0.973l1.946-2.919v-7.298l2.433-0.487l1.46-1.46l0.973-9.731l-0.973-0.973l-3.892-2.919
		l-3.892-5.352v-3.892l1.46-1.946l0.973-2.433l-2.433-2.919l-0.487-1.946l5.839-0.487l1.946-2.433l1.946,0.487l1.946,2.433
		l3.892,7.298l2.433,2.433h2.919l0.973-0.487h4.866l1.46,1.946l2.433,2.433l1.46-1.46v-2.919l0.343-2.748l0.954-2.226l0.649-0.865
		l3.406-5.352l2.676-1.946l1.703-0.973l-0.19-0.127l1.164-0.846v-4.379l0.973-0.973l0.973-4.379l1.46-0.487l-0.487-3.406
		l-0.973-6.325l0.973-2.433l-0.973-1.946l-0.973-2.433l4.865-0.487l0.973-0.973v-7.785l0.973-0.487l7.785-0.487l1.46-0.973v-3.892
		l-0.973-2.433l-3.892-5.352l-4.866-1.946l-0.973-0.973l-0.487-3.406l2.433-0.973l2.919-2.433v-4.379l-1.46-3.406l2.433,0.487
		l5.839,2.433l5.839,1.946h3.892l1.946-2.433l0.973-2.433h2.919l0.487,2.433l1.946,1.946l5.352-0.487l1.46,0.973l3.892,3.406
		l2.433-0.487l1.46-5.839l3.892,0.487v0.973l3.406,4.379l3.892,1.946l0.973,7.785l0.973,0.973l0,0l0.973,0.973l2.433-0.487
		l1.46-3.892v-4.379l1.946,0.487l2.433,2.919l2.433,1.46h6.325l0.973,1.46l1.946,0.973h3.892l1.946,2.433l3.892,1.946l2.433,0.973
		l1.946-1.946h1.703l1.216,0.487l1.972,2.817l-0.026,0.102l1.46,1.946l3.406,0.487l1.362-0.908l2.53,0.422l2.433,3.406l2.433,0.487
		l1.46-4.379l1.46-2.919l0.487-1.946l-1.46-2.919l-0.487-4.379l2.919-0.487l2.919,1.46l2.433,0.487l2.919-1.46h4.379v0.973
		l1.46,2.919l2.433,0.973l1.946-0.487v-1.46l-0.973-1.946l-0.487-2.433l0.973-0.973l0.487-2.433l-1.46-1.46l-6.569-3.503
		l-0.892-0.714l-0.811-1.622l-1.46-7.298h-0.162l-0.324-1.46l0.487-3.406v-6.325l-2.919-2.919l-1.46-2.919l-2.433-2.433
		l-0.973-3.406l-1.946-5.352l-2.433-3.892l-2.433-1.946l-2.433-2.433v-3.406l0.487-0.973l3.406-5.352l3.406-3.406v-3.892
		l-0.487-0.973l-3.892-2.919l-4.379-1.46l-0.973-3.892l-1.946-1.946l-4.379-3.406l-1.46-2.433l0.487-2.919l0.487-2.433l-1.946-1.946
		v-2.433l2.433-0.973l0.487-0.973l-1.946-3.892l-1.46-4.379v-3.892l-1.46-3.406l-2.919-3.406v-2.919l0.487-0.487l7.785-0.973
		l0.487-0.487l2.919-0.973l2.433-0.973l1.46-2.433v-4.866l2.433-0.487l4.379-4.379l2.433,0.487l2.919,2.433l5.352-0.487l1.946,1.946
		l1.46,0.487l1.946-1.946l3.892-0.973l1.946-0.973l0.487-4.866l5.352-0.487l0.973-1.46l-0.487-1.46L671.255,379.078z M196.863,722.1
		l-0.487-1.946l1.46-0.973l1.46,0.487l-0.487,2.433H196.863z M140.423,571.268v-0.973l-1.46-2.433l-0.973-3.892l-1.622-0.649
		l-0.811-0.811v-0.487l-0.348-0.695l0.348-1.738l2.919-3.892l1.135-1.135l1.297,0.649l-0.487,1.946v2.919l0.973,1.46l0.487,2.433
		l-0.973,0.487v2.433l1.946,2.433l0.187-0.374l0.299,0.374l0.487,2.433L140.423,571.268z M136.044,498.771h0.973l-0.243-0.365
		l0.243-0.122l0.216-0.108l0.27,0.108v-0.243l0.487-0.243v-2.108l0.487-1.297h0.487l0.973,2.433l1.46,2.433l0.487,2.919h-1.46
		l-3.144-1.347L136.044,498.771z M228.42,641.505l-1.877,0.313v-2.919l0.487-0.487l0.973-0.487l3.892-0.487l-0.449,1.797
		L228.42,641.505z M272.766,606.786l0.487-4.379v-8.758l0.278-0.278l1.668-0.209l-0.487,13.137l-1.135,1.135l-0.714-0.357
		L272.766,606.786z M231.895,616.031l0.973-1.946h1.46l-0.487,1.946H231.895z M144.802,556.184l0.487-1.46h0.973v1.46H144.802z
		 M176.428,531.857l4.866-0.973l1.46-0.973l1.46-2.919l0.195-1.168l1.07-1.07l3.114-1.168l-0.973,2.433l-2.433,7.298l-1.946,0.973
		h-7.298L176.428,531.857z M136.53,483.688h5.352l-0.487,2.433l-1.946,6.812h-0.973l-0.487-3.163v-3.163L136.53,483.688z
		 M165.723,556.184l0.292-1.168l0.195-0.292l1.46-0.487l-0.389,1.946H165.723z M231.895,633.06l-1.946,0.487l1.46-3.892v-0.973
		h0.487l0.892-5.352h2.514l0.487,1.946l-0.973,2.433L231.895,633.06z M378.348,123.636l-1.946-0.973l0.487-3.406h1.46l1.46,2.433
		l0.973,1.946H378.348z M171.562,545.967l0.487-1.946l1.46,0.487l0.487,2.433l-1.46,0.487L171.562,545.967z M472.254,599.974
		l-1.46-1.946l0.487-1.946h0.973l1.946,1.946l0.487,1.946H472.254z M634.763,392.702l-3.406,0.487l-0.487-0.487v-2.919l0.973-0.973
		h3.406l0.973,1.946L634.763,392.702z"/>
	<polygon points="198.323,635.006 197.836,641.818 198.323,645.224 199.782,645.224 203.675,636.953 204.033,635.951 
		205.134,633.547 205.017,633.194 206.108,630.141 207.081,623.329 208.54,622.356 210,620.896 211.46,616.517 212.919,613.598 
		212.433,612.138 210,610.192 208.054,609.706 207.567,610.192 206.594,614.085 202.702,614.085 200.755,615.058 197.836,618.95 
		198.323,622.356 200.755,623.329 200.755,625.275 	"/>
	<polygon points="553.995,137.26 559.347,140.179 562.266,139.693 565.186,137.746 567.132,134.827 567.132,129.962 
		565.672,127.529 561.293,124.609 558.86,124.123 553.995,125.096 552.049,126.069 550.589,128.988 550.589,133.368 
		551.076,134.827 	"/>
	<polygon points="729.641,196.133 727.209,195.647 723.316,198.079 720.883,200.026 718.937,205.864 721.37,208.297 723.316,209.27 
		723.316,210.243 725.262,212.189 727.695,213.163 731.588,209.757 733.739,207.298 734.507,206.837 734.994,205.864 
		734.994,201.972 732.074,199.539 	"/>
	<polygon points="285.416,656.901 285.416,652.522 284.93,650.252 284.93,649.603 283.956,645.711 282.497,643.764 279.577,641.818 
		274.712,640.359 275.198,641.818 275.511,641.957 275.685,642.305 277.556,642.866 279.577,643.764 280.064,646.197 
		276.658,647.17 276.172,649.603 278.118,658.361 278.118,665.659 279.091,666.633 280.962,667.194 282.983,668.092 283.348,667.91 
		283.956,668.092 284.54,667.314 284.93,667.119 284.93,666.795 285.416,666.146 285.416,662.254 285.903,659.821 285.903,658.361 
		285.538,657.631 	"/>
	<polygon points="691.204,411.677 689.744,408.758 686.825,406.812 683.419,406.325 680.499,407.785 680.134,408.202 
		680.013,408.271 680.026,408.326 677.093,411.677 677.093,415.57 679.526,418.489 681.959,419.462 687.311,420.435 
		689.257,418.489 691.204,415.083 	"/>
	<polygon points="257.682,622.843 254.763,622.843 254.277,623.329 251.357,625.275 250.871,627.222 252.33,628.681 
		251.844,636.953 251.844,643.278 253.79,645.711 258.656,646.197 258.656,644.738 257.196,644.251 258.656,638.412 
		258.656,634.033 259.629,628.681 259.142,624.302 	"/>
	<polygon points="186.645,678.31 190.538,667.606 191.511,662.254 192.484,660.307 191.997,657.875 189.565,657.875 
		187.618,658.361 185.186,660.307 182.753,669.065 182.51,670.525 182.266,670.525 181.78,674.904 181.293,675.391 180.807,678.796 
		181.78,679.77 185.186,680.256 	"/>
	<polygon points="102.958,239.437 106.364,239.923 110.743,238.464 113.175,236.031 113.175,232.138 112.202,230.679 
		108.31,228.246 104.904,228.246 101.985,229.219 99.552,231.652 99.552,235.058 100.525,237.49 	"/>
	<polygon points="499.501,109.526 503.393,109.526 505.339,107.58 507.286,103.688 506.799,99.309 504.366,96.876 500.96,96.389 
		498.041,97.849 496.095,100.768 495.608,103.688 496.581,106.12 	"/>
	<polygon points="83.009,344.046 85.442,341.613 85.928,339.181 84.955,337.234 82.036,335.288 77.17,334.315 72.791,336.748 
		71.818,339.181 73.764,343.56 76.197,345.019 79.603,345.019 	"/>
	<polygon points="587.567,78.387 591.946,78.387 592.919,77.9 594.866,75.467 594.866,70.602 593.406,68.169 590.973,66.709 
		587.567,66.709 586.594,67.196 584.161,69.629 584.161,74.981 584.648,75.954 	"/>
	<polygon points="138.476,327.503 139.449,328.963 139.449,333.828 141.396,334.315 144.315,331.882 146.748,326.044 
		147.721,322.151 150.154,319.232 149.181,315.826 146.748,315.826 142.855,320.691 141.943,322.111 141.882,322.151 
		141.396,322.962 	"/>
	<polygon points="110.803,320.205 110.743,320.205 109.283,322.638 104.417,330.423 104.904,333.828 106.364,334.315 
		109.283,333.342 111.716,330.423 116.095,320.205 116.581,316.312 115.122,315.826 111.716,318.745 	"/>
	<polygon points="136.53,213.649 137.99,215.109 140.909,215.109 144.315,213.163 147.234,208.784 147.234,205.864 145.775,203.918 
		142.855,203.432 141.882,203.918 139.449,205.864 136.53,210.73 	"/>
	<polygon points="702.881,240.41 705.314,237.49 705.314,234.571 704.827,233.598 701.908,231.165 698.502,230.679 697.529,231.165 
		695.583,234.085 695.583,238.464 698.015,240.896 700.935,241.383 	"/>
	<polygon points="119.014,220.461 121.447,219.001 123.88,216.568 126.312,211.703 126.799,208.784 125.826,207.81 123.393,207.81 
		120.96,209.27 119.014,211.703 116.095,216.568 115.608,219.974 117.068,220.947 	"/>
	<polygon points="97.119,345.992 96.765,346.479 95.173,348.425 94.957,348.966 93.227,351.344 93.713,354.264 96.146,354.75 
		98.579,352.804 101.011,350.371 104.417,344.046 104.417,341.127 102.471,340.64 101.498,341.127 100.33,342.424 99.552,343.073 
		97.606,345.452 	"/>
	<polygon points="189.565,156.722 192.971,156.722 194.917,155.262 195.403,154.289 195.89,153.803 195.89,153.316 196.863,151.37 
		196.376,149.424 195.89,148.937 195.89,148.937 194.43,147.478 191.024,146.991 189.078,147.964 186.645,150.883 187.132,154.289 	
		"/>
	<polygon points="111.229,293.444 113.175,290.525 113.175,287.606 112.689,287.119 110.256,286.633 108.796,287.119 
		104.904,290.525 102.471,294.417 103.444,295.877 108.31,295.877 	"/>
	<polygon points="134.097,579.539 131.665,579.052 127.772,579.539 125.339,580.999 123.393,583.918 123.88,585.864 
		126.312,587.811 128.259,587.324 132.151,583.918 134.584,581.485 	"/>
	<polygon points="133.124,345.506 136.044,343.073 136.044,340.64 134.097,339.181 130.691,338.694 128.745,339.181 
		125.826,341.613 124.853,344.046 127.772,345.506 	"/>
	<polygon points="732.561,327.503 730.615,325.557 728.182,325.07 726.722,325.557 725.262,327.503 725.749,330.423 
		724.289,329.449 723.56,329.632 722.83,329.449 722.343,329.936 722.83,332.369 725.262,332.369 727.209,332.855 729.641,332.855 
		732.561,330.423 	"/>
	<polygon points="361.319,89.091 363.752,87.631 364.238,85.198 361.805,82.766 359.373,82.766 356.453,84.225 355.48,86.658 
		357.426,89.091 	"/>
	<path d="M151.613,197.106l2.433-1.46l0.487-3.406l-1.946-1.946l-3.406-0.487l-1.946,1.946v3.406l1.46,1.46L151.613,197.106z
		 M150.154,192.727h0.973v0.973h-0.973V192.727z"/>
	<polygon points="680.499,273.982 683.905,276.901 687.798,276.901 689.257,275.928 692.663,272.036 693.15,268.143 
		692.177,264.737 691.141,263.529 691.204,263.278 689.257,261.332 684.392,260.359 682.932,261.332 682.904,261.475 
		682.446,261.818 682.013,262.899 681.959,262.791 681.472,264.251 679.04,265.224 679.526,271.549 	"/>
	<polygon points="136.53,267.657 135.07,268.63 130.691,269.603 128.745,271.063 126.556,272.522 126.312,272.522 124.366,273.982 
		124.853,276.415 126.312,278.361 128.745,278.361 130.205,278.848 129.232,281.28 130.205,283.227 135.557,283.227 136.53,282.254 
		136.53,276.901 137.503,275.442 139.936,273.009 139.936,270.09 138.963,268.143 	"/>
	<polygon points="171.562,186.402 173.022,185.916 175.455,182.51 175.455,179.59 174.481,179.104 172.049,178.617 171.076,179.104 
		169.129,182.023 169.616,184.942 	"/>
	<polygon points="183.239,169.859 184.699,168.399 184.699,165.48 182.753,163.534 179.834,163.534 178.374,164.994 
		178.374,168.399 180.807,170.346 	"/>
	<polygon points="748.131,331.882 744.725,331.396 743.265,332.369 742.778,335.288 744.238,337.721 748.131,337.721 
		749.104,336.748 749.104,332.855 	"/>
	<polygon points="609.949,185.916 610.922,185.429 612.868,182.51 612.868,179.104 611.895,178.131 609.462,177.644 
		607.516,180.563 608.003,183.969 	"/>
	<polygon points="73.764,306.581 74.251,304.149 72.305,302.202 69.385,302.202 67.926,303.662 67.439,306.095 68.412,307.554 
		71.818,308.041 	"/>
	<polygon points="221.677,138.72 223.624,136.773 223.624,133.854 223.137,132.881 222.942,132.832 222.65,132.394 220.218,132.394 
		219.731,132.881 217.785,135.8 217.785,138.72 218.758,139.206 	"/>
	<polygon points="175.941,92.01 177.887,90.551 177.887,87.631 176.914,86.658 173.995,86.172 172.049,87.145 171.562,90.064 
		172.535,91.524 	"/>
	<polygon points="191.024,107.58 193.944,107.58 195.403,106.12 195.403,103.688 194.917,102.958 194.917,102.714 194.43,102.228 
		191.511,101.741 190.677,102.297 190.538,102.228 190.051,102.714 189.565,106.12 190.538,107.093 	"/>
	<polygon points="528.153,125.745 528.207,126.069 528.451,126.191 528.694,126.556 531.127,127.529 533.073,126.069 
		533.56,123.636 532.1,121.69 529.667,121.204 528.207,122.177 528.11,122.761 527.721,123.15 527.883,124.123 527.721,125.096 	"/>
	<polygon points="540.371,160.128 542.804,162.561 544.75,162.074 546.21,159.155 545.237,156.722 542.318,156.236 540.858,157.209 
			"/>
	<polygon points="59.168,337.721 57.708,338.694 57.708,341.613 59.168,343.073 62.087,343.073 63.547,341.613 63.547,339.181 
		62.087,337.721 	"/>
	<polygon points="93.227,238.464 94.686,237.49 95.173,235.058 93.713,233.598 90.307,233.111 89.334,234.085 88.848,236.517 
		90.307,237.977 	"/>
	<polygon points="79.603,333.828 82.036,333.828 84.955,330.909 85.442,327.99 83.495,327.017 82.036,327.99 79.116,332.855 	"/>
	<polygon points="125.339,310.96 123.393,310.96 122.42,311.447 119.014,316.799 119.987,318.259 121.933,317.772 124.853,313.88 	
		"/>
	<polygon points="121.447,305.608 123.88,303.175 123.393,300.256 120.96,300.256 119.501,301.716 118.041,304.149 118.528,306.095 
			"/>
	<polygon points="584.648,117.798 585.621,115.851 584.648,112.932 582.215,112.446 580.755,113.419 580.269,116.338 
		582.215,118.284 	"/>
	<polygon points="226.543,87.145 228.003,85.685 228.003,83.252 227.029,82.279 226.543,81.793 224.11,81.793 222.65,83.252 
		222.65,85.685 223.624,86.658 	"/>
	<polygon points="125.826,241.869 126.799,242.842 129.232,243.329 130.691,242.356 131.178,239.923 130.205,238.464 
		127.286,237.977 125.826,238.95 	"/>
	<polygon points="585.134,90.551 584.648,93.47 585.621,95.416 588.054,95.903 589.513,94.443 589.513,91.524 588.054,90.064 
		585.621,90.064 	"/>
	<polygon points="657.145,416.543 657.145,420.435 658.118,421.408 660.551,420.922 661.524,418.976 661.037,416.056 
		658.118,415.57 	"/>
	<polygon points="205.621,125.096 206.108,127.529 209.513,128.015 210.243,127.042 210.487,127.042 210.973,126.069 
		210.487,123.636 208.054,122.663 207.081,123.15 207.081,123.636 	"/>
	<polygon points="400.243,93.956 403.163,90.551 403.649,88.118 401.703,87.145 398.297,91.037 398.784,93.47 	"/>
	<polygon points="199.782,101.741 200.755,102.714 203.188,102.714 204.648,101.741 205.134,99.309 204.161,98.335 200.755,98.335 
		199.782,99.309 	"/>
	<polygon points="427.977,92.983 427.49,90.064 424.571,90.064 423.111,91.524 423.111,94.443 426.031,94.93 	"/>
	<polygon points="677.093,247.708 673.688,247.222 672.714,248.681 673.201,251.601 676.12,252.087 677.58,250.627 	"/>
	<polygon points="199.296,138.72 198.323,139.693 198.323,143.099 200.269,143.585 202.702,142.125 202.702,138.72 199.782,138.233 
			"/>
	<polygon points="100.038,501.69 99.065,500.717 96.632,500.23 94.686,501.69 95.173,504.123 97.119,505.096 99.552,504.123 	"/>
	<polygon points="90.113,364.968 90.307,364.968 91.28,363.508 91.28,360.589 89.334,360.589 88.361,361.076 86.415,363.508 
		86.901,365.455 89.334,365.941 	"/>
	<polygon points="516.53,116.338 517.017,115.851 517.017,112.932 516.53,112.446 514.097,111.472 512.638,112.446 512.151,114.878 
		513.611,116.338 	"/>
	<polygon points="720.883,342.586 721.37,340.154 720.397,339.181 717.964,338.694 716.505,339.667 716.505,342.586 
		716.991,343.073 719.424,343.56 	"/>
	<polygon points="477.606,86.172 478.579,85.198 478.579,82.279 477.606,81.306 475.173,81.306 474.2,82.279 474.2,85.198 
		475.173,86.172 	"/>
	<polygon points="338.451,73.035 338.937,71.088 337.964,69.629 335.045,69.142 334.072,70.115 334.072,72.548 336.018,74.008 	"/>
	<polygon points="683.419,422.382 682.932,425.787 683.905,426.761 686.338,426.761 686.825,425.787 686.825,422.868 
		685.365,421.408 	"/>
	<polygon points="745.698,189.321 746.184,186.889 743.752,185.429 741.805,186.889 741.805,189.808 742.292,190.294 
		744.725,190.294 	"/>
	<polygon points="166.697,98.335 168.156,96.389 167.67,94.443 164.264,93.956 163.291,94.443 163.291,96.876 164.264,97.849 	"/>
	<polygon points="212.919,92.983 215.352,92.983 216.812,91.037 216.325,89.091 213.892,88.604 213.163,89.091 212.919,89.091 
		211.946,90.064 212.141,91.037 211.946,92.01 	"/>
	<polygon points="221.191,178.131 220.704,180.077 223.137,180.563 226.056,177.158 225.57,175.211 224.11,175.211 	"/>
	<polygon points="413.867,77.9 413.867,75.467 413.38,74.981 410.947,74.008 409.488,75.467 409.488,77.9 411.434,78.873 	"/>
	<polygon points="90.794,318.259 89.821,316.799 87.388,316.312 86.901,318.745 87.874,321.178 90.307,321.665 	"/>
	<polygon points="80.09,405.352 79.116,406.325 79.603,408.271 82.036,409.245 84.469,408.758 84.469,407.298 83.009,405.352 	"/>
	<polygon points="659.091,302.689 658.118,305.122 656.658,308.528 656.658,313.88 657.145,314.366 657.145,317.286 
		656.172,318.745 656.172,321.665 657.145,324.584 657.729,325.168 658.118,326.044 658.685,326.125 659.577,327.017 
		665.416,327.017 667.362,326.53 668.335,325.557 669.795,321.665 669.861,321.362 670.282,320.205 670.282,319.426 
		670.654,317.715 670.768,317.772 671.741,313.393 671.741,312.712 672.228,310.474 672.714,304.635 671.255,302.202 
		668.335,300.256 663.47,300.256 660.064,301.229 659.213,302.932 	"/>
	<polygon points="488.31,80.819 489.283,79.846 488.796,76.927 485.877,76.44 484.904,77.414 485.391,80.333 	"/>
	<polygon points="705.8,334.802 705.314,332.369 702.881,331.882 701.908,332.369 701.421,334.802 702.394,336.261 704.827,336.261 
			"/>
	<polygon points="166.697,659.821 165.723,660.307 165.237,661.767 167.183,663.713 169.616,664.686 170.589,662.74 
		169.129,660.794 	"/>
	<polygon points="706.287,343.56 704.827,345.019 705.314,347.452 707.746,347.939 709.206,346.965 709.206,344.533 708.72,344.046 
			"/>
	<polygon points="140.423,341.613 140.423,343.56 141.396,344.533 143.828,345.019 145.288,344.046 144.802,341.613 
		141.396,341.127 	"/>
	<polygon points="361.805,100.768 361.319,102.228 361.319,106.12 362.778,107.58 364.238,106.607 364.238,103.688 363.265,101.255 
			"/>
	<polygon points="658.118,258.899 659.091,257.926 659.091,255.493 658.604,255.006 656.172,254.52 654.712,256.466 
		655.685,258.412 	"/>
	<polygon points="119.501,555.698 117.068,554.725 115.122,555.698 115.122,558.131 117.068,559.104 119.014,558.131 	"/>
	<polygon points="669.309,410.218 668.335,411.191 668.335,413.624 670.768,414.597 672.714,412.164 671.741,410.218 	"/>
	<polygon points="155.019,84.225 156.479,82.766 155.992,80.333 153.56,79.846 152.586,80.333 152.1,81.793 153.073,83.739 	"/>
	<polygon points="322.881,75.467 323.367,72.548 321.421,71.575 319.962,72.548 318.988,74.981 320.448,76.44 	"/>
	<polygon points="648.387,341.613 647.9,344.046 649.846,345.019 651.306,344.533 652.279,342.586 651.793,340.64 649.36,340.64 	
		"/>
	<polygon points="166.21,145.531 166.21,143.099 163.777,142.125 162.318,143.099 162.318,145.531 163.777,146.504 	"/>
	<polygon points="228.976,124.123 230.435,126.069 233.355,126.069 234.814,124.123 234.328,121.69 233.744,121.106 
		233.841,120.717 232.868,120.23 229.949,120.23 228.976,121.204 	"/>
	<polygon points="117.554,352.318 118.528,348.912 117.068,348.425 115.122,350.858 114.635,354.264 116.095,354.264 	"/>
	<polygon points="97.119,196.62 97.606,195.647 97.119,193.214 94.686,192.727 93.713,193.7 94.2,196.62 	"/>
	<polygon points="210.973,148.451 210,148.937 209.513,151.37 210.487,152.343 212.919,152.343 213.892,151.37 212.919,148.937 	"/>
	<polygon points="330.666,122.663 331.639,121.204 332.125,118.771 330.666,118.284 329.206,118.771 327.746,121.204 
		328.233,122.663 	"/>
	<polygon points="691.69,418.976 691.204,419.462 691.204,422.382 691.69,423.355 693.636,423.841 694.609,421.895 693.636,418.976 
			"/>
	<polygon points="151.613,594.136 149.181,596.082 149.083,596.244 148.694,596.569 147.721,598.515 146.261,600.948 
		146.261,601.434 145.775,602.407 146.261,606.786 142.369,609.706 141.396,613.111 141.882,616.031 145.288,616.517 
		146.261,615.544 146.261,615.544 146.261,615.544 146.748,615.058 147.356,613.72 147.721,613.111 147.78,612.787 149.181,609.706 
		150.154,605.813 152.1,603.38 154.046,598.028 154.533,594.136 152.586,593.649 	"/>
	<polygon points="664.443,280.794 665.416,279.821 664.93,277.388 662.497,276.901 661.524,277.875 662.01,280.307 	"/>
	<polygon points="89.334,464.225 89.821,461.793 88.848,460.333 86.415,460.333 85.928,462.279 86.901,463.739 	"/>
	<polygon points="716.505,286.146 716.018,284.686 714.072,283.713 712.612,284.686 712.612,287.119 714.558,288.092 	"/>
	<polygon points="124.853,260.359 127.286,260.845 128.259,259.872 127.772,257.439 125.826,256.953 124.366,258.412 	"/>
	<polygon points="120.474,590.73 119.014,591.216 117.554,593.163 113.662,594.622 113.662,596.569 116.581,597.542 
		117.554,599.488 117.068,600.948 113.662,602.894 112.202,607.273 111.229,608.246 110.743,611.652 112.202,613.111 
		114.149,612.625 117.068,607.759 119.501,605.327 121.447,602.407 121.447,599.488 119.501,597.542 118.528,594.136 
		121.933,594.136 122.42,593.649 122.907,593.649 123.88,592.19 122.907,590.73 	"/>
	<polygon points="136.53,628.681 136.044,629.168 135.557,631.114 136.53,632.087 138.963,632.087 139.936,630.627 138.963,629.168 
			"/>
	<polygon points="102.471,312.907 102.958,309.987 101.011,309.987 100.038,311.447 99.552,314.853 100.525,314.853 	"/>
	<polygon points="216.812,156.722 217.785,155.262 217.298,153.316 215.352,153.316 213.892,154.289 214.379,156.722 	"/>
	<polygon points="722.83,418.489 719.91,418.003 718.451,419.462 717.964,422.868 720.397,425.301 722.83,425.301 724.289,424.328 
		725.262,421.895 724.776,419.949 	"/>
	<polygon points="90.794,333.828 88.361,333.342 87.388,334.315 87.874,336.261 90.307,336.748 91.28,335.775 	"/>
	<polygon points="203.188,114.392 202.702,116.825 203.675,117.798 206.108,117.311 205.621,114.392 203.675,113.905 	"/>
	<polygon points="142.369,180.077 143.342,179.104 143.342,176.671 141.396,176.184 139.936,177.644 140.423,179.59 	"/>
	<polygon points="287.362,114.878 286.876,113.419 284.443,113.419 283.956,113.905 283.47,116.338 285.416,116.825 	"/>
	<polygon points="140.909,618.464 140.909,621.383 141.882,622.356 143.342,621.383 143.828,618.464 141.396,617.977 	"/>
	<polygon points="345.262,122.663 347.695,121.69 348.182,119.257 347.209,117.798 343.803,117.311 343.316,117.798 
		342.918,118.461 342.83,118.284 341.857,120.23 342.83,122.177 	"/>
	<polygon points="577.836,128.015 578.809,127.042 578.323,125.096 575.89,124.609 575.403,125.096 575.89,128.015 	"/>
	<polygon points="83.495,351.831 83.982,353.777 85.928,354.264 87.388,353.291 86.901,351.344 83.982,351.344 	"/>
	<polygon points="72.305,241.869 71.818,239.923 69.872,239.437 68.899,239.923 68.412,241.383 69.872,242.842 	"/>
	<polygon points="191.511,192.727 191.997,194.673 194.43,194.673 194.917,194.187 194.917,192.241 192.484,191.754 	"/>
	<polygon points="502.42,186.402 502.42,182.996 501.933,182.023 500.474,182.023 499.987,183.483 500.474,186.402 	"/>
	<polygon points="87.388,282.254 86.901,279.334 85.442,278.848 84.469,279.821 84.955,282.74 	"/>
	<polygon points="137.99,296.364 136.044,296.364 136.044,295.391 134.097,294.417 133.124,295.391 133.611,297.337 137.99,297.337 
			"/>
	<polygon points="199.782,63.303 200.269,62.33 199.782,59.411 197.836,58.924 197.35,59.898 198.323,63.303 	"/>
	<polygon points="630.871,194.187 631.357,191.754 628.924,191.268 627.951,192.727 628.438,194.187 	"/>
	<polygon points="93.713,391.242 96.146,390.755 97.536,388.67 97.606,388.809 99.065,386.376 102.471,376.645 101.011,376.159 
		99.552,378.105 97.606,381.024 96.146,382.971 96.013,383.634 93.227,388.809 	"/>
	<polygon points="352.561,86.658 353.047,84.225 350.615,83.739 350.128,84.225 350.615,86.658 	"/>
	<polygon points="670.768,279.334 671.255,276.901 668.822,276.901 667.849,277.875 668.822,279.821 	"/>
	<polygon points="247.067,110.809 247.951,110.986 248.6,110.553 248.924,110.499 248.896,110.356 250.871,109.04 250.871,106.607 
		248.924,105.634 246.005,107.093 245.866,108.067 245.519,108.067 245.519,110.499 246.005,110.986 	"/>
	<polygon points="229.462,164.994 229.462,166.94 231.895,167.426 232.382,164.994 230.435,164.507 	"/>
	<polygon points="296.607,95.416 296.607,97.362 299.04,96.876 299.526,94.93 297.58,94.443 	"/>
	<rect x="208.759" y="82.012" transform="matrix(0.1961 -0.9806 0.9806 0.1961 87.1828 272.8488)" width="2.481" height="2.481"/>
	<polygon points="711.639,394.161 711.639,395.621 712.612,396.594 715.531,397.081 715.531,396.108 714.072,394.648 	"/>
	<polygon points="136.53,591.703 134.097,591.703 133.124,593.163 133.611,594.622 136.044,593.649 	"/>
	<polygon points="62.574,332.369 63.06,329.936 61.114,329.449 60.141,330.423 60.627,332.369 	"/>
	<polygon points="97.119,358.643 94.2,358.643 93.713,360.589 97.119,360.589 	"/>
	<polygon points="513.124,162.074 511.665,161.588 511.178,162.074 510.691,164.994 512.638,164.507 	"/>
	<polygon points="283.956,671.012 282.497,670.038 279.577,669.552 279.091,671.498 280.551,673.444 283.956,673.931 
		284.443,671.985 283.794,671.336 	"/>
	<polygon points="214.866,142.612 216.812,142.612 217.298,140.666 215.352,140.179 	"/>
	<polygon points="233.841,58.924 232.382,58.438 231.408,58.924 231.408,61.357 233.841,60.871 	"/>
	<polygon points="576.863,177.158 576.863,175.211 574.917,174.725 574.43,176.671 575.403,177.644 	"/>
	<polygon points="131.665,228.732 131.665,227.273 129.232,226.786 128.745,228.246 130.205,229.219 	"/>
	<polygon points="154.046,96.389 152.1,96.389 151.613,98.335 153.56,98.822 	"/>
	<polygon points="120.474,341.127 119.987,341.613 121.933,344.046 123.88,344.533 122.907,343.56 121.933,341.127 	"/>
	<polygon points="575.403,536.236 576.376,538.182 578.809,539.155 577.836,537.209 	"/>
	<polygon points="153.073,345.506 153.073,346.479 155.506,347.452 155.992,345.992 154.046,345.019 	"/>
	<polygon points="126.799,223.867 124.853,222.894 124.366,223.38 124.366,224.84 126.312,225.327 	"/>
	<polygon points="81.063,316.312 81.063,314.853 79.116,314.366 78.63,316.312 79.603,316.799 	"/>
	<polygon points="360.832,99.795 360.832,97.362 358.886,96.876 358.886,98.822 	"/>
	<polygon points="110.743,187.862 109.283,186.889 108.31,187.375 108.31,188.835 110.256,189.321 	"/>
	<polygon points="70.845,526.991 73.278,527.478 73.278,526.018 71.332,525.531 	"/>
	<polygon points="681.959,319.232 680.013,318.745 679.526,320.691 681.472,320.691 	"/>
	<polygon points="701.908,278.361 699.962,277.875 699.475,279.821 701.421,279.821 	"/>
	<polygon points="226.056,146.504 224.597,146.018 224.11,147.964 226.056,148.451 	"/>
	<polygon points="95.173,508.988 97.119,509.475 97.606,508.015 95.173,507.529 	"/>
	<polygon points="111.229,454.981 109.283,454.494 108.796,455.954 110.743,456.44 	"/>
	<rect x="139.936" y="135.8" width="1.946" height="1.946"/>
	<polygon points="656.658,276.901 655.198,276.901 654.712,278.848 656.658,278.848 	"/>
	<polygon points="198.809,191.754 199.296,189.808 197.35,189.808 196.863,190.781 	"/>
	<polygon points="500.96,158.668 499.987,158.668 499.501,159.155 499.014,161.588 500.474,160.615 	"/>
	<polygon points="251.844,68.656 250.871,68.169 249.898,70.115 251.844,70.602 	"/>
	<polygon points="203.675,607.273 202.702,607.273 202.215,610.192 203.188,610.192 	"/>
	<polygon points="239.193,146.018 237.247,146.018 237.247,147.478 238.707,147.964 	"/>
	<polygon points="53.329,400 55.275,400.487 55.762,399.027 54.302,398.54 	"/>
	<polygon points="731.101,399.513 732.561,399.513 733.047,397.567 732.074,397.567 	"/>
	<rect x="149.384" y="340.844" transform="matrix(0.3162 -0.9487 0.9487 0.3162 -221.412 376.0331)" width="1.539" height="1.539"/>
	<rect x="130.205" y="187.375" width="1.946" height="1.46"/>
	<rect x="539.398" y="127.529" width="1.46" height="1.946"/>
	<polygon points="234.328,679.283 235.787,679.77 235.787,678.31 233.841,677.823 	"/>
	<polygon points="283.47,132.394 283.956,131.421 281.524,130.935 282.01,132.394 	"/>
	<polygon points="249.411,660.307 250.871,661.767 251.357,660.307 249.898,659.821 	"/>
	<polygon points="725.749,369.347 726.722,369.347 727.209,367.401 726.236,367.401 	"/>
	<polygon points="112.202,312.907 113.175,313.393 113.662,311.447 112.202,311.447 	"/>
	<polygon points="122.907,233.598 124.366,233.598 124.366,232.138 123.393,231.652 	"/>
	<polygon points="518.476,172.778 520.422,173.265 520.422,171.805 518.963,171.805 	"/>
	<polygon points="509.718,166.94 507.772,166.94 507.772,167.913 509.232,168.399 	"/>
	<polygon points="519.936,123.15 517.99,122.663 517.99,124.123 519.449,124.123 	"/>
	<polygon points="243.086,117.311 241.626,117.311 241.626,118.771 242.599,119.257 	"/>
	<polygon points="430.41,79.846 428.95,79.36 428.95,81.306 429.923,81.306 	"/>
	<rect x="154.046" y="334.315" width="1.46" height="1.46"/>
	<polygon points="87.388,408.271 84.955,408.271 84.955,408.758 86.901,409.245 	"/>
	<polygon points="516.53,178.131 516.53,177.158 515.557,176.671 514.584,177.644 	"/>
	<polygon points="227.516,100.768 228.976,100.768 228.976,99.309 228.003,99.309 	"/>
	<polygon points="88.361,396.108 88.848,395.134 87.388,394.648 87.388,396.108 	"/>
	<polygon points="136.53,321.665 137.017,319.232 136.044,319.232 136.044,321.665 	"/>
	<polygon points="137.017,195.16 136.044,194.673 135.557,196.133 137.017,196.133 	"/>
	<polygon points="508.259,177.644 509.718,178.131 509.718,177.158 508.259,176.671 	"/>
	<polygon points="297.58,75.954 296.607,75.954 296.12,76.927 297.58,77.414 	"/>
	<polygon points="50.896,407.785 52.356,406.812 50.896,406.325 	"/>
	<rect x="88.361" y="327.503" width="1.46" height="0.973"/>
	<polygon points="327.26,148.451 326.287,148.451 325.8,148.937 326.773,149.91 	"/>
	<rect x="317.042" y="127.042" width="1.46" height="0.973"/>
	<polygon points="351.101,108.553 352.074,107.58 350.615,107.093 	"/>
	<polygon points="154.533,187.375 155.992,187.375 155.019,186.402 	"/>
	<polygon points="242.113,161.101 241.14,161.101 240.653,161.588 242.113,162.074 	"/>
	<rect x="680.013" y="339.181" width="0.973" height="0.973"/>
	<rect x="113.662" y="334.315" width="0.973" height="0.973"/>
	<rect x="104.417" y="300.743" width="0.973" height="0.973"/>
	<polygon points="124.853,292.958 124.853,293.444 126.312,293.444 	"/>
	<rect x="320.935" y="122.177" width="0.973" height="0.973"/>
	<rect x="266.44" y="106.12" width="0.973" height="0.973"/>
	<polygon points="141.396,313.88 141.396,314.853 142.369,314.366 	"/>
	<polygon points="119.501,286.633 120.474,286.146 119.501,285.659 	"/>
	<polygon points="120.474,244.789 120.474,245.762 121.447,245.762 	"/>
	<polygon points="352.561,125.096 352.074,125.583 353.047,126.069 	"/>
</g>
</svg>
