<?xml version="1.0" encoding="utf-8"?>
<!-- Generator: Adobe Illustrator 27.5.0, SVG Export Plug-In . SVG Version: 6.00 Build 0)  -->
<svg version="1.1" id="Layer_1" xmlns="http://www.w3.org/2000/svg" xmlns:xlink="http://www.w3.org/1999/xlink" x="0px" y="0px"
	 viewBox="0 0 800 800" style="enable-background:new 0 0 800 800;" xml:space="preserve">
<g>
	<path d="M102.911,541.51l2.855-4.078l4.486-5.709l1.631-6.933l2.855-3.67l6.117-3.67l1.223-2.039l1.631-3.67l4.078-2.447
		l2.855-4.078l2.039-1.631l6.117-0.408l1.456-0.583l1.036-0.777l0.712-0.854l0.763-1.271l-0.365-0.729l-2.379-2.719l-0.408-2.855
		l4.078-5.709l0.979-0.734l-0.163-0.082l2.447-1.631l2.039-0.816l-0.408-0.816l-2.039-0.816h-3.67l-4.486,0.408l-0.408,0.408
		l-1.733,0.816l-0.714,0.408l-0.524,0.175l-3.962,1.864l-0.816-0.408l0.408-3.466v-3.466l-1.631-1.631l0.408-1.223l2.447,0.408
		l3.262-6.525l4.894-6.933l5.302-5.709l4.486-3.67l3.238-3.598l0.432-1.295v-3.262l1.223-2.855l3.262-3.67l0.408-0.816l1.223-2.447
		l-1.223,0.408l-3.67,2.447l-4.078,4.486l-3.262,2.855l-0.816-0.408v-2.039h-3.262l-2.039,0.816h-6.525l-1.223,0.408l-6.933,4.894
		l-2.855,1.223l-7.341-0.408l-2.039,1.223l-2.855,3.67h-0.816v0.816l-1.631,1.223l-3.262,0.816l-2.039,0.816l-4.486,0.816
		l-2.447,1.631l-2.855,0.408l-2.039-1.223l-3.262,0.408v0.816l-2.447,2.855l-2.447,1.631h-3.262l-2.039-0.408l-2.447-1.631
		l-3.67-0.816l-2.039-0.816l-0.408-1.223l1.223-1.631l3.67-4.078l0.816-3.262l2.855-5.709l2.855-3.67l3.262-3.262l4.486-3.67
		l5.302-4.894l2.855-1.631l2.855-2.039l1.631-0.816v-0.816l1.223-1.631l4.078-0.816l2.039-0.816l-0.816-2.447l-3.262-2.039
		l-1.631,0.408l-1.223,4.486h-1.631l-2.447-0.816l-0.816-2.447l-0.816-1.223h-2.039v-0.816l1.631-2.447l0.816-4.486l0.699-2.33
		l0.116-0.524l0.146-0.35l0.262-0.874l2.855-6.525l2.447-4.894l0.816-4.894l0.408-1.631l0.408-0.816l0.408-1.223l0.544-0.68
		l0.272-0.544l0.272-0.136l0.544-0.68l0.544,0.136l0.272-0.136l0.371,0.297l0.445,0.111l0.612,0.734l0.612,0.489l1.631,1.631
		l0.68,0.34l0.427-0.107l1.434-0.86l0.722-0.902l1.001-1.752l0.317-1.424l0.314-3.451l0.816-1.631l0.417-0.389l-0.009-0.019
		l2.855-2.855l0.297-0.059l2.558-2.388l0.816-2.039l-1.631-2.855v-2.447l0.272-0.272l0.136-1.359l0.272-0.544l0.136-0.68l0.714-1.02
		l0.102-0.204l2.855-4.078l1.631-1.631l3.67-1.223h4.282l0.204-0.408v-0.408l1.223-2.039l2.393-2.093l2.093-2.392l0.136-0.136
		l2.719-3.534l3.67-6.525h0.168l0.24-0.408l2.855-6.933l3.262-5.709l3.262-3.67l1.713-2.202l1.958-2.692l3.67-11.419l0.204-0.612
		l0.612-2.243l1.223-3.262l1.223-3.67l2.447-6.117l-0.408-2.447l-2.855-1.223v-2.855l0.408-1.223l0.408-0.466v-0.35l2.447-2.447
		l4.078-2.039h4.894l1.631,0.408l0.204,0.204l0.612,0.204l0.045,0.181l1.586,0.634l7.341,1.223h4.486l7.341-1.223l2.447-0.408h2.447
		l4.141-0.376l0.447-0.099l3.568-2.379l4.078-2.039l2.039-1.223l2.039-4.078l0.408-1.835v-1.835l-4.078-2.447v-3.262l0.408-1.223
		l1.049-2.272l0.583-1.398l1.631-4.486l2.039-2.447l2.855-4.486l3.67-3.262l5.709-2.447l4.078-2.855l4.894-2.039l3.67-1.223
		l2.447-4.894l2.039-1.223l3.262-0.408l2.447,0.408v0.082l1.631,0.326l4.078,0.816l2.141-0.918l0.85-0.85l0.272-1.088v-3.262
		l0.816-0.408l2.855-2.855l2.039-4.078l2.447-4.078l0.408-2.447l-2.447-3.67l0.408-4.078h0.175l0.233-1.631l1.631-2.039l5.709-2.855
		l4.486-0.816l4.894-2.447h2.447l0.816,0.408h2.855l1.631-0.816h7.341l2.447-1.223l2.039-2.855v-3.262l0.408-1.631l2.855-3.262
		l3.67-2.855l2.447-0.408l0.612,0.51l0.204-0.102l1.631,1.631l3.262,1.223l0.408,2.039l-2.039,2.855l-4.486,5.302l-2.855,3.67
		l-0.355,1.776l1.579,0.263l1.631-0.816l6.525-6.525l3.67-4.078l3.67-2.447l6.525-1.223l1.631-0.816l3.262-3.67l5.302-4.486
		l4.486-2.447l2.039-2.039l3.67-4.894l2.447-4.078l0.408-2.039l-4.486,0.408l-4.078,0.816l-1.631,0.34v0.068l-6.117,1.223
		l-1.631,0.408l-0.116-0.058l-0.291,0.058l-0.058-0.233l-0.35-0.175l0.136-0.68l-0.136-0.544l0.272-0.136l0.136-0.68l1.631-2.447
		l0.24-0.144l0.984-1.362v-0.125l2.447-3.262l4.894-5.302l4.078-3.67l4.486-3.262l3.67-1.223l0.319,0.027l0.089-0.027l4.486,0.408
		l3.67-1.223l4.078-2.855l1.631-2.039l0.816-3.262l2.855-3.262l3.262-1.631l3.262-3.67l5.302-2.855l3.262-2.855l3.262-1.631h3.67
		l2.447-2.039l0.612-0.408l1.02-0.816l0.272-0.045l0.544-0.363l0.816,0.136l0.816-0.136l0.816,0.408l2.855,0.408l6.525-5.709
		l2.447-3.262l2.039-2.039l1.631-0.816v-0.816l1.223-1.631l1.631-2.039l6.117-3.67l2.243-1.427l3.568-2.549l3.976-3.364l0.792-0.576
		l1.247-1.056l1.165-0.699l1.282-0.932l0.816-0.326l0.816-0.489l1.087-0.272l0.136-0.054V70.49l0.408-0.082l0.816-0.326l0.445,0.074
		l0.371-0.074l2.855,0.408h2.855h2.447l1.223,0.816h3.262l2.447-1.223l1.049-0.233l0.175-0.073v-0.102l0.408-0.068l0.816-0.34h1.223
		h3.67l0.408,0.816l-0.408,2.447l-1.223,1.468v0.163l-0.816,0.816l-0.155,0.113l-0.253,0.295l-5.925,4.366l-2.639,2.159
		l-0.741,0.297l-1.298,0.927l-2.855,2.039l-3.67,3.67l-2.855,3.262l-0.355,0.316l-2.907,3.355l-4.078,5.709l-2.447,4.486
		l-4.894,14.681v2.855h2.039l3.262-1.631l3.262-0.408l0.408,0.408l0.408,0.408l-0.125,1.004l0.125,0.627l-0.363,1.269l-0.045,0.363
		l-0.163,0.367l-0.245,0.856l-0.612,1.07l-0.612,1.376l-4.282,7.341l-2.651,5.302l-1.223,2.855l-3.67,8.564l-0.155,0.233
		l-0.252,0.583l-0.087,0.087l-0.32,0.728l-0.489,0.326l-1.142,1.713l-0.408,1.631h2.447l2.855-1.631l5.302-3.67l2.447-0.408
		l2.447,1.223l2.855,0.408l3.67-2.039l4.486-2.804v-0.051l2.039-1.223l2.447-0.816l1.631,3.262l1.223,4.078l1.631,2.039l4.078,1.631
		l5.302,0.408l2.039,0.816l3.67,2.447h2.039l1.748-2.796l1.515-4.544l1.223-4.078l0.408-0.816l0.408-1.223l0.544-0.68l0.272-0.544
		l0.453-0.363l0.362-0.453l1.515-1.136l1.748-1.923v-0.204l2.039-2.039l1.223-1.223l0.245-0.061l1.794-1.57l2.447-3.262l2.447-2.855
		l5.709-3.67l4.894-1.631h3.263l1.02,0.408h0.204l0.136,0.136l0.68,0.272l1.223,2.447l0.117,0.874l0.291,1.165l0.097,1.748
		l0.311,2.33l0.816,4.894h2.039l0.408-1.223l2.855-4.486l0.117-0.136l0.699-1.088l1.631-1.631l2.635-3.012l2.259-3.106v-6.117
		l-1.631-4.486l-0.408-4.894l0.408-2.447v-1.223l0.408-1.223l1.049-2.272l0.583-1.398l0.067-0.008l0.341-0.739v-0.068h0.031
		l0.376-0.816v-3.262l1.223-1.223l3.263-1.631h5.709l3.67,0.408l5.302,1.631l1.631,1.223l2.039,0.408l1.223-1.223l0.408-0.082
		l0.408-0.326l0.612,0.122l0.612-0.122l0.816,0.408l0.54,0.463l0.276-0.055l2.039,2.039l1.223,4.486l3.146,1.573l0.524,0.058
		l0.408,0.408l3.262,2.855l1.122,1.02l2.141,1.835l0.262,0.35l0.961,0.874l0.979,1.713l0.245,0.326l0.136,0.34l1.903,3.33
		l1.568,2.666l1.694,2.635l0.046,0.323l0.336,0.57l0.026-0.078l3.262,5.709l2.855,4.894l0.111,0.297l0.297,0.519l0.204,0.816
		l0.612,1.631l2.447,6.117l0.326,0.897l0.489,1.142l-0.065,0.026l0.88,2.421l2.447,2.855l1.631,6.117l1.223,1.631l3.67,2.447h3.262
		v4.486l1.087,2.991l1.257,2.515l2.141,3.059l0.612,0.816l2.243,2.855l0.408,1.631l-1.223,4.894v2.243l0.408,2.243l0.408,0.408
		l1.812,1.45l3.489,2.22h4.894l5.302-1.631l4.078-0.408l1.631,0.816l-0.816,2.447l-0.408,3.67v5.302l0.816,1.631l2.447-0.816
		l5.302-1.631h8.156l1.223,0.408h2.855l0.816-0.408h2.447l1.631,1.631l0.408,0.408h-0.204l0.204,0.408l1.223,2.447v4.486
		l-0.408,1.631l-1.631,2.447l-3.263,2.447l-0.408,1.631l1.631,2.447v3.67l-0.408,0.714v0.102l-1.903,3.262l-1.162,2.18l-1.462,3.802
		l-0.366,2.379v3.059l2.039,2.039l2.447,0.408l2.039-3.262l2.855-3.262l1.392-0.759l-0.169-0.056l2.447-1.223l3.67-2.039l0.35-0.116
		l1.282-0.699l1.06-0.326l0.979-0.489l2.202-0.489l1.06-0.326l0.192,0.048l0.216-0.048l1.223,0.408l0.816,1.223v3.67l-0.408,1.495
		v0.136l-0.816,2.855v5.302l1.223,1.223v-3.67l1.223-4.894l3.262-6.525l3.263-4.078l0.125-0.063l0.282-0.345l0.952-0.272
		l1.088-0.544l0.435,0.109l0.381-0.109l0.816,0.408v2.855l-0.816,3.262l-0.408,4.486l1.223,3.67l2.447,2.039l4.486,1.631h4.078
		l1.631-0.408l3.262-1.631l3.67-3.262h2.039l0.816,0.816v2.447l-0.816,2.447l-2.447,3.67l-3.67,3.262l-5.709,2.855v2.039
		l3.262,2.447l2.447,0.408l1.223-0.816l1.631-1.631l0.408-0.408l0.816-1.223l0.245,0.163l0.163-0.163l0.816,0.816l-1.223,2.447
		l-3.723,2.606l-0.355,1.064v1.631l1.223,3.67v7.341l-0.408,0.408v0.408l-0.816,0.408h-2.447l-0.699-0.35l-0.524-0.058l-1.631-1.02
		l-1.223-0.612l-3.262-2.651l-2.855-2.243l-0.216-0.252l-0.192-0.156l-0.408-0.544l-1.631-1.903l-1.835-1.835l-1.427-1.02
		l-1.631-1.223l-1.631-1.223l-2.447-3.262l-1.563-3.127l-0.068,0.272l-1.038-2.336l-1.001-1.335l-0.816,2.855l0.408,2.039
		l-0.109,0.652l0.109,0.979l-0.816,2.039v8.564l5.709-0.816l0.408,0.408l0.408,2.039l-0.408,0.255v0.153l-2.855,1.631l-2.039,2.039
		l1.223,6.117v9.787l-0.408,2.039h-0.136l-0.272,1.02v0.612l-0.816,2.447v8.972l0.816,3.67l2.855,10.603l2.855,8.564l2.039,1.223
		l1.468,1.223h0.163l0.816,0.816l0.019,0.074l0.389,0.334l-0.136,0.68l0.136,0.544l-0.394,0.984l0.368,4.419l0.142,0.947
		l1.243,6.836l1.088,4.35l0.306,1.529l0.102,0.102l1.223,5.709l2.039,2.447l-1.223,2.447l-1.631,4.078v3.262l5.709,2.855
		l2.719,1.631h1.359v1.631l-0.204,0.204l-0.204,1.02l-3.262,4.078l-2.855,4.894l-2.447,6.525l-2.855,8.326v0.238l-2.175,6.162
		l-2.311,7.703l-1.631,4.078l-0.193,0.3l-0.215,0.515l-0.408,0.612v0.204l-2.855,4.078l-0.306,0.459l-0.102,0.357l-1.223,1.631
		l-4.894,4.894l-4.078,3.67l-2.447,1.923v0.117l-1.631,1.165l-1.51,1.186l-1.957,2.134l-1.835,2.039l-0.109,0.082l-0.299,0.326
		l-0.408,0.204l-2.447,1.835l-7.341,2.039l-6.933,2.855l-4.894,1.631l-4.894,2.447l-1.223,0.204v0.204l-3.997,0.571l-4.567,2.284
		l-4.078,3.67l-2.855,3.262l-4.078,3.67l-3.806,3.262l-2.719,2.447l-1.305,1.142l-3.181,2.936l-0.222,0.111l-3.856,3.559
		l-0.612,0.272l-0.612,0.408v0.136l-2.039,1.223l-7.341,1.631l-6.117,2.039l-1.223,0.408l-3.67,1.223l-1.223,0.408l-7.162,0.398
		l-2.375,1.484l-1.882,3.012l-0.816,6.117l-1.631,2.447l-3.262,7.341l-0.816,4.894l-0.408,10.195l-0.816,1.631l-0.816,1.631v4.894
		v0.816l-0.408,0.816l-0.408,0.408l-0.816,1.223l-1.631,3.263l-1.223,6.525l-2.855,3.67l-3.262,5.302l-0.233,0.291l-0.583,0.932
		l-1.359,1.495l-1.087,1.359l-0.816,0.734l-0.816,0.897l-1.427,1.121l-1.02,0.918h-0.148l-3.114,2.447l-5.302,4.078l-2.855,4.486
		l-3.67,7.341l-0.334,0.334l-0.89,1.705l-2.447,2.855l-6.933,4.486l-3.67,2.447l-1.223,0.816l-3.67,3.262l-0.816,0.816l-0.816,0.408
		l-3.262,1.631l-0.816,1.631l-0.408,4.486l-0.816,2.447h-0.074l-0.741,2.039l-2.039,2.447l-4.486,3.67l-4.486,4.486l-1.133,2.266
		l0.317,2.22v0.816v2.447v0.816l-0.408,0.816v4.486v0.816L494,643.054l-3.262,3.67l-6.525,2.447l-0.79,0.304l-0.026,0.104
		l-4.486,1.631l-4.894,0.816l-6.933,2.447l-0.163-0.041l-2.284,0.856l-10.603,4.486l-8.874,3.393l-6.182,2.603l-3.703,2.16
		l-3.67,2.447l-8.564,6.525l-4.078,2.855l-4.486,3.262l-4.486,3.67l-4.894,4.894l-0.408,0.204v0.204l-1.223,0.408v0.816
		l-0.816,0.408l-5.709,5.709l-2.855,3.059l-2.447,2.651l-2.243,2.651l-1.835,2.243l-1.835,2.039l-1.427,1.631l-0.011-0.033
		l-0.397,0.441l-2.855,3.67l-0.255,1.274l2.294,0.765v0.816l0.408,0.408l-0.408,0.612v0.204l-0.227,0.136l-0.181,0.272l-0.466,0.117
		l-1.165,0.699l-8.564,4.078l-2.855,3.67l-1.631,3.263l-2.447,6.117l-0.408,0.816v0.408l-2.039,3.67l-3.262,4.486l-3.67,2.447
		l-6.117,1.631h-7.341h-2.039l-0.408-1.631l1.631-3.262l5.302-0.408l0.816-0.408l0.367-1.835l-0.095-0.476l-0.68-1.359l-0.408-0.816
		v-2.855l0.816-1.223l1.02-0.612l0.204-0.204h0.136l0.68-0.408h3.262l4.078-2.447l0.816-2.855h-2.447l-2.447,0.816l-3.67,2.039
		h-2.447l-0.408-0.408l-0.816-4.486l-2.039-1.631l-2.855,0.408l-1.223,1.529l-1.359,1.869l-1.903,2.719l-2.855,2.855l-2.039,0.816
		l-1.631,2.447l-2.039,2.039l-5.302,2.855l-5.302,3.263l-2.447-0.408l-4.486-0.816l-1.631-1.223l-0.153-0.204l-0.255-0.204
		l-0.204-0.408l-1.835-2.447v-7.748l2.447-2.855l1.631-3.67l0.816-3.67l0.816-2.447l2.039-4.486v-2.855l-2.447-11.419l-0.816-6.117
		l-0.816-2.039l0.408-8.156l2.855-5.709v-4.486l-0.816-1.631l-1.223-3.67h-2.447l-1.631,1.223l-6.117,3.67l-4.894,4.078h-5.302
		l-0.408,1.223l-2.855,4.894l-2.855,3.262l-2.447,3.67l-3.262,2.447l-5.302,6.933l-6.117,6.525l-3.67,4.078l-3.262,6.117
		l-2.447,2.855l-2.447,4.894l-2.855,1.223l-5.302,5.302l-0.408,0.408h-0.175l-3.495,2.447l-2.093,0.761l0.054,0.054l-2.447,0.816
		l-2.855,0.408l-1.563-0.782l-3.738,0.374l-2.447,0.816l0.816-2.447l2.553-0.957l1.117-1.489l4.078-5.302l3.262-4.894l4.078-5.302
		v-2.447h-1.631l-2.447,1.631l-3.262,2.855l-5.302,4.078l-4.894,2.855l-4.078,0.816l-1.631,0.816l-3.262,2.855l-4.078,2.039
		l-3.262,2.855l-3.67,1.223l-1.223,0.816l-2.039,2.447l-0.952,1.088l-1.495,1.767l-0.065,0.016l-0.343,0.391l-0.779-0.111
		l-0.445,0.111l-0.204-0.204l-1.427-0.204l-2.039,1.631l-3.262,2.039l-2.039,0.408v-0.816l1.631-1.631l3.262-3.262l2.447-2.039
		l0.408-1.223l-2.447-0.816l0.163-0.326l-0.163-0.082l0.357-0.306l0.051-0.102l0.227-0.136l2.22-1.903l0.408-2.039h-0.816
		l-4.486,1.631h-2.447l0.408-0.816v-2.039l-2.447-0.816l-0.816-0.816h-2.855l-1.495,0.68l-0.136,0.136l-0.258,0.043l-2.597,1.181
		l-0.932-0.117l-0.699,0.117l-0.326-0.245l-1.305-0.163l-3.67,1.631l-4.899,2.034l0.005,0.005l-16.72,6.933L149,746.618
		l-0.006,0.019l-6.525,2.855l-3.262,2.447h-2.447l-0.408-0.816v-2.447l0.408-0.816l2.039-0.816l0.408-0.816h-0.816v-4.486
		l-1.631-1.223l-0.816-1.631l2.039-2.039l5.302-0.816l3.67-2.447l9.38-9.38l1.223-2.447l2.855-0.408l3.67-2.447l1.223-2.447
		l4.078-2.855l1.631-0.816l0.408-1.223l4.078-7.341v-4.486l-0.816-0.816l-4.486-3.67l-3.262-2.039v-2.039l0.371-0.556l0.037-0.26
		h0.136l0.272-0.408l2.447,0.408l4.078-0.816h3.67l0.816,1.631l0.408,0.816l2.039,0.408l0.816-0.816v-2.039l-1.223-1.631
		l-0.408-0.952l-0.408-0.68l-0.058-0.408l-0.35-0.816v-1.631l-0.408-2.447l0.037-0.111l-0.445-1.112v-3.263l0.408-2.039l1.631-3.67
		l0.34-0.272l0.068-0.136l0.612-0.408l1.02-0.816l0.26-0.037l0.556-0.371h5.302l2.447,0.816l2.796,0.699l0.591-0.197l0.69-1.725
		v-5.709v-4.078l0.408-3.67l0.408-1.427v-0.612l0.216-0.144l0.192-0.672l1.223-1.223l2.447-3.262l3.67-3.67l1.631-1.631l0.408-0.408
		l0.408-0.408l1.912-0.255l0.535-0.153l4.404-0.734l0.934-0.415l1.969-1.477l0.033-0.228l0.544-0.272l1.088-0.952l3.67-2.039
		l3.67-3.67l2.284-2.936l1.794-3.589l0.102-0.127l0.306-0.688l0.397-1.985l-0.125-0.054h-1.903l-0.816,2.039l-1.223,0.408
		l-1.223-1.631v-2.447h-6.525l-3.262-1.223l-1.223,0.408l-0.816,1.631l-2.855,7.341l-2.039,2.447h-2.039l-0.408-0.408l-2.039-1.223
		l-2.039,0.408l-2.855,2.039l-2.855,2.855l-3.25,0.361l-0.013,0.047l-0.041-0.041l-0.367,0.041l-0.408-0.816v-3.67l0.408-0.816
		l0.168-0.048l0.24-0.36h1.02l1.427-0.408l2.447-3.262l1.223-2.447l-0.408-1.223l-0.816-1.631l1.223-2.447l0.816-2.447h-3.262
		l-2.855,1.223l-0.816,0.816l-4.486,4.486l-1.631,1.631l-1.335,1.038l-1.112,1.001l-0.36,0.144l-0.864,0.672l-4.894,1.223
		l-1.223,1.223l0.408,2.447l1.223,1.223v2.447l-0.816,0.816l-2.447,1.223l-1.631,2.855l-2.855,0.408l-5.302,3.263h-3.67
		l-2.039-1.223h-2.855l-2.855,2.039l-6.933,3.67l-2.039,0.816v0.816l-1.223,1.223l-2.039,0.408l-1.631-1.223l-0.816-2.855h-2.855
		l-2.039-0.408l0.408-3.262l0.266-0.443l0.142-0.78l0.652-0.544l0.163-0.272l0.408-0.204l1.223-1.02l4.486-0.408l2.039-2.039
		l3.67-2.447l4.486-4.894l1.631-0.816v-0.816l4.078-4.486l5.302-6.525l3.67-4.486l2.855-4.078l2.447-3.262l4.078-5.709l0.408-2.447
		l-2.855-1.631l-0.408-1.631l1.631-2.039l-0.408-2.855l1.631-1.223l0.291-0.058l0.524-0.35l1.223-0.816h2.855l1.223,0.408
		l1.631-0.408l1.657-1.325l0.246-0.986l-0.214-1.068l-1.282-1.923l-3.67-2.039l-0.408-1.223l1.223-1.631l2.855-3.67v-4.894h-2.039
		l-0.408-1.223l2.039-2.855l1.631-6.525l-0.408-1.223h-3.67l-1.223,0.408l-4.078,2.855l-0.107,0.043l-1.116,0.773l-6.117,6.117
		l-2.855-0.408l-2.447,0.816l-4.078,3.262l-4.486,5.302l-2.855,3.67l-4.894,5.302l-2.447,0.408l-0.816-0.816v-2.447l1.223-2.039
		l-0.408-2.039l-2.039-2.855l-0.408-2.855l1.223-2.855l1.223-4.078l1.631-2.447l1.631-4.078l3.326-4.805l0.208-1.041l-0.231-0.924
		l-0.313-0.208l-2.175-0.363l-4.078,2.855l-2.855,0.408l-0.408-0.816l1.223-2.855v-4.486h-2.039l-3.262,2.855l-3.262,4.078
		l-2.447,1.223l-2.447,2.039l-4.078,3.263l-2.447,0.816l-2.447-0.408l-1.631-1.223l-5.302,0.408l-1.631-1.223h-3.262l-10.195,2.039
		l-2.039,0.408l-1.223,0.816l-2.447,0.408v-1.631l6.117-12.234L102.911,541.51z M368.172,724.912l0.251-0.465l0.38-2.278
		l-0.408-4.894l0.816-0.816l2.447-0.816l0.408-0.408l0.245-0.326l-1.468,0.734l2.447-3.262l0.816-3.262l2.447,1.631l2.039-0.408
		l2.3-3.067l-0.261-1.827l-0.408-3.67l-1.631,0.272v0.136l-0.816,0.408l-2.039,1.631l-2.855,3.262l-3.67,3.263l-2.447,4.078
		l-4.486,7.748l-1.631,5.709v2.855l2.447-0.408l2.447-2.039l1.631-2.447L368.172,724.912z M120.039,416.312l3.262-2.855l0.408-2.039
		l-0.583-0.485l-0.233,0.078l-1.631-1.223L118,407.748l-2.039,0.816l-2.33,4.661l0.291,1.456l2.039,2.039h3.262L120.039,416.312z
		 M374.92,652.434l1.631-0.816l2.855-2.039l3.262-2.447h0.408l2.447-1.223l2.039-1.631v-2.447l-1.223-2.039l0.144-0.072l-0.96-1.151
		h-1.631l-4.486,3.262l-2.447,2.447l-3.059,4.078l-0.775,1.55l-0.652,2.936L374.92,652.434z M402.651,659.366l0.408-2.855h-2.447
		l-1.223,0.816l-1.631,2.039v2.039l0.816,0.408h2.447v-0.816L402.651,659.366z M406.729,645.501v-1.631l-0.408-0.408h-1.223
		l-2.447,1.223l-0.816,1.631v2.447h2.039l2.039-2.039L406.729,645.501z M410.689,658.515l0.05-0.032l-0.34,0.068L410.689,658.515z
		 M408.279,660.508l-0.326-0.326l0.734-0.489l-0.734-0.734l2.039-1.223l4.302-2.737l-0.201-1.205l-1.654-1.418v0.058h-1.223
		l-1.631,2.447l-1.359,0.544l-1.087,1.088l-0.408,0.816l-0.136-0.272l-0.272,0.272l-0.281,0.337l0.281,0.07l-4.078,4.078v2.039
		l2.447,0.408l0.816-0.408l0.816-2.039l1.223-1.223l0.445,0.111L408.279,660.508z M362.685,633.267l1.223-2.039l-0.408-1.631
		l-2.447-0.816h-0.408l-1.223,1.631v2.447l0.408,0.816L362.685,633.267z M690.054,252.067l0.102-0.51l0.367-0.122l-0.041-0.122
		l-0.326-0.163l-0.408,0.612v0.612L690.054,252.067z"/>
	<polygon points="729.306,242.178 731.481,238.644 733.792,234.022 734.684,231.881 734.607,231.575 735.831,229.128 
		738.277,227.089 749.288,220.972 755.405,218.525 759.891,218.117 760.299,218.525 760.707,220.564 759.076,223.011 
		755.405,226.273 752.959,229.536 749.288,237.692 749.696,242.994 748.473,245.033 743.987,246.664 743.375,246.732 
		739.909,247.887 733.384,250.334 730.749,251.84 728.49,253.597 726.859,254.412 727.674,251.558 	"/>
	<polygon points="68.655,505.622 69.063,501.952 71.51,497.059 73.957,488.902 75.588,486.455 79.666,484.009 82.358,482.541 
		82.929,481.97 83.526,481.903 84.152,481.562 91.493,481.562 91.9,481.97 91.9,484.416 89.454,492.165 87.822,496.243 
		87.822,501.137 87.007,502.768 84.968,503.991 80.074,506.03 76.378,508.063 76.404,508.069 71.918,510.516 68.247,515.002 
		67.84,513.371 68.655,510.108 	"/>
	<polygon points="269.705,168.772 266.85,172.443 264.811,173.666 262.365,174.319 262.365,174.482 258.694,175.297 
		257.063,176.929 254.208,176.521 249.315,178.968 247.683,179.375 248.499,177.744 250.701,175.909 251.035,175.492 
		252.985,170.811 253.393,167.141 256.247,163.471 257.063,163.063 261.141,161.024 264.404,160.208 271.744,160.208 
		273.783,161.024 274.191,163.063 272.968,164.694 	"/>
	<polygon points="325.575,160.616 323.944,161.389 323.944,161.432 320.681,163.063 319.235,163.619 317.827,164.286 
		316.894,164.52 315.38,165.102 314.972,165 314.564,165.102 314.156,164.796 313.748,164.694 313.585,164.368 312.933,163.879 
		307.223,163.879 306,162.655 305.592,161.024 306.408,159.393 307.981,158.344 308.039,158.169 308.243,158.169 308.855,157.762 
		312.525,157.762 313.748,158.577 314.564,160.616 316.603,160.616 322.312,158.169 323.859,157.888 323.944,157.762 
		326.798,157.354 327.614,158.577 325.983,160.208 	"/>
	<polygon points="124.117,652.434 124.117,649.987 124.231,649.194 124.117,647.948 124.488,647.392 124.525,647.132 
		124.824,646.888 124.933,646.724 125.166,646.608 129.011,643.462 129.903,643.283 129.827,643.054 131.05,643.054 133.089,647.54 
		129.898,651.441 129.827,651.618 129.701,651.681 129.419,652.026 127.788,656.512 126.564,657.327 126.386,657.353 
		123.71,658.959 121.263,658.959 121.263,656.104 122.894,654.473 	"/>
	<polygon points="110.66,342.091 107.805,342.499 104.542,340.46 104.135,338.013 104.95,336.382 107.397,334.343 110.252,333.527 
		112.291,333.935 113.514,335.158 113.922,338.013 113.106,340.052 	"/>
	<polygon points="104.135,607.983 108.213,604.72 109.436,601.458 110.66,601.458 111.067,602.273 111.883,607.983 109.028,609.614 
		102.911,611.653 101.28,613.284 99.649,612.876 99.649,611.245 102.976,609.914 	"/>
	<polygon points="239.119,181.007 235.449,181.822 233.818,181.414 233.492,181.088 232.187,180.599 230.148,179.375 
		230.555,177.744 233.002,175.705 236.673,175.297 237.896,175.705 239.119,177.336 239.379,179.412 239.527,178.968 
		239.402,179.595 239.527,180.599 	"/>
	<polygon points="259.51,214.039 261.141,215.263 261.141,218.117 260.733,218.933 258.694,220.564 256.247,220.564 
		255.432,220.156 253.393,218.117 253.801,216.078 257.063,214.039 	"/>
	<polygon points="434.897,80.22 434.868,80.278 434.86,80.254 433.644,81.376 433.644,81.501 429.974,84.764 427.935,84.764 
		427.935,83.133 428.261,82.154 428.343,81.501 428.506,81.42 428.751,80.686 430.79,78.647 434.052,75.792 436.499,74.569 
		436.907,76.2 435.275,79.87 	"/>
	<polygon points="225.662,743.783 227.293,742.967 226.07,745.822 224.03,750.308 223.239,751.363 223.215,751.531 222.399,752.347 
		221.991,752.347 221.176,752.755 220.972,752.347 220.768,752.347 220.768,751.939 219.952,748.269 222.399,746.23 	"/>
	<polygon points="278.677,138.595 277.453,137.779 277.29,137.371 277.046,137.371 276.638,135.74 277.861,133.701 280.716,132.885 
		282.755,134.109 282.755,136.963 281.532,138.187 	"/>
	<polygon points="148.178,716.867 148.178,715.236 151.033,715.236 151.848,715.644 155.519,718.091 156.742,720.13 
		155.029,720.375 151.441,721.353 150.625,720.946 151.033,718.091 150.217,718.091 	"/>
	<polygon points="421.002,57.848 421.41,58.256 421.41,60.295 421.055,60.738 421.002,61.111 419.08,63.208 418.147,64.373 
		415.293,67.228 414.069,68.146 414.069,68.451 412.971,69.11 409.583,72.122 409.176,72.529 408.224,72.937 407.544,73.345 
		404.282,74.976 402.651,74.976 403.059,73.345 403.059,69.267 403.874,66.412 407.137,63.15 408.078,61.581 408.36,59.887 
		407.137,57.441 407.137,54.994 407.544,54.586 409.583,53.362 413.254,53.362 415.293,53.362 416.516,54.178 416.924,57.848 
		418.555,57.848 	"/>
	<polygon points="157.558,708.711 156.742,707.896 156.334,705.449 157.15,704.633 161.636,704.633 162.044,706.672 
		160.412,708.711 	"/>
	<polygon points="128.195,464.434 129.011,466.473 127.788,468.104 124.933,468.512 124.117,467.696 124.117,465.249 
		124.933,463.618 127.38,463.618 	"/>
	<polygon points="220.36,740.928 221.991,742.559 221.991,744.599 221.176,745.414 219.137,745.822 217.506,744.191 
		217.506,742.152 218.321,741.336 	"/>
	<polygon points="397.757,52.955 396.534,51.731 396.534,49.692 398.573,47.245 401.02,46.43 403.059,48.469 403.466,51.323 
		402.243,52.955 	"/>
	<polygon points="378.59,90.473 378.182,90.065 378.182,88.026 379.406,86.803 382.26,86.803 382.668,87.211 383.076,88.842 
		381.037,90.473 	"/>
	<polygon points="41.332,528.052 41.536,528.052 42.556,526.013 44.187,525.605 47.041,526.829 49.08,527.236 52.343,526.013 
		54.965,524.556 56.466,523.43 58.052,521.527 61.315,519.896 63.762,518.265 64.169,518.672 63.762,521.119 61.315,523.974 
		58.868,527.236 55.605,530.091 53.159,533.354 50.712,534.053 50.712,534.169 49.733,534.332 48.02,534.822 46.226,536.616 
		45.993,536.732 45.41,537.432 44.595,537.432 42.963,537.432 42.556,536.616 39.293,535.393 38.885,534.577 39.293,533.354 	"/>
	<polygon points="417.74,51.323 418.147,48.061 419.779,48.061 423.041,48.469 423.041,49.692 420.594,51.323 	"/>
	<polygon points="124.117,586.369 124.525,584.737 126.972,584.33 127.788,584.737 128.195,586.776 127.38,588 124.933,588 	"/>
	<polygon points="658.347,90.473 657.939,88.434 658.755,87.211 660.794,86.803 661.609,87.211 662.425,88.842 660.386,90.065 	"/>
	<polygon points="483.842,138.298 483.805,138.595 483.578,138.957 483.397,139.41 483.125,139.682 482.292,141.015 
		482.173,141.449 481.96,141.546 481.766,141.857 476.872,144.304 474.017,144.304 472.386,143.08 472.794,139.41 474.425,136.963 
		478.095,134.109 481.766,132.885 482.989,133.293 483.805,134.516 483.83,134.695 484.213,135.332 484.077,136.42 484.213,137.371 
			"/>
	<polygon points="71.51,447.714 71.51,446.082 73.957,442.412 75.588,442.412 75.588,444.043 73.141,447.306 	"/>
	<polygon points="660.386,99.445 655.492,104.339 654.269,105.562 651.006,108.009 648.56,110.864 644.074,112.903 642.442,113.31 
		642.442,106.378 643.666,104.339 646.113,102.3 647.744,99.853 647.744,94.551 648.152,93.736 651.414,92.104 655.084,92.104 
		656.308,93.328 656.716,96.182 660.794,96.998 	"/>
	<polygon points="131.458,577.397 131.866,576.173 133.905,574.542 135.944,574.134 135.944,575.766 134.313,577.805 
		131.866,577.805 	"/>
	<polygon points="281.124,165.918 281.124,167.141 279.085,168.772 277.453,168.365 278.269,166.326 280.308,165.51 	"/>
	<polygon points="135.128,669.969 135.128,672.008 134.313,672.824 131.866,673.232 131.866,672.008 133.497,670.377 	"/>
	<polygon points="92.716,477.484 93.939,476.26 97.61,474.629 101.688,474.629 102.503,475.852 101.688,478.299 100.923,479.064 
		100.872,479.523 99.649,480.338 97.202,481.97 93.939,481.97 92.308,480.746 92.308,478.299 92.81,477.672 	"/>
	<polygon points="114.738,596.156 115.146,596.564 114.738,599.826 113.106,600.234 113.106,597.38 113.514,596.564 	"/>
	<polygon points="633.878,87.211 633.964,87.189 634.286,86.803 638.772,86.395 639.995,87.211 642.442,87.211 644.889,87.618 
		644.983,88.277 645.297,88.434 645.297,90.473 644.481,92.92 641.627,95.367 638.364,95.367 637.956,94.959 637.935,94.852 
		636.325,92.92 632.247,93.328 631.839,92.92 631.839,90.065 632.247,89.25 632.757,88.638 632.655,88.434 	"/>
	<polygon points="159.189,700.147 158.781,700.229 158.781,700.555 157.15,700.555 154.295,697.7 151.848,696.477 151.033,694.846 
		151.033,692.399 151.033,691.583 152.664,689.952 155.519,689.952 158.781,690.768 163.267,693.215 163.675,694.438 
		162.859,695.476 162.859,695.661 	"/>
	<polygon points="620.319,128.833 620.013,129.215 617.158,129.215 617.158,126.768 617.974,125.952 621.236,125.952 
		621.644,127.176 620.421,128.807 	"/>
	<polygon points="36.438,509.701 36.71,509.565 38.07,508.477 41.74,508.069 42.148,506.846 43.779,506.438 47.449,508.477 
		51.527,509.701 54.79,509.293 56.829,508.069 62.13,502.36 63.762,501.952 64.985,503.176 64.985,506.438 64.577,508.069 
		62.538,511.74 60.499,513.779 57.644,514.594 57.644,515.41 55.605,518.672 53.159,520.304 49.488,520.304 45.818,517.857 
		42.148,516.633 42.556,515.002 42.148,511.332 39.701,511.332 37.662,512.555 36.031,512.147 36.031,510.108 	"/>
	<polygon points="643.639,75.739 642.85,76.608 638.364,79.054 634.694,81.501 631.432,81.501 630.616,80.686 631.024,78.647 
		631.315,78.355 631.839,76.608 632.206,76.363 632.247,76.2 633.471,75.52 634.286,74.976 638.772,72.529 640.539,71.85 
		641.627,71.306 642.399,71.134 644.074,70.49 646.928,70.49 646.928,72.122 643.666,75.792 	"/>
	<polygon points="62.13,531.722 60.499,531.722 60.091,529.683 61.723,529.275 	"/>
	<polygon points="129.827,472.59 129.419,471.367 131.05,470.551 131.458,472.182 	"/>
	<polygon points="310.894,146.751 312.525,146.343 312.525,147.566 310.486,148.382 	"/>
	<polygon points="763.969,231.983 761.93,232.391 761.93,231.167 763.562,230.759 	"/>
	<polygon points="365.54,112.903 367.171,112.495 367.171,114.126 365.54,114.126 	"/>
	<polygon points="180.803,640.199 179.172,640.607 179.579,638.976 180.803,638.976 	"/>
	<polygon points="78.443,541.51 76.811,542.325 76.811,541.102 78.443,540.694 	"/>
	<polygon points="693.826,309.466 694.642,309.466 694.642,311.098 693.418,311.098 	"/>
	<polygon points="133.089,580.252 133.905,579.844 134.313,581.475 133.497,581.883 	"/>
	<polygon points="90.677,422.429 92.308,421.206 92.308,422.022 91.085,423.245 	"/>
	<polygon points="47.449,538.247 46.634,539.063 46.226,537.839 47.041,537.839 	"/>
	<polygon points="376.551,123.506 376.551,123.913 375.328,123.913 	"/>
</g>
</svg>
