<?xml version="1.0" encoding="utf-8"?>
<!-- Generator: Adobe Illustrator 27.5.0, SVG Export Plug-In . SVG Version: 6.00 Build 0)  -->
<svg version="1.1" id="Layer_1" xmlns="http://www.w3.org/2000/svg" xmlns:xlink="http://www.w3.org/1999/xlink" x="0px" y="0px"
	 viewBox="0 0 800 800" style="enable-background:new 0 0 800 800;" xml:space="preserve">
<g>
	<polygon points="503.789,635.752 501.38,636.233 499.454,634.307 499.936,629.491 497.528,627.564 495.119,625.156 
		495.119,621.785 496.083,615.042 496.564,614.561 496.564,614.079 498.009,613.116 503.789,611.671 506.197,609.744 
		508.605,609.744 509.086,610.226 509.086,610.226 509.568,610.708 510.05,614.079 511.013,614.561 512.458,614.079 
		516.311,614.079 518.237,616.969 518.208,617.115 518.719,617.932 518.237,619.858 512.458,619.858 513.395,631.569 
		514.384,631.899 514.577,632.284 514.866,632.38 514.866,632.862 515.347,633.825 514.866,633.922 514.866,634.307 
		513.742,634.146 512.939,634.307 512.618,633.986 511.494,633.825 509.086,631.417 506.678,630.936 	"/>
	<polygon points="588.072,577.476 589.998,575.55 591.925,575.55 592.008,575.885 592.888,576.031 594.814,575.55 597.704,575.55 
		603.002,580.847 608.3,584.219 608.781,586.627 607.818,587.59 606.855,587.831 606.855,588.072 603.965,588.553 602.52,589.998 
		602.039,596.259 601.075,599.63 599.149,600.594 597.704,599.63 595.778,596.741 593.369,594.333 592.406,597.222 591.443,598.186 
		591.224,598.054 590.961,598.186 589.035,596.741 589.035,594.333 589.998,592.888 590.48,589.998 589.516,589.516 
		586.076,587.108 585.664,587.108 584.7,586.145 584.219,584.219 587.59,581.329 	"/>
	<polygon points="661.759,525.943 663.204,524.705 663.204,524.498 664.167,523.535 664.569,523.535 665.13,523.053 
		668.502,523.053 673.799,524.016 675.244,524.98 679.218,526.425 679.579,526.425 680.542,526.906 682.95,531.241 683.432,533.649 
		682.469,534.612 682.469,534.612 681.987,535.094 681.368,535.197 679.579,536.539 679.097,538.465 678.616,540.873 
		678.616,542.318 678.134,543.281 675.726,544.244 675.244,546.171 672.836,546.653 669.947,545.208 667.057,545.497 
		667.057,545.689 665.13,545.689 664.167,545.208 661.978,543.237 660.796,542.318 660.314,541.74 659.351,540.873 659.301,540.524 
		658.388,539.428 658.388,529.314 660.796,528.351 	"/>
	<polygon points="636.875,656.996 637.197,656.461 637.678,656.461 640.568,654.535 641.892,653.873 642.013,653.572 
		644.421,652.608 647.792,652.608 649.237,652.608 650.2,653.09 651.645,655.498 651.645,658.869 651.966,659.351 652.127,659.351 
		652.608,660.314 652.608,663.204 652.127,663.686 651.702,663.771 651.645,664.167 649.719,664.167 646.347,662.722 
		646.347,663.686 644.421,666.094 641.531,666.094 639.605,664.167 636.715,663.204 635.752,662.241 635.752,658.869 
		636.233,657.425 	"/>
	<polygon points="612.152,667.539 613.597,666.575 616.969,666.575 623.711,668.983 625.638,670.428 626.119,672.836 
		623.23,675.244 621.785,678.134 619.858,680.542 616.969,680.542 613.116,679.579 610.708,677.652 609.744,671.391 
		610.708,670.428 	"/>
	<polygon points="664.167,367.491 661.759,365.564 659.833,361.711 659.833,358.34 660.314,356.895 662.241,354.006 
		666.094,352.079 669.465,352.561 671.391,354.487 672.836,357.377 672.836,360.748 671.391,364.12 667.539,367.009 	"/>
	<polygon points="629.972,274.539 627.083,276.465 623.711,276.465 621.303,274.539 619.858,271.649 619.858,268.278 
		620.822,266.351 623.23,264.425 626.601,264.425 629.972,267.314 631.417,271.649 	"/>
	<polygon points="643.458,104.528 639.605,106.454 638.641,106.936 636.233,107.417 634.307,106.454 631.417,106.454 
		631.417,107.417 629.972,108.862 624.675,108.862 623.711,108.381 623.711,105.973 626.119,101.156 626.601,97.785 625.638,95.377 
		626.119,93.932 626.395,93.863 626.601,93.45 630.936,93.45 631.899,92.006 631.936,92.117 632.38,91.524 632.38,91.042 
		633.344,90.079 633.456,90.09 633.825,89.598 637.678,89.598 637.678,88.153 638.641,85.745 642.494,85.745 643.458,84.3 
		645.866,83.818 647.311,85.263 647.311,87.671 645.384,90.561 644.902,93.45 645.866,95.377 647.311,95.859 647.792,98.267 
		645.866,101.638 	"/>
	<polygon points="604.928,556.285 601.557,556.285 599.63,555.322 598.186,552.914 598.667,548.097 601.557,545.689 
		605.891,545.689 606.855,546.171 608.781,548.097 609.263,551.469 607.818,554.358 	"/>
	<polygon points="490.303,124.756 485.969,124.756 485.005,124.274 483.079,122.348 483.079,118.976 484.524,116.568 
		486.065,115.605 486.45,115.123 488.377,114.16 491.267,114.16 491.748,114.642 492.711,117.531 492.711,121.384 492.23,122.829 	
		"/>
	<polygon points="573.141,578.439 577.476,578.439 579.403,579.884 579.403,585.664 576.994,588.553 573.623,588.553 
		572.66,588.072 569.77,584.7 569.77,581.811 570.733,579.884 	"/>
	<polygon points="645.866,487.414 642.494,487.414 642.494,485.969 644.421,483.561 649.237,481.634 655.498,481.634 
		656.943,483.079 656.461,485.969 653.09,488.377 648.755,488.858 	"/>
	<polygon points="597.704,102.12 595.296,102.12 594.333,101.638 593.851,98.748 595.778,93.45 597.704,91.042 601.075,90.561 
		602.039,91.524 602.039,95.377 600.112,99.23 	"/>
	<polygon points="574.105,562.546 574.105,559.175 574.586,558.211 576.513,556.285 579.884,556.285 580.847,556.766 
		583.255,558.693 583.255,561.583 582.292,563.028 579.884,564.954 576.513,564.954 	"/>
	<polygon points="673.318,188.329 670.91,192.182 668.983,193.145 666.094,189.292 665.612,186.403 668.502,183.031 
		669.856,181.948 669.947,181.586 670.91,181.105 672.836,181.586 673.064,181.967 673.318,182.068 673.318,182.389 
		674.281,183.995 	"/>
	<polygon points="604.447,558.211 606.855,560.138 607.336,563.509 606.373,565.436 603.965,567.362 601.075,567.362 
		600.112,566.88 598.667,564.472 599.149,561.101 601.557,558.693 	"/>
	<polygon points="671.391,206.631 666.575,208.075 663.204,207.112 660.796,204.704 660.796,201.333 661.759,199.406 
		666.094,196.517 673.799,196.517 674.281,196.998 674.281,203.741 673.799,204.704 	"/>
	<polygon points="695.376,486.354 695.472,485.969 696.436,484.765 696.917,484.042 697.049,483.998 697.399,483.561 
		701.733,480.671 704.623,480.189 706.549,481.153 707.1,481.841 707.513,482.116 707.32,482.116 708.476,483.561 708.958,486.45 
		707.994,488.377 707.741,488.478 707.513,488.858 702.697,491.748 698.844,492.23 696.436,490.303 696.339,490.143 
		695.954,489.822 695.713,489.099 694.991,487.895 695.128,487.345 694.991,486.932 	"/>
	<polygon points="173.705,181.017 173.881,181.105 171.954,182.068 168.101,182.068 166.656,180.623 167.138,176.77 
		168.583,175.325 171.954,175.325 174.844,176.289 175.325,179.178 174.362,180.623 	"/>
	<polygon points="664.649,270.686 665.13,272.612 663.686,274.057 661.277,275.02 655.016,275.502 654.535,274.539 655.016,272.131 
		657.425,270.204 661.277,269.241 	"/>
	<polygon points="689.211,476.336 687.915,475.299 687.766,475.373 686.161,474.41 685.358,474.41 681.987,474.41 681.024,471.039 
		679.097,469.112 679.031,468.647 678.616,468.149 678.788,466.945 678.616,465.741 679.017,465.339 679.097,464.778 
		679.579,464.296 679.579,463.814 681.505,462.369 682.95,462.209 682.95,461.888 685.84,461.888 687.285,462.851 689.211,466.704 
		689.693,471.039 692.101,471.039 694.027,472.002 694.991,473.928 693.546,476.336 691.138,476.818 	"/>
	<polygon points="623.23,707.031 626.119,706.55 628.046,707.994 628.046,710.402 625.638,712.811 622.266,713.292 620.822,710.884 
		621.303,708.958 	"/>
	<polygon points="471.039,671.391 469.594,670.428 469.594,667.539 470.557,666.094 472.483,665.13 475.373,665.612 
		475.855,667.057 475.373,669.465 473.928,670.91 	"/>
	<polygon points="274.539,699.807 281.281,699.807 282.245,700.77 282.726,704.141 280.318,707.031 276.947,707.994 
		273.575,707.994 270.686,707.513 268.278,705.586 268.278,703.178 270.204,701.252 	"/>
	<polygon points="451.292,694.991 448.884,694.991 446.958,693.546 447.439,690.656 450.329,689.211 452.737,689.693 
		453.219,692.101 	"/>
	<polygon points="136.796,677.171 137.278,675.244 138.241,674.281 138.722,672.355 137.518,671.391 136.796,670.91 
		136.766,670.789 136.314,670.428 135.833,668.502 136.796,668.02 141.952,668.813 143.539,668.02 145.465,667.539 147.873,669.465 
		149.8,670.428 150.763,670.91 150.763,672.836 148.355,672.836 146.428,671.391 140.649,670.91 141.612,673.8 141.612,677.652 
		138.722,679.579 135.833,680.061 134.87,679.579 134.388,678.134 134.508,678.134 134.388,677.652 	"/>
	<polygon points="518.719,676.208 520.164,677.171 520.164,679.579 517.755,680.061 516.792,679.097 511.494,678.616 
		510.531,678.134 510.531,676.689 515.347,675.726 	"/>
	<polygon points="680.061,519.682 678.134,519.2 677.749,518.911 677.171,518.719 676.636,518.077 676.208,517.755 676.168,517.515 
		674.763,515.829 670.91,513.421 669.798,512.124 668.502,511.013 668.419,510.515 668.02,510.05 668.181,509.086 668.02,508.123 
		668.355,508.039 668.502,507.16 668.181,503.307 668.02,503.307 668.133,502.74 668.02,501.38 668.983,500.417 668.983,500.417 
		669.465,499.936 669.947,499.936 672.408,498.705 672.595,497.768 671.873,495.601 672.355,493.675 674.281,493.675 
		676.208,495.601 677.928,496.289 682.469,497.046 685.84,497.528 688.248,498.009 689.211,503.307 689.693,503.789 
		692.101,504.752 693.064,506.678 691.619,508.605 691.619,512.939 691.769,514.135 692.101,514.384 692.101,516.792 
		691.138,517.274 687.526,517.675 686.201,518.117 684.395,519.2 	"/>
	<polygon points="515.829,122.829 514.384,121.384 514.866,118.976 517.274,116.568 519.2,117.05 519.682,119.939 517.755,122.348 	
		"/>
	<polygon points="512.458,583.737 512.939,581.811 515.347,578.921 517.755,579.403 517.755,582.774 516.792,584.219 513.421,584.7 
			"/>
	<polygon points="607.818,542.318 607.336,539.428 608.3,537.983 611.189,537.983 612.152,539.428 612.152,542.318 611.189,543.281 
		608.781,543.281 	"/>
	<polygon points="498.009,103.564 496.083,102.12 496.564,99.711 498.972,97.785 500.899,98.748 500.899,102.12 500.417,102.601 	
		"/>
	<polygon points="549.542,607.818 550.987,608.781 550.987,611.671 550.024,612.634 547.134,612.634 546.653,612.153 
		546.171,608.781 546.653,608.3 	"/>
	<polygon points="638.641,245.642 641.05,242.27 643.458,241.789 643.939,244.197 641.05,247.568 638.641,247.568 	"/>
	<polygon points="605.891,604.928 606.373,607.818 605.41,609.263 603.002,609.263 602.039,608.3 601.557,605.891 603.483,603.965 	
		"/>
	<polygon points="672.355,256.237 670.428,258.164 667.057,258.645 666.575,258.164 667.057,255.756 669.465,253.829 
		671.873,254.311 	"/>
	<polygon points="654.535,252.866 655.016,254.792 651.645,257.682 649.237,258.164 649.237,255.274 651.645,252.866 	"/>
	<polygon points="124.756,216.745 123.792,214.818 126.2,212.41 128.609,212.892 129.572,214.336 128.609,216.745 	"/>
	<polygon points="496.083,705.105 497.528,706.55 497.046,709.439 493.675,709.921 492.711,708.958 492.711,706.55 493.675,705.586 
			"/>
	<polygon points="690.174,493.675 688.73,495.119 686.322,495.601 682.469,494.638 682.18,494.349 681.505,494.156 681.265,493.434 
		680.542,492.711 680.542,489.822 680.987,488.71 681.024,488.377 681.12,488.377 681.505,487.414 683.914,485.487 686.803,485.487 
		688.248,486.45 688.433,486.71 688.73,486.932 688.619,486.969 690.656,489.822 	"/>
	<polygon points="590.961,542.318 589.998,541.836 588.553,540.392 589.035,536.057 590.961,533.649 594.333,533.649 
		596.741,536.057 596.741,539.428 596.259,540.392 593.851,542.318 	"/>
	<polygon points="578.439,547.616 579.403,549.542 578.439,551.469 576.513,551.95 575.55,551.469 574.586,549.061 576.513,547.134 
			"/>
	<polygon points="517.274,151.726 517.274,154.134 515.829,156.061 513.903,156.542 513.421,156.061 513.903,152.208 
		515.347,151.245 	"/>
	<polygon points="131.98,209.039 131.017,208.557 131.017,206.631 132.943,204.704 134.87,205.186 135.351,208.075 134.388,209.039 
			"/>
	<polygon points="253.347,190.256 253.829,192.664 252.866,195.072 250.939,196.035 249.976,194.59 251.421,190.256 	"/>
	<polygon points="536.057,118.495 535.094,118.013 535.094,115.123 536.057,114.16 537.983,113.678 538.947,114.642 
		538.465,117.531 	"/>
	<polygon points="712.054,464.227 712.329,463.814 713.292,463.333 716.182,461.888 720.035,461.888 721.48,462.851 
		723.888,465.741 723.888,468.63 723.406,469.594 722.924,469.915 722.443,470.557 721.672,470.75 720.516,471.52 717.627,472.002 
		713.774,470.557 711.366,468.149 711.366,465.259 711.847,464.296 	"/>
	<polygon points="391.09,747.005 390.608,748.932 388.2,748.932 384.347,747.005 383.866,745.561 389.164,746.042 	"/>
	<path d="M725.547,404.629l-0.214,0.428l-2.89,0.963l0.482,4.335l0.482,2.408l-1.926,1.445h-3.371l-7.224-1.445l-2.408,0.482
		l-1.445,2.408l-5.779,1.445l-2.064,0.619l-2.271,0.826l-0.198-0.085l-0.283,0.085l-1.445-0.482v-0.241l-1.445-0.722l-4.335,0.482
		h-11.559l-1.445,2.89v8.188l-0.963,2.408l-3.371,3.853l-0.482,3.371l-0.482,0.321v0.161l-2.408,1.445l-6.743,0.482l-3.371,2.89
		l-0.708,0.283l-0.255,0.198h-0.241l-3.612,1.445l-2.89,4.335l-3.371,1.445v2.408l2.89,3.371v4.335l-0.963,2.408l-2.408,4.816
		l-2.348,3.913l-0.06,0.421l-0.219,0.044l-0.263,0.438l-4.816,0.482l-0.963,0.963l-5.779,0.963v0.963l1.445,2.89v4.335l-0.482,0.963
		l-0.206,0.069l-0.275,0.413l-6.743,1.445h-5.779h-0.482h-4.335l-5.298-0.482l-5.779,0.963v0.963l-1.445,2.408l-0.482,0.602v0.361
		l-1.445,1.445l-3.334,0.37l-1.482,0.593l0.482,1.445l4.816,1.445l1.927,2.408l3.371,0.482l2.89,3.853l5.779,2.408l0.275,0.275
		l0.688,0.206l-0.361,0.12l0.361,0.361h0.482l0.963,1.445v2.89l-0.214,0.321l-0.268,4.013l3.371,1.927l-0.482,2.408h-2.89
		l-1.445-0.482h-3.853l-0.963,2.408l0.963,3.371l-0.963,1.926l-4.335-0.482l-1.927,0.963l-0.214-0.107l-0.268,0.107l-0.963-0.482
		v-0.241l-0.482-0.241l-0.482-4.816h-1.445l-1.926,2.89l-0.963,1.101v0.344l-2.408,2.408l-1.927,0.482v-1.926l0.482-0.482
		l0.425-0.708l-0.425-1.7l-3.371-2.89l-4.335-1.445l-0.482-0.482h-0.482V519.2l-0.482-0.482l-0.482-5.298l-1.926-2.89l-0.148-0.741
		l-0.333-0.222v-1.445l1.445-1.926l1.445-3.371l-1.445,0.482l-2.89,2.408l-0.963,4.335l-0.482,0.482l-3.853-0.482l-0.963,5.779
		l-1.445,1.445l-1.864,2.097l-0.062,0.311l-1.927,1.926l-2.89,1.445l-1.445,1.445v9.632l-0.482,1.445l-0.963,1.445l-0.482,2.408
		l1.445,0.963l1.926,2.408v5.298l-1.445,3.853l-4.335,5.779l0,0l-2.89,4.335l-3.371,3.371l-0.482,1.926l2.408,3.853l0.482,2.408
		h-2.408l-0.482-0.482l-2.102-3.853h-1.751l-1.445,3.371l-0.482,0.482l-0.963,0.963h-2.408l-3.371-2.408l-0.963-2.408l-2.408,0.963
		l-2.89,0.803l-1.927,0.642l-0.175-0.058l-1.161,0.323l-0.109,0.218l-2.408,0.482l-5.298,0.482l-5.298-2.408l-1.926,0.963
		l-1.926,4.816l-3.371,2.89l-1.325,1.084l-1.565,1.324l-0.105,0.042l-2.303,1.885l-0.482,1.926l0.963,0.963v2.89l-1.445,1.445
		l-0.456,0.076l-0.507,0.406l-1.247-0.113l-0.68,0.113l-0.092-0.183l-3.28-0.298v0.963l-1.926,1.926h-0.642l-0.803,0.482h-5.298
		l-0.963,0.482l-4.335,0.482l-0.482,5.298l-0.482,0.963l-2.408,1.927l-2.89,3.853l-6.743,1.445v0.963l0.963,0.482l1.445,1.445
		l1.926,1.926v2.408l-1.445,1.445l-0.482,0.482l-0.445,0.074l-1.31,0.786l0.31,0.103l-1.445,0.578l-1.445,0.867l-1.334,0.148
		l-0.111,0.333h-2.89l-1.926-1.445v-0.482l-0.482-0.482v-3.371l0.963-2.408l0.963-2.89l-7.224-0.963l1.445,5.298l1.926,9.632
		l1.927,6.743l0.482,0.963l-0.175,0.876l0.175,1.051l-0.459,0.367l-0.023,0.115l-0.161,0.032l-1.766,1.413l-1.445,2.023v0.385
		l-0.963,0.963l-0.963,0.214v0.268l-3.371,0.482l-1.926,3.853l-1.445,0.963l-1.927,1.926l-0.602,1.023l-1.806,3.311l-1.204,1.806
		l-1.204,2.047h-0.161l-2.248,3.371V662l0.482,3.612l0.963,2.408l0,0l1.926,4.816v4.335l-0.963,0.963l-4.335,0.482l-0.963,3.853
		l-0.245,0.175l-0.236,0.788l-2.408,1.926l-4.335,1.445l-0.963,2.408l-0.12,0.12l-0.361,0.843l-0.482,0.421v0.06l-3.371,2.89
		l-0.963,3.371l0.482,1.927h1.926l6.261-2.89l3.371-0.482l1.445,0.963l0.241,0.722l0.722,0.722l3.371,3.371v9.151l0.482,0.482
		l4.816,3.371l12.04,6.261h2.89l0.535-0.803l0.428-2.569l-0.963-2.89h0.963l2.408,1.926l2.89,0.482l9.151-1.926l1.445-6.261
		l3.371-6.743l0.111-0.259l-0.111-0.222l-1.926,1.927l-2.408,4.816l-0.963,1.445v-2.408l2.89-5.298l1.445-3.371l2.408-3.853
		l1.927-0.482l0.193,0.771l0.771-0.771l0.722,0.181l0.722-0.181l0.096,0.385l0.385,0.096l-0.161,0.803l0.161,0.642l-0.445,0.778
		l-0.037,0.185l-0.241,0.301l-1.204,2.107h-0.181l-0.301,0.482v12.04l-0.963,1.445v2.89l1.926,2.408l1.926,2.89l0.241,0.963h0.241
		l0.963,4.816v4.335l-0.482,0.963l-2.408,1.445l-2.89,0.963v0.963l-2.408,7.224l-2.89,2.408h-6.743l-3.853,0.482l-3.853,2.408
		l-2.89,0.482l-5.779-2.408l-1.445-1.445l4.335-1.445v-2.89l-1.084-1.445l-1.806-1.445l0.963-0.963l1.926-3.853v-5.298l-2.752-1.72
		l-2.498-1.362l-10.603-5.119l-0.041,0.014l-1.926-0.963l-3.371-0.482l-1.926,0.963l-7.224,0.482l-2.408,1.926l-1.926,0.482
		l-1.084-2.89h-4.214l-2.408,0.482l-3.853-1.927l-3.371,0.963h-2.408l-1.445-1.445l-0.482-3.371l-10.596-0.482l-4.335,1.445
		l-1.926,1.926l-1.445-1.445l-2.89-0.482l-2.408-0.963h-4.335l-0.482,0.963l-1.926,0.963l-2.408-4.335l-1.445-0.963l-0.161-0.642
		l-0.803-0.803l-3.853-1.445l-1.605-0.321l-1.573,0.225l-0.881,0.44l-0.66,1.101l-0.504,1.26l0.132,0.529l1.238,2.064h2.89
		l0.963,1.445l1.445,0.482l4.335,0.963l1.926,0.963l3.371,0.482l0.482,0.482l1.926-0.482l1.926-0.385v-0.096h0.482l2.408-0.482
		l4.335,2.408l0.482,0.963h1.445v-0.963l-0.963-0.482v-0.963l1.926-0.482l3.853,2.89h5.298h1.445l0.482,0.321l0.963,0.161
		l0.963,2.408h1.445l0.482,1.926l-0.963,0.963l-0.482,2.408l5.779,1.445l0.482,1.445l1.927-0.963l1.445-3.371h-0.963v-0.963
		l2.408-2.408l1.445,0.963v2.89l-1.926,3.371h-0.181l-0.301,0.482l-0.619,1.032l-0.344,1.376l-0.482,2.408l-1.926,0.482l0.22,1.979
		l0.262-0.052l-0.151,1.054l0.151,1.355l-1.445,3.853l-0.963,0.963h-2.89l-2.408-0.482l-0.032-0.128l-1.413-0.353l-2.89,0.482
		l-0.443,3.545l2.37,0.79l0.482,1.445l-0.963,0.482l-4.335,0.482l-1.605-0.642l-0.321,0.161l-0.482-0.482l-1.926-2.89l0.034-0.138
		l-0.516-0.826l0.482-4.335l-9.632-1.926l-5.298-1.926l2.408,6.261l-0.482,1.926h-3.853h-1.445l-0.963-0.482l-0.963-1.926
		l-1.032-1.032l-3.302-0.413l-1.445-1.204v0.241l-0.963-0.963l-0.12-0.181l-0.361-0.301l-0.963-1.686l-1.338-2.007l-1.311-1.124
		h-0.241l-1.445-1.445l-0.482-2.408l-0.482-5.298h-5.779l-2.89-1.926l0.044-0.044l-2.809-1.945l-0.124,0.062l-0.482-0.482
		l-2.408-2.408l-0.963-3.371l-2.408-0.482l0.039-0.195l-1.002-0.286l-2.408-2.408l-1.445-1.445l-1.926-2.89l2.408-0.482
		l-0.482-2.408l-4.816-0.963l-1.926-1.445l-1.926-2.408l-1.926-2.408l-0.482-1.927l0.963-0.482l5.298-0.482l-0.482-0.963h-1.926
		l0.086-0.115l-5.866-0.367l-2.408-2.89l-0.222-0.556l-0.259,0.074l-0.482-1.927l-1.445-0.482l-0.482-0.482h-0.482l-1.445-1.926
		l-2.408-1.445v1.926l-0.963,1.445l-2.167,0.361l0.241,0.12l-3.853,0.482l-5.779,0.963l-1.445-0.482l-0.482-0.482l-2.569-1.284
		l-2.248-0.642l-2.89,1.926h-3.371l-0.963-0.482l-0.642-0.642l-0.321,0.161l-1.445-1.926l-0.321-1.445h-0.161l-0.482-2.89
		l-3.371-2.408l-0.057-0.085l-0.693-0.504l-0.214,0.107l-1.926-1.445l-0.283-0.397l-0.68-0.567l-2.408-2.408v-0.096l-0.482-0.385
		l-2.408-0.482l-0.482,0.963l-1.926,3.853v1.926v1.927l-1.445,2.89l-0.464,0.892l-0.018,0.071l-0.055,0.069l-0.937,1.801
		l0.028,0.057l-0.642,1.124l-4.174,8.027l-0.963,3.371l-1.445,1.445l-1.445-0.482h-1.445l-4.816,2.89l-4.335,1.927l-1.445,0.31
		v0.172l-5.635,1.3l-0.626,0.626l-5.779-0.482l-1.445-1.927h-1.445l-3.371,4.335h-2.408l-1.445-0.482l-2.408-2.408l-0.381-3.813
		l-0.1-0.04v-0.963h-0.963l-0.722-0.241l-1.686-0.241l-0.193-0.385l-0.289-0.096v-0.482l-0.482-0.963l0.482,0.181v-0.662h5.779
		l0.963,0.482v0.482l0.482,0.482l1.686,0.482h1.686l1.926-1.445l0.482-2.408l-4.335-0.963l-3.853-0.963h-6.261v-1.445l1.926-4.335
		H215.3h-5.298l0.482,2.89l1.445,0.482l1.926,1.927v4.816v1.445l-0.963,0.963l-0.482,0.12l-0.482,0.361l-3.853,0.722l-2.89,0.722
		l-0.347-0.116l-0.616,0.116l-1.926-0.963h-1.445h-4.816l-6.261,0.482l-0.482-0.482l-3.371-0.963l-0.321-0.482h-0.161l-1.445-2.408
		l-2.89-1.927l-2.408-1.926l-1.445-2.89l-2.408-2.408l-0.289-0.771l-0.193-0.193v-0.321l-0.344-0.917l-0.138,0.275l-0.482-1.926
		l-1.926-2.89v-5.298l-0.963-1.445l-0.963-1.926l2.967-1.272l0.244-0.976l-0.157-0.787l-4.98-2.264l-1.926,0.482v3.853l-2.408,1.445
		h-2.408l-0.963-0.482l-0.482-2.408l1.445-1.445l1.926-0.482l0.306-2.145l-0.306-1.226l-1.204-0.722l-2.167-0.722h-3.131
		l-1.686,0.482l-3.853-1.445l-4.335,0.482h-8.188l-2.408-0.482l-0.963,1.445h-1.926l-0.482-0.482l-2.408-2.408l-0.482-1.445
		l-2.408-0.482l-0.594-1.486l-5.185-1.885l-1.852-0.37l-1.212,0.152l-1.751,0.701v2.408l2.89,2.408v0.963l-1.445,0.482l-4.816,0.482
		l-0.963-1.926h-1.445v0.963h-2.408l-0.482-0.963l1.926-0.482l0.482-1.445l3.371-1.926v-3.371l1.445-1.445l4.272,0.388l3.127-0.695
		l0.788-0.296v-3.251h-3.853l-3.853,0.963l-0.482,1.445l-1.926,0.482l-0.482,1.445l-0.482,1.926h-2.89l-2.89-0.963v-1.926
		l1.926-0.482l1.926-1.445l-0.482-2.408l-4.816-1.927v2.408l-1.264,1.686l-0.181,0.722l-0.963,0.963l-0.193,0.096l-0.289,0.385
		h-0.482l-0.963,0.482l-0.482-0.482l-0.963-1.926l-3.371-0.482l-0.867-3.179l-1.06-2.119l0.482-2.408l2.89-1.926l0.438-0.088
		l0.525-0.394l0.642,0.161l0.803-0.161l0.482,0.482l2.189,1.313l0.797,0.228l1.328,0.221l-0.461-3.689l-0.963-0.482h-3.371
		l-1.445-1.445l-3.853-1.445l-6.261-2.408v-1.445l2.89-0.482l1.445,1.445l2.364-0.263l-0.438-0.219h2.408l1.926-0.482h3.853v-0.963
		l-2.408-0.482l-1.926,0.963l-7.706-1.926l-1.445-0.963l-1.926-0.482l-0.482,0.963h-1.926l-0.963-0.963l-0.482-0.482l-0.482-0.482
		v-2.89l0.963-2.408l0.482-2.408l-0.963-1.927l-0.482-4.335l-0.101-0.71l-0.38-0.253v-2.408L84.3,608.3l0.619-0.138l0.344-0.344
		l6.02-1.204l1.766-0.482l2.809-1.204h6.261l4.816,0.963l2.89,0.482l-0.225-1.124l-3.147-2.248h-5.779l-0.482-0.482h-2.408
		l-1.926,0.963l-1.445-2.89l0.482-1.926l3.371-2.408v-1.927l-3.371-0.963l-2.89,0.482h-4.335l-0.482,1.445h-1.926l-1.445-0.963
		v-3.853h11.559h1.445v-2.408l-1.926-1.445l-4.335-0.963l-5.298-0.482l-5.779,0.482v-4.816l0.482-0.963l0.963-2.408l-1.445-0.963
		l-0.482-1.445l2.408-1.445l1.686-0.361l0.241-0.12l4.816-0.963l2.89-0.963v-0.963l-1.445-2.408l-3.371-0.963l-1.926-0.963h-2.89
		v-2.408l1.445-1.445l2.89,0.482l2.408,1.927l1.926,0.482l2.408-1.445l-1.445-2.408l-2.89-0.482l-0.482-1.445l-0.963-0.482v0.963
		h-1.445v-0.963l0.963-0.482l2.408-2.408l2.408-0.482l-0.963-1.927h2.408l0.963,0.963l-0.482,3.371h0.963l0.275,0.138l3.096,0.344
		h1.926h3.853l0.37-2.593l-1.334-2.223l-3.371-0.482l-3.371,0.482l-1.445-1.926v-1.926l9.151-0.963v-0.482l-3.853-2.408
		l-7.706-1.445l-1.445-1.926l-0.482-2.408h3.853l1.926-0.35v-0.131l3.371-0.482h4.335l0.642,0.963l0.759,0.569l1.415,0.283
		l0.471-0.059l-0.397-0.793l-1.926-2.408l-4.816-1.926l-0.963-1.926l0.482-1.926l0.963-2.408l-0.482-2.89h3.371l1.926-0.482
		l-0.482-2.89l0.963-3.371l2.408-2.89l0.642-1.284l0.803-4.013l4.335-10.836v-0.241l0.963-1.926l0.602-0.12l0.843-0.843l0.963-1.605
		l0.482-1.124v-5.458v-3.371l0.293-1.319l0.188-3.015l-2.89-1.445l-2.408-4.816v-3.371l-0.482-1.445l-2.697-1.927h-0.193
		l-0.482-0.482l-0.963-4.335l-3.371-4.816l-0.419-1.538l-0.062,0.093l-0.963-3.853l-1.686-0.482h-0.722l-0.963-0.482l-0.161-0.268
		l-0.321-0.214l-0.074-0.445l-0.889-1.482l-0.037-0.185l-0.445-0.778v-3.853H96.34l-1.284-0.963h-0.161l-0.241-0.301l-0.241-0.181
		l-0.241-0.421l-1.204-1.505h0.344l-0.233-0.408l-0.111-0.074l-1.445-2.167l-0.963-1.204v-0.241l-0.482-0.722v-4.335l0.482-3.853
		l0.963-3.371v-9.151h-0.963l0.321-0.107l-2.248-0.375l-0.963-0.482l0.161-0.161l-1.605-1.284l-2.408-3.853l-3.853-1.445
		l-1.926-2.89v-5.779l0.375-1.873l-0.306-1.223l-1.032-1.72l-2.408-2.408l-0.399-0.498l-0.083,0.017l-0.289-0.482l-1.156-1.445
		l-0.657-1.576l-0.788-1.314v-0.578l-0.963-2.312l-4.816,0.482l-1.445-1.445l-2.89-4.335v-2.408l1.445-2.89v-5.298l0.482-0.722
		v-0.241l0.482-0.482l0.321-0.161l0.642-0.803l0.482-1.926l-2.408-1.926l-3.853-1.445l-2.408-2.89l0.963-1.926l0.482-3.853
		l1.445-1.926l0.482-4.335l1.445-1.926l0.222-0.074l0.741-0.889l-0.482-1.926l0.131-0.525l-0.131-0.919l4.816-4.816l0.963-0.963
		l0.963-2.408l1.926-2.89l1.445-2.408l0.206-0.069l0.275-0.413l0.813-0.181l0.151-0.301l3.371-0.482l0.963-1.445h3.371l3.371-0.482
		l3.371-3.853l0.438-0.482l1.97-2.408l0.482-0.413v-0.069l1.926-1.926h0.401l0.562-0.482l1.084-0.241l0.361-0.241h0.722l2.167-0.482
		l1.445-0.963l0.963-2.408l1.926-1.926l0.963-2.408l0.482-0.619v-0.344l0.963-0.963l0.066-0.017l1.86-2.392l1.445-5.201v-0.578
		l0.963-2.89l4.335-1.445l0.228,0.076l0.253-0.076l0.051,0.177l2.357,0.786l0.482-1.926l-0.482-1.445l-0.482-2.408l1.445-3.371
		h0.241l0.241-0.482h3.371v-2.408l-0.482-0.482l-0.069-0.275l-0.413-0.206v-1.445l1.445-3.371l0.096-0.096l0.385-0.867l0.963-0.482
		l1.204,0.172l1.204-0.172l0.688,0.442l0.275,0.039l0.688,0.482h0.275l0.058,0.234l1.386,0.971l2.922,1.878l0.672,0.252l2.667-0.445
		l0.482-2.408l-0.963-0.482l0.963-1.926l0.482-3.371l0.482-0.482l7.706-0.963l-0.963-1.926l0.482-1.926l7.706-0.963l2.89-0.963
		l4.335-1.445v-1.445v-0.963l1.445-2.408l1.204-0.241l-0.241-0.241l3.853-0.482v-0.963l0.107-0.214l0.375-4.12l-2.89-0.482
		l-0.482-1.445l0.963-0.482l3.371,0.482l0.963-1.445v-2.408l-4.335-1.926l-1.349-2.023l-0.096,0.096l-0.482-0.963l-2.89-1.926
		l-1.445-7.224l5.298-0.482l2.89-1.926l0.482-1.445l-1.445-0.482l0.482-1.926l4.816-0.482l4.554-3.853l3.152-2.89l0,0l-0.482-2.89
		l0.482-1.926l2.89,0.482l2.89-0.722v-1.686l-3.211-2.248l-0.642-0.161l-0.963-0.963l-7.706-3.853l-6.261-3.853l-1.926-2.408v-0.289
		l-0.482-0.674v-4.335l0.482-0.963l3.853-2.89h3.853l0.963,0.482l0.482,0.602l0.482,0.361l0.222,0.519l0.741,0.926l0.37,1.667
		l0.111,0.259l-0.028,0.113l0.403,1.813h0.107l0.963,4.816l1.926,2.408l2.89,1.926l2.312,1.156l3.468,0.771l1.926-1.926l3.853,0.482
		l5.298,0.482l1.926,0.963l8.669,0.482l0.482-0.963l1.926-6.261l1.445-1.926l0.385,0.096l0.578-0.578l10.114-2.408h8.188
		l3.371-0.963h6.743l0.38,0.507l0.101-0.025l0.963,1.445l1.926,3.371l0.963,2.89l2.408,1.445l-0.963,6.743l-0.241,1.204l0.722,2.167
		h1.445l1.445-2.312v-0.096l0.963-1.445l1.445-0.482v-0.963l1.445-3.371l2.89,0.482l0.482,1.926l-1.926,3.371l-0.788,1.97
		l0.403,1.208l0.867,1.156l0,0l1.445,1.926l0.963,2.89h0.963l0.963,1.445l3.853,3.371h4.335l2.89-1.445l2.89-1.445l2.89-3.853
		v-4.335l-1.926-0.482l-0.482-3.853l-2.89-7.706l1.445-3.371h0.963v-0.963l1.926-2.408l0.482-3.371l-1.445-3.371l-6.973-7.748
		l-0.733-0.44l-3.853-5.779l-4.816-0.963l-0.826-2.064l-0.138,0.138l-1.411-3.293l-4.368-3.931l-0.482-2.89l1.445-1.445h3.853
		l1.445,0.963l2.408,0.482l0.963,0.482v2.89l1.926,2.408l6.743,1.926v0.963l-1.445,1.926v2.89l1.445,2.408l3.853,3.853l2.89,1.445
		l1.238,2.064l0.688,0.344h6.743l2.408-1.926l3.371-5.779l4.335-6.261l3.853-5.298l0.482-4.335l-2.408-6.261l-4.335-10.114
		l-0.942-4.335h-0.021l-1.445-6.743l-0.193-1.06l-0.289-1.349l-3.853-10.114l-4.335-7.706l-2.408-7.224l-1.926-9.632l-0.963-2.89
		l-3.371-2.89l-4.816-3.371l-3.853-4.816v-2.89l1.926-6.261l1.926-3.371l2.89-1.445h9.632l2.89,1.926l2.408,2.408l1.926,4.816
		l0.03,0.271l0.452,1.174l0.482,3.371l-2.408,4.335l-3.973,3.09l-0.602,1.003l-0.722,2.167v2.408l0.482,1.926l2.89,5.298
		l4.335,8.188h4.816l0.482,0.482l-0.482,2.408l-1.445,6.261v3.853l0.482,2.89l1.926,2.89l0.482,2.89l-0.989,2.636l-0.456,4.106
		l2.89,6.743l0.482,0.963l-0.059,0.178l3.912,9.455l0.963,2.408h3.371l2.408-1.926l4.335-1.445h6.743l4.335,0.482l2.167,0.482h0.241
		l1.926,0.482h8.669l3.853-1.445l2.408-2.408l3.371-6.743l4.335-3.371l1.445-2.408l1.445-8.669v-13.967l-0.482-17.82l-0.482-4.335
		l-1.926-6.743v-9.151l1.445-8.669V63.59l-0.482-3.853l-0.963-2.89v-7.224l1.445-3.853l2.408-1.445l4.335-0.482l1.445,0.963
		l1.445,2.408l-0.482,10.114l-0.482,28.415v22.154l1.926,10.114v12.522l1.445,3.371l1.926,0.963h7.224l0.482,0.482l2.408,1.445
		h4.335l1.445-0.482l1.445-1.445l1.926-4.816l1.445-8.188l2.408-13.967l1.926-0.963l0.963,1.445l-0.963,6.261l-1.926,17.82v10.596
		l4.335,1.445h4.335l0.963-0.482l1.445-2.89l0.482-5.298l2.408-2.89l6.743-2.408l1.445-2.408l2.89-12.04l3.853-16.112v-0.263
		l1.445-5.779l0.963-3.492v-0.361l1.926-7.224l0.283-0.425l0.68-2.465l1.926-3.853l3.853-1.445h6.743l3.853,3.853l1.926,3.853v3.371
		l-0.963,2.89l-0.293,0.461l-0.188,0.503l-0.361,0.361l-1.084,1.703v0.344l-0.985,1.204l-0.46,0.722l-3.408,4.26l-1.167,2.001
		l-2.167,4.335l-4.335,13.004l-0.017,0.026l-4.317,13.459l-3.853,12.04l-6.743,20.71v4.816l0.867,0.482h0.096l0.843,0.482h4.455
		v-0.963l4.335-7.706l0.385-0.321l0.096-0.161l3.532-2.89l2.247-1.926l0.482-0.241l1.445-1.084v-0.602l2.89-2.89l3.853-3.371
		l2.89-3.371l3.371-4.816l3.853-7.706l3.371-4.816l3.853-2.89l4.335-4.816l2.89-5.298l2.89-7.706l2.408-4.816l1.926-6.261
		l0.667-1.111l0.296-0.815l0.482-0.482l1.445-2.408l3.853-3.371h3.853l0.963,0.482l0.963,2.408v3.853l-0.482,1.926l-1.926,4.335
		l-5.298,7.706l-2.89,5.298l-3.853,5.298l-5.298,9.632l-4.335,5.298l-3.853,3.371l-5.779,5.298l-6.261,4.816l-3.853,4.335
		l-3.371,6.261l-3.853,6.743l-5.779,6.261l-3.371,4.816l-0.482,3.853l1.926,6.743l4.335,7.706l3.853,0.963l1.926,0.963l0.482,1.926
		l-1.926,3.371v2.408l1.445,4.816l2.89,2.408h2.89l3.371-1.926l0.482-1.926l-1.445-1.926l-1.926-3.371l0.482-4.335l1.445-4.335
		l4.816-5.779l1.926-7.224h4.335l4.816-0.482l0.482-1.445l2.89-1.445l1.926-2.408l0.138-0.069l0.344-0.413l0.803-0.161l1.605-0.803
		h8.188l0.482-1.445l5.779-0.482l2.408-0.963l0.219-0.044l0.263-0.438h1.927l3.853,0.963v0.193l0.963,0.289l0.482,3.371l4.816,0.482
		l2.89,1.926h2.408l3.371-4.816h1.445v2.408l-0.438,0.657l-0.044,0.306l-0.289,0.193l-1.156,1.734l-1.445,2.89h2.89l0.963,0.963
		v5.779h0.963l3.371-1.926l2.408-0.482l2.89,2.89l0.482,2.408l1.926-0.482l0.963-1.445l2.408-3.371l0.241-0.161l0.241-0.321
		l1.445-0.803l0.963-0.642l0.35-0.088l1.576-0.876h3.853l0.963,1.445v3.853l-0.482,2.89l1.778-0.445l1.111-1.482l0.482-3.371
		l0.963-0.963l1.445,0.963l0.482,4.335l-2.408,2.89l-0.482,2.408l0.963,2.408l1.445-0.482l0.482-1.252v-0.193l1.927-4.816
		l0.482-0.562v-0.401l1.926-1.926l0.088-0.022l0.394-0.46l5.298-1.445l0.482-1.926l-3.853-0.482l-2.408-1.926v-3.371l0.482-0.963
		l0.227,0.113l1.7-2.04l4.335-1.445l3.371,0.482v2.89l-0.275,0.138l-0.138,1.514l0.359,1.078l1.498,1.124l1.927,2.408l2.408-1.926
		l0.206-0.161l0.275-0.321l0.385-0.193l0.315-0.245l2.189-1.97l0.26,0.065l0.703-0.547v-0.963h-1.445h-3.853l-0.963-0.963v-3.371
		l0.482-1.445l0.193-0.241l0.289-0.722l0.867-0.722l0.578-0.722l0.595-0.255l0.85-0.708l1.133-0.142l0.793-0.34l0.963,0.12
		l0.963-0.12l0.963,0.361l0.963,0.12l0.826,0.55l1.101,0.413l0.096,0.385l0.867,0.578h1.927l2.408-6.743l0.963-2.408l0.425-0.567
		l1.983-4.25l2.89-3.853l3.853-0.963l2.408-1.445l2.408-1.926v-2.408l0.482-2.89l2.89-1.926l3.152,0.394l0.802-0.267l0.38-1.331
		v-1.686l-0.482-0.482l0.482-2.408l6.261-0.482l2.408-2.408l1.926-3.853l4.816-4.816l5.779-5.298l4.816-2.408h4.816l3.853,1.445
		l1.926,1.926l0.482,4.335l0.482,0.963v2.89l-0.482,0.482l-5.298,0.963l0.482,4.335l-0.482,3.371l-1.926,1.445h-3.371l-0.519-0.259
		l-3.334-0.222l-0.482,1.926l-2.89,5.779l-2.408,2.89l-2.89,1.445l-2.89,3.853l-0.222,0.148l-0.259,0.333l-0.321,0.054l-2.087,1.391
		l0.482,4.335l-0.963,2.408l-2.408,1.926l-1.445,2.89l-3.371,0.963l-0.903,1.264l-0.06,0.181l-1.445,1.926l-2.839,3.549
		l-0.051,0.304l-0.321,0.161l-0.642,0.803l-0.642-0.161l-0.321,0.161l-0.107-0.268l-2.783-0.696l-3.853,4.816h-0.963v0.963
		l-4.335,8.188l-2.89,4.335l-0.482,3.371l-0.482,0.482l-1.032-0.103l-0.413,0.103l-0.361-0.181l-3.01-0.301l-2.223,1.852
		l-1.75,2.001l-1.806,2.408l-0.482,2.408l1.445,2.408l-0.482,1.445l-0.289,0.096l-0.193,0.385h-2.89l-1.926,2.89l-1.445,3.371
		l0.963,3.371l1.926,0.482l2.408-3.371l1.445-1.926l0.562-0.08l0.401-0.401l1.284,0.161l1.124-0.161l0.219,0.328l1.226,0.153
		l4.335,0.963l1.445-0.963l2.408-4.816l3.371-5.057v-0.241l1.445-1.926l3.853-4.335l1.445-4.816l3.371-0.482l-0.198-1.785
		l-0.283-0.142v-2.408l1.927-4.335l5.367-6.261l3.784-5.298l0.963-1.445l0.036,0.071l2.854-3.924l2.408-2.408l1.926-2.408
		l3.371-0.482l3.371-4.335h2.408l2.408,3.371v3.853l-0.482,1.445l-2.408,11.559l-1.445,4.335l-3.371,2.89l-3.371,3.371l-2.89,5.779
		l-1.204,3.612l-0.722,2.649l-1.445,1.445l-2.408,2.89l-3.371,7.706l-0.482,3.853l2.89,5.779l2.408,0.482v-0.963l0.963-1.445
		l3.853-7.706l0.482-0.722v-0.241l1.445-1.926l2.89,0.482l1.445,2.408l1.926,0.482l0.482-2.89l1.926-3.853l0.482-0.963l3.371-3.371
		l0.963-0.361v-0.12l2.89-0.963l3.853-1.445l0.482-3.853l0.445-0.296l0.037-0.185h0.241l2.167-1.445l0.482-3.853l0.482-0.482
		l3.853-0.482l0.963-1.686v-0.241l2.89-4.816l3.371-4.335h2.89l1.926-0.482l2.408-0.482l1.926,1.926l2.89-0.482l1.927-0.482
		l2.89,2.408l-0.482,2.408l-2.89,0.963v3.371l0.963,1.445l-0.482,3.853l-0.963,6.261l-0.482,0.482h-2.89l-1.445-0.361l-0.722-0.06
		l-1.043,0.261l-1.124,1.124l-0.385,0.482l-0.578,0.963l-2.649,2.89l-1.685,1.926l-3.853,3.853l-0.482,3.371l-0.963,0.963
		l-0.722-0.12l-0.241,0.12l-0.193-0.193l-1.734-0.289l-0.482,1.926l-3.853,5.298l-2.408,2.676l-0.963,1.177l-0.963,0.963
		l-5.298,5.779l-0.35,0.657l-0.131,0.306l-3.371,6.261v2.89l3.371,0.482l1.927,0.963l-0.482,1.445l0.482,3.371v12.04l-0.482,4.816
		l-0.963,0.963l-1.926,4.335l-0.482,4.335l1.926,1.445v3.371h0.963l2.167,0.963h0.722l1.445,0.963l7.224,2.408l2.89,3.371h3.853
		l0.963,0.482l1.445,2.408l0.105,1.047l0.377,0.879v2.89v3.853l0.963,1.445h2.408l0.963-0.385v-0.096l1.445-0.482h3.853l1.927,2.408
		l1.926,7.224v3.853l0.482,2.408h3.371l2.408-0.803l0.751-0.334l6.473-4.161l11.077-6.743h9.151l1.445-0.963l0.963-0.482
		l1.445-0.963h0.482l0.963-0.482h3.371l1.445,0.482l1.445,1.445l1.445,3.371v3.371l-1.445,2.408l-3.371,1.926l-9.151,4.335
		l-0.963,3.371l-0.193,0.096l-0.289,0.867l-3.853,2.408l-1.445,3.853l-2.408,3.371l-1.445,5.779l-1.927,1.926l-6.743,1.445
		l-5.298,1.926l-2.408,0.482l-0.963-0.482v-0.161l-0.482-0.321l-4.335-0.963l-0.963-1.445l0,0l-1.926-2.89l-3.371,0.482
		l-6.743,1.445l0.482,1.445l0.578,0.578l0.385-0.096l1.445,1.926v2.89v1.445l2.408,0.482l0.602,0.482h0.361l1.445,1.445v2.408
		l-2.89,0.963l-1.445,1.445l-0.963,2.89h0.963l0.701,0.438l0.263,0.044l0.788,0.613l2.102,1.313l0.68,0.85l0.765,0.595v0.361
		l0.482,0.602v2.89l3.371,0.963l0.963,4.335h0.963l2.408,1.445l1.926,3.853l2.408,1.445l1.445,2.89v5.298l-0.482,1.926l0.321,2.89
		h0.161l-0.096,0.578l0.096,0.867l-0.413,1.032l-0.069,0.413l-0.105,0.021l-0.377,0.942l-0.963,4.816l-0.963,1.445l-1.445,2.408
		h2.408l0.963-0.963l0.482-0.482l1.926,0.963h2.89l0.482-0.482l2.89-0.482l1.926,1.445h5.779l1.445,0.963h2.408l5.298-3.371h4.816
		h3.371l1.926-1.926h2.408v0.963l4.816,0.963l2.89,0.482h7.224l5.298-0.963l3.853,0.482l2.408,1.445l0.482,2.408l-1.445,3.371
		L725.547,404.629z M100.675,560.619l-1.445,1.926h0.963l2.408,1.445l3.853,0.482l1.541,1.926h1.83l1.445-1.926l0.482-1.927
		l-0.963-2.408l-1.926,0.963l-2.408,0.482l-0.161-0.642l-0.201-0.201l-0.12,0.361l-0.482-0.963l-4.291,0.307L100.675,560.619z
		 M335.704,696.917l0.963,0.482v0.803l0.963,0.642l3.853,4.335l3.36-0.28l1.456-1.165l0.963-3.371l-1.445-1.445l-3.371-0.482h-1.445
		l-1.445-0.482l-0.241-0.482h-4.094L335.704,696.917z M176.289,671.873l-1.926,1.445l2.408,0.482l1.445,0.963l0.096,0.53
		l0.867,0.433v2.408l2.408-1.445l0.482-1.926l0.241-0.12l-1.108-0.554l-0.578,0.193l-0.963-0.482l-0.172-0.516l-2.236-0.447
		L176.289,671.873z M255.756,693.787l-0.482-1.204l-2.89-0.482l-1.07,0.856l-0.375,0.468v2.047h4.335l0.482-0.482V693.787z
		 M200.37,249.495l-0.963,0.963l0.963,1.926l2.408-0.963l2.408-1.445v-0.963l-2.408,0.482v-0.482L200.37,249.495z M374.715,699.325
		l3.853,0.482v-0.963l0.241-0.722l-1.204-1.204v-1.445l-2.89-2.408h-3.371l-0.482,1.445l1.445,1.445l0.963,0.482l-0.963,3.371
		L374.715,699.325z M140.649,275.984l-2.408-0.482l0.482,1.445h2.408L140.649,275.984z M169.225,657.103l0.803,0.803l1.926-0.482
		l3.371-0.482l-1.445-2.89h-2.89l-0.482-0.963l-0.321-0.161l-1.605-0.321l-0.963,1.926L169.225,657.103z M181.029,664.471
		l-0.406,1.622l-0.172,0.516l0.684,1.14l0.452,0.271l2.89,1.445l4.128-1.238l0.447-0.447l-2.167-2.167l0.188-0.047l-0.489-0.435
		h-0.181l-1.445-1.445L181.029,664.471z M236.491,674.281l1.926,1.926l1.926,0.482l0.963-0.963h3.371l0.963,1.445h1.445l0.963-0.963
		v0.241l0.111-0.278l0.263-2.371h-0.375l-4.816-2.408h-5.298l-0.963-3.371h-0.963l-0.337,2.023l0.337,1.349l0.482,0.482l0.482,0.482
		L236.491,674.281z M260.09,686.803l4.335-0.482v-1.445h-0.482h-1.445l-2.408-1.445l-2.408,0.482l-0.161,0.321l-0.321,1.605
		l1.284,0.642L260.09,686.803z M184.958,255.756l0.482,1.445h2.89v-1.445H184.958z M135.11,640.327l1.204,0.722h6.743l-0.482-1.926
		l-0.674-0.674l-1.011-0.289h-1.686l-1.656-0.993l-1.216-0.174l-1.945,1.167l-0.289,1.156L135.11,640.327z M320.212,671.853
		l1.525-1.906l0.241-0.482l-0.241-0.482l-2.408-0.482l-1.445-0.963l-2.408,0.535v1.391l0.963,1.445L320.212,671.853z
		 M330.888,671.391l2.89,0.963v2.408l2.179-0.872l0.229-0.573l0.321-0.161l0.161-0.321l0.803-0.161l0.642-0.321v-1.445h-3.371
		l-1.445-1.445h-2.89L330.888,671.391z M354.006,691.138l2.89-0.482l-1.445-1.445h-5.779l1.445,0.963l-0.68,0.17L354.006,691.138z
		 M412.934,693.763l0.792-0.248v-0.452h1.445v-0.963l-1.246-0.498l-7.905-0.465l-1.926,0.482l-0.963-0.963h-0.963v2.408l0.482,0.482
		l4.816,1.445l4.816-1.445L412.934,693.763z M173.399,288.987h1.445l0.482-2.89l-2.408,0.482L173.399,288.987z M102.12,386.274
		l0.482,2.89l2.408-0.963l2.89-0.963v-1.445l-0.963-0.482l-0.482,0.096v0.385L102.12,386.274z M210.965,671.391l-1.926-1.445h-2.408
		l-2.167-0.31l-1.204,0.172v0.138h-0.963v1.926h0.963v0.482l4.335,0.482l0.482,0.482l2.89-0.482V671.391z M133.545,586.627h4.214
		l0.753-1.505l-3.161-0.903l-2.408-0.482l-0.482,1.445L133.545,586.627z M180.623,647.471l0.616,0.822l3.236,0.462l2.89,2.408h3.371
		l-0.482-1.445l0.275-0.138l-4.128-2.752l-3.371-0.482l-0.482-0.482l-2.408-0.482v1.284L180.623,647.471z M182.55,307.289h-0.963
		v1.445h0.482L182.55,307.289z M193.868,661.518l1.204,1.204l5.779-0.482v-1.445l-3.371-0.963l-0.228-0.456l-4.106,0.456
		l-0.198,0.397L193.868,661.518z M297.693,650.608l2.853-0.407l0.482-1.445h-3.853l-0.482,0.963l-0.263,0.131L297.693,650.608z
		 M411.597,665.967l1.441-0.24l1.17-1.56H411.8v-0.482l-1.445-0.963l-2.248-0.321l-1.168-0.117l-0.558,0.558l-0.155,0.774
		l0.757,1.514l2.783,0.696L411.597,665.967z M180.142,314.513v-0.963l-4.335-0.482v1.926h3.371L180.142,314.513z M190.256,642.976
		l-0.482-1.445l-2.408-1.445l-0.482-0.963l-0.514-0.064l0.032,0.064h-3.371l-2.408-0.963l-0.482,0.963l0.482,2.408l4.816,0.963
		l1.926,0.482H190.256z M277.91,646.347l1.445,0.482l3.371,0.482l0.482-0.963l-3.853-2.89h-2.408l-1.445-0.482l-3.371-0.963h-3.853
		l-0.482,0.963v1.445l5.779,1.445l2.89,0.482H277.91z M200.37,636.233l2.89,0.963v0.482h0.482l0.482-0.482h4.335l-0.482-0.963
		l-4.335-0.482l-0.963-0.482l-0.963-0.482l-2.408-0.482l-0.482,1.926H200.37z M370.862,657.425l2.248,0.642l0.642-0.642
		l-0.482-1.445l-2.408-0.963V657.425z M162.322,327.517l-1.926-0.963l0.482,1.926h1.445V327.517z M235.046,640.086l0.482,0.963
		l0.482-0.963H235.046z M251.903,632.862l-1.926-1.926l0.361-0.12l-0.361-0.361l-0.963,0.482v2.408L251.903,632.862z
		 M402.167,586.145h-0.482h-0.482v3.371l1.445,0.482L402.167,586.145z M173.881,587.59l0.482-1.927l-4.335-0.963l-3.371-0.482
		l-0.482,0.482l0.482,2.408l4.335,0.963L173.881,587.59z M255.756,640.568l-1.926-0.482v1.445l2.408,1.445h0.482L255.756,640.568z
		 M143.539,427.693l3.853,3.371l1.704-0.426l0.222-0.778v-2.649l-1.445-0.482l-4.816-0.482L143.539,427.693z M267.836,637.116
		l0.923-1.846l-2.408-0.482l-0.482,2.408h1.686L267.836,637.116z M152.208,604.928l3.853,1.445v0.963l2.408,0.482l-0.482-1.445
		l-3.853-2.408l-2.89-0.963L152.208,604.928z M175.325,610.226h-3.853l-1.926,0.482l0.482,2.408h2.408l3.371-0.963l0.482-1.445
		L175.325,610.226z M170.991,603.483l0.241-0.722l-0.241-0.722l-2.408-1.926l-3.371-1.445l0.482,1.445l3.853,2.408l-0.168,0.084
		L170.991,603.483z M245.642,649.719l-2.408-1.927h-7.706l-0.963,2.408h1.926l1.445-0.482h3.853l0.963,0.482L245.642,649.719z
		 M181.105,632.862l-0.321,0.161l0.321,0.321l2.89,0.963l4.335,0.963h0.963l0.963-0.482l-0.963-2.408l-1.445-0.482l-0.161-0.161
		l-0.803-0.321h-3.853l-1.926-0.963V632.862z M399.278,669.465l1.712,2.141l0.599,0.171l1.541-0.385l-0.963-2.89l-1.926-1.926
		l-1.445,0.963L399.278,669.465z M178.697,629.491l0.321-0.161l-0.321-0.321h-1.926l-1.445,0.482l-3.371-0.482l0.482,0.963
		l2.408,0.963l4.335,0.963L178.697,629.491z M166.175,620.822h1.445l0.963-0.963l-0.903-1.806l-1.505-0.602l-2.89-0.963
		l-1.445,1.445l3.853,0.482L166.175,620.822z M157.024,626.119l-1.445-0.963l-1.926,0.482l0.482,1.445h2.89V626.119z
		 M141.131,569.77h0.482l-0.482-2.408l-1.926,0.482L141.131,569.77z M373.752,674.281l-2.408-0.963h-4.335l-1.445,0.963l0.963,0.482
		l0.722,0.482h2.649l2.89,0.413l0.558-0.159L373.752,674.281z M364.601,668.983l0.482-0.482l0.482-3.853h-2.408l-1.926,2.89
		l0.963,1.445H364.601z M185.921,301.509l1.926-0.482v-0.482l-1.445-1.445l-1.445,0.482l-0.227,1.133L185.921,301.509z
		 M232.959,655.819l-0.321,0.161l-0.963-0.963l-4.335-0.963l-2.408,0.482l-0.069-0.138l-0.413,0.138l-0.482,2.408l0.963,0.482
		l4.816,0.482l0.722,0.482h2.649l0.401-2.007L232.959,655.819z M218.189,652.929l-0.963-0.321l-2.408,0.482l0.963,0.963l0.482,1.445
		h2.408l0.482-1.926L218.189,652.929z M172.917,646.347l0.482-2.408l-1.284-0.963h-0.642l-3.371-0.482v2.408l0.963,1.926
		l0.963,0.482h0.963L172.917,646.347z M158.95,301.509l-0.482,0.963l1.926,1.926l-0.55,0.138l0.189,0.284l0.361,0.06l0.963,1.926
		l3.853-0.963l0.482-2.408l-3.853-0.482v-0.482l-1.686-0.722L158.95,301.509z M187.366,298.62l0.482,0.803v-0.321L187.366,298.62
		l-0.963-0.963l-1.445,0.482l-0.183,0.913L187.366,298.62z M351.597,663.686l1.445,0.963l2.408,0.482l0.482-2.408h-4.335
		l-4.816-0.963l-2.89-0.963h-5.779l1.926,2.408h2.89l1.926,0.963l4.335,0.482v-0.482L351.597,663.686z M257.2,664.649l1.445,1.445
		l2.408-0.482v-1.445l-1.926-0.482L257.2,664.649z M223.487,664.167l0.482-0.963h-0.963l-1.445-2.408l-2.408-0.482l-2.408,1.445
		l-0.963,2.408l1.926,1.445l0.963-0.161v-0.321L223.487,664.167z M194.59,670.428v0.482h0.963l-0.482-2.408l-2.408-0.482
		l0.482,1.445l-0.289,0.145l0.858,0.644L194.59,670.428z M132.461,550.024l1.926-0.482v-1.445h-1.926V550.024z M238.417,666.094
		v-0.963h-0.963v0.963H238.417z M228.303,671.391l-0.06,0.12l0.301-0.12H228.303l1.445-0.963v-0.963h-1.445l-1.926-0.963
		l-5.779-0.482v-0.096l-0.482,0.096l-0.421,2.95l0.421,0.421H228.303z M181.586,657.425l-0.482-2.408h-0.963l-2.295,0.255
		l-0.113,0.227v2.408l0.963,0.482l-0.482,0.161l0.293,0.195L181.586,657.425z M165.211,644.421l-0.482-1.926h-6.261l-0.482,1.445
		l1.926,1.926h1.926L165.211,644.421z M158.469,639.123h2.89l0.482-0.482v-2.408l-0.963-0.963h-4.816v1.926L158.469,639.123z
		 M121.384,563.028v0.963l0.482,1.926l4.335,0.482l0.482-2.89l-0.963-0.963L121.384,563.028z M123.792,557.73h0.963v-0.963h-0.963
		V557.73z M176.289,293.803l-1.926-0.482l-0.482,2.408l2.408,3.853l2.408-0.482l-0.963-1.926L176.289,293.803z M358.822,690.175
		v3.371l1.271,0.424l1.618-2.832l0.482-1.927L358.822,690.175z M158.469,285.134l0.963,1.926l1.926,0.963l0.482,1.445h5.779
		l2.408-0.482v-0.482l-1.445-1.445l-7.224-1.445v-0.259L158.469,285.134z M182.068,281.281l4.816,1.926h3.371l0.482-2.408
		l-6.261-0.963l-0.963-0.482l-4.816-0.482l-0.482,1.926L182.068,281.281z M410.355,700.289l-0.482-1.445l-2.408-0.482l-1.926-1.445
		l-1.926,0.963l-0.482,2.408l2.89,0.482L410.355,700.289z M389.645,681.987l3.853,0.963l0.241,0.963h1.686l2.89-0.826v-2.064h-5.298
		l-0.963-0.963l-2.408-0.482V681.987z M376.16,684.395h-2.89l-6.261-0.963l0.482,1.445l-0.206,0.413l1.651,2.477l5.779-0.482
		l2.408-0.482L376.16,684.395z M340.039,682.469v0.963h1.926l1.445-1.445L340.039,682.469z M199.406,678.616l-4.816,0.963v1.445
		l1.445,1.927l3.371,0.963l0.482-0.482l0.963-3.371L199.406,678.616z M155.098,652.608l0.482-1.445l-2.89-2.408l-4.335-2.408h-3.371
		l-1.445,1.445l0.482,1.927l2.408,1.926h5.779l0.963,0.963H155.098z M98.06,317.609l-0.275,2.202l0.963,0.482l-0.525,0.131
		l0.525,0.35l2.89-0.482l3.853-2.408l0.963-1.926h-0.963l0.642-0.161l-0.642-0.321h-4.816l-0.963,0.482L98.06,317.609z
		 M212.089,681.987h4.174l0.482-1.445l0.963-0.482l1.445,0.482v0.963l1.926,0.482v-0.963l-0.482-1.926h-3.371l-0.963-0.963h-5.298
		l-0.963,1.445l0.482,1.445L212.089,681.987z M130.535,647.311l0.963,1.926l0.963,0.482l3.371-1.445l-0.482-3.853l-3.853-0.963
		h-0.963l-3.853-0.482l-0.482,0.963v2.89l0.054,0.054L130.535,647.311z M119.458,606.373l3.371,0.482l1.397,1.397l0.53,0.048
		l2.408,1.445l3.853,0.963l0.184,0.461l4.15-0.461l-0.963-1.445l-1.582-1.582l-2.752-0.612l-6.261-0.696l-4.335-0.963V606.373z
		 M106.454,591.925l1.445-0.181v-0.301l2.408-0.482v-0.963l-5.298-1.445v-0.963h-1.445l-0.963,1.926v1.445l2.89-0.482l0.482,0.963
		L106.454,591.925z M102.176,583.397l0.064-0.383l-0.12-0.241l-0.482-2.408l-3.853-1.445v3.853l0.482,0.963l2.89,0.482v-0.482
		L102.176,583.397z M100.193,571.697l0.321,0.321l0.642,0.161h8.188l-0.963-0.482h2.408l2.89-0.482v-0.963l-1.445-0.482
		l-7.706-0.482l-0.482-0.482h-5.298L100.193,571.697z M108.862,551.469l1.445,0.482l0.241,0.241l0.722,0.241l0.241,0.722
		l0.241,0.241h1.445l2.408-1.926v-1.445l-4.816,0.482l-0.385-0.771l-1.541-0.193l-0.35,1.401L108.862,551.469z M429.523,684.347
		l-5.201-0.433l-2.89,0.482l-0.482,1.926l0.642,0.321l2.248,0.642l0.482,1.445h2.89l0.361-0.361l-0.361-0.12l2.167-1.445
		l0.722-0.578v-1.589L429.523,684.347z M386.434,699.646l0.321,0.161l7.224-0.482l0.482-0.963l-1.926-0.482l-5.779-0.482
		l-0.138-0.275l-0.826,1.238L386.434,699.646z M389.164,690.656l1.927-0.482l0.482-1.445l-3.371-0.963l-0.963-0.963h-3.371
		l-0.963,1.445l0.482,2.408H389.164z M381.458,701.733l-0.963,1.926l1.445,1.445l1.445-0.482l0.482-2.89H381.458z M355.45,709.439
		h-2.89v-0.963l-2.89-0.482l-1.926,1.926l0.482,2.408l2.408,1.927h4.335l0.963-0.963l0.482-2.408L355.45,709.439z M178.215,687.285
		l4.816-0.482l-1.774-2.484l-1.597-1.369l-1.445,0.482l-1.445,2.408l0.619,0.826L178.215,687.285z M161.359,662.241l4.816,1.445
		l1.156,0.771l1.011,0.253l5.057,0.421l0.321,0.161l4.013,0.803l0.482-1.927l-0.482-1.445l-1.945-1.556l-1.667-0.37h-2.167
		l-1.445-0.963l-1.445-0.482h-1.445h-2.408l-1.97-0.438l-0.438-0.044l-0.193-0.096l-1.734-0.385h-7.224l-0.963-0.963h0.482
		l-1.926-0.482v2.89l4.335,1.445L161.359,662.241z M136.796,655.98l-1.349-1.798l-0.578-0.128l-3.371,0.482l-0.482,0.482
		l-0.482,1.926L136.796,655.98z M117.531,645.866l2.89-0.482l0.482-1.926h-4.816l-1.445,1.445h0.963l1.445,0.963H117.531z
		 M93.45,616.005h2.408v-1.445l-2.408-3.371l-2.408-0.482l-0.963,2.408L93.45,616.005z M110.307,597.704h3.371l0.482,0.963
		l1.445,0.482l0.482,0.963l0.963,0.963h0.482h1.445l3.746-1.124l0.164-0.123l0.425-2.125l-9.632-0.963l-3.371-0.482l-3.853-0.482
		l0.482,1.445l2.89-0.482L110.307,597.704z M95.377,569.77l1.926-0.482l-1.926-0.963V569.77z M112.715,542.318l2.89,0.482
		l3.853,1.445h4.816l0.963-0.482V542.8l-1.445-0.963l-0.057-0.071l-0.425,0.071l-0.161-0.803l-1.284-1.605l-1.926-0.482l-1.926,2.89
		l-1.014-0.203l0.051,0.203l0.963,0.482l-5.779-0.963L112.715,542.318z M66.721,340.039l0.241,0.482l1.926-0.482v-1.445
		l-2.408,0.482L66.721,340.039z M406.983,711.141l0.017,0.001l3.354-0.258l0.25,0.499l6.493,0.464l0.482-0.963l-0.963-2.408
		l-3.853-0.963h-4.816l0.273-0.182l-7.497-0.3l-2.408,2.408l0.963,0.482l2.312,0.578l5.394,0.385V711.141z M367.491,704.623
		l1.605-0.803l0.247-0.309l-0.408-0.815l-1.926-0.482l-1.926-0.963l-3.371-0.482l-0.482-0.482h-4.335l0.482,0.963l3.371,2.408
		l4.335,0.482v0.482H367.491z M254.311,699.325l-4.816-0.963v-0.289l-1.101-0.33l-0.183-0.023l-0.642,0.161l-1.156-0.385
		l-0.771-0.096l-3.853,1.927l-0.482,1.445h0.963l3.853,0.963h6.743l2.408-2.408H254.311z M239.381,704.623v1.445h1.445l0.482-0.963
		L239.381,704.623z M244.678,692.101l0.963,0.482l0.482,1.926l1.926,0.482v-1.445l-1.445-1.445h-0.482v-2.408l-10.596-0.963
		l-2.023,2.023l-0.385,2.312l4.816-0.963h3.853H244.678z M107.417,541.836l3.853,0.482l0.482-0.482l-1.926-1.445l-2.408,0.482
		V541.836z M484.524,700.61l0.55-1.284h-0.55V700.61z M360.748,718.108l-2.408-1.926v1.445l-0.289-0.289l-0.193,0.771h-2.89
		l-0.482,0.482v2.89h-1.445l0.344,1.376l0.138,0.069h3.853h6.261l1.445,0.963l0.413,0.619l0.069-0.138l0.722,1.204l0.819,0.819
		l2.312,0.385l-0.482-2.408l1.445-2.408v0.578l0.206-0.165l0.275-0.413l1.445-1.445l0.391-1.174l-3.763-0.753v-0.482H360.748z
		 M402.167,738.818l2.109,2.46l3.189,0.911l0.963,0.482h2.408l-0.963-2.89l0.482-1.445h0.482l-0.482-4.816l-0.482-0.482
		l-4.335,0.482l-2.408-0.482l-4.335-1.445l0.413,2.064l1.514,2.271L402.167,738.818z M368.936,738.267l2.233,0.638l2.698,0.3
		l0.366-1.832l-5.298-0.963V738.267z M381.458,720.516l-3.211-0.642l-1.967-0.14l-1.565,0.783l0.482,2.408l9.151,0.482l-1.926-2.408
		l0.113-0.057l-1.02-0.453L381.458,720.516z M371.344,728.222l-0.482,0.963l0.482,2.89l1.927,1.926h5.298v-3.853l-1.926-1.445
		l0.161-0.08l-4.013-0.401v-0.482h-0.722L371.344,728.222z M391.09,724.851l2.408,0.963l-0.516,0.172l2.924,1.754l3.371-0.963
		l0.482-2.408l-1.297-0.778l-1.111-0.185l-0.181-0.542l-1.264-0.421h-4.816V724.851z M393.498,737.373l1.445-1.445l0.482-2.89
		l-0.963-1.926l-2.408,0.482H388.2l-1.445-0.482l-1.927,0.963v2.408l1.445,1.927l2.408,0.963H393.498z M189.627,696.394
		l-2.262-1.885l-3.371,0.482l2.408,2.408h2.89L189.627,696.394z M113.197,652.127h0.963l-0.304-1.521l-0.017-0.004l-0.161,0.08
		v-0.12l-1.445-0.361L113.197,652.127z"/>
	<polygon points="642.976,252.384 641.531,254.311 638.641,254.792 638.641,252.866 640.086,250.939 642.494,250.458 	"/>
	<polygon points="743.152,452.256 739.781,452.737 737.373,450.811 736.891,448.403 738.818,446.958 742.189,446.958 
		742.912,447.439 743.152,447.439 743.634,447.921 743.634,451.774 	"/>
	<polygon points="192.182,97.303 191.219,96.34 191.7,94.414 193.627,93.45 195.553,95.377 194.59,97.303 	"/>
	<polygon points="556.766,659.833 557.73,660.796 557.248,663.204 554.84,663.686 553.877,662.722 554.358,660.314 	"/>
	<polygon points="656.461,216.263 655.98,215.3 657.425,212.41 659.833,211.447 660.314,212.892 658.869,215.3 	"/>
	<polygon points="444.068,734.483 446.476,734.483 456.59,736.891 456.59,737.373 452.737,737.373 444.55,735.928 	"/>
	<polygon points="654.535,284.653 653.572,282.726 655.016,281.281 656.943,280.8 657.906,282.726 656.461,284.171 	"/>
	<polygon points="589.035,685.84 590.48,687.766 590.48,691.138 589.998,691.619 587.59,692.101 586.145,690.656 585.664,688.248 
		586.627,686.322 	"/>
	<polygon points="634.789,511.013 634.307,508.605 637.197,508.605 638.16,509.086 638.641,511.494 635.752,511.494 	"/>
	<polygon points="664.649,659.833 665.13,661.759 664.167,662.722 661.759,662.722 661.277,660.314 662.722,659.351 	"/>
	<polygon points="656.943,669.465 656.461,671.873 654.053,672.836 653.09,671.391 654.535,668.983 	"/>
	<polygon points="489.34,673.318 489.46,672.836 489.34,672.355 489.661,672.034 489.822,671.391 490.303,671.391 490.785,670.91 
		495.119,670.428 498.972,668.983 501.862,668.983 505.233,670.91 507.641,673.8 507.641,677.171 507.16,678.616 505.233,681.024 
		502.344,682.95 497.046,682.95 494.638,681.024 492.711,675.244 489.822,674.281 	"/>
	<polygon points="659.833,477.781 654.053,477.781 653.09,477.3 653.572,475.855 658.869,476.336 	"/>
	<polygon points="626.601,577.476 627.083,575.068 629.491,575.068 630.454,576.513 629.972,577.958 627.564,578.439 	"/>
	<polygon points="673.318,642.013 674.281,642.976 673.799,644.903 671.391,645.384 670.428,644.903 670.91,642.494 	"/>
	<polygon points="522.09,590.48 522.572,589.516 523.053,589.035 523.053,588.553 523.535,588.072 524.016,588.072 524.498,587.59 
		526.425,585.342 526.425,585.182 527.388,584.219 530.278,584.219 531.241,584.7 535.575,585.664 536.057,586.145 536.47,586.833 
		536.539,586.627 537.502,588.553 540.873,590.48 541.355,592.406 541.836,596.741 541.961,597.615 542.318,597.704 
		542.318,600.112 539.91,601.075 538.465,602.52 537.502,603.483 536.86,603.483 536.057,603.965 527.388,603.965 524.98,603.002 
		521.127,598.667 521.127,595.778 521.608,594.814 	"/>
	<polygon points="155.098,672.836 155.579,673.318 155.098,675.244 151.726,675.726 151.726,673.8 152.689,672.836 	"/>
	<polygon points="167.62,215.781 164.73,216.263 163.767,215.781 164.248,213.855 168.101,213.855 	"/>
	<polygon points="485.005,614.561 488.377,614.079 488.858,614.561 488.858,616.487 485.487,616.487 	"/>
	<polygon points="642.494,689.211 642.013,691.619 639.605,691.619 639.123,689.693 640.086,688.73 	"/>
	<polygon points="527.388,680.061 528.833,679.579 532.204,678.134 533.167,674.763 535.575,672.836 538.947,672.836 
		539.428,673.318 539.497,673.662 539.91,674.281 540.199,677.171 540.391,678.134 542.318,679.579 543.763,681.987 
		543.763,685.358 542.318,686.803 540.873,687.526 538.947,688.73 538.465,688.73 537.502,689.211 533.649,689.211 531.241,687.285 
		526.425,683.432 525.943,681.024 527.267,680.362 	"/>
	<polygon points="131.98,673.8 131.98,674.763 133.906,675.244 133.425,676.208 130.053,676.689 130.053,673.8 130.535,673.318 	"/>
	<polygon points="103.564,148.836 104.046,146.91 105.973,146.428 106.454,148.836 104.046,149.318 	"/>
	<polygon points="697.399,235.046 698.362,233.601 699.807,233.12 700.289,235.528 697.88,236.972 	"/>
	<polygon points="646.347,240.344 645.866,237.936 646.829,236.491 648.274,235.046 648.755,234.564 650.682,235.528 
		648.755,239.381 	"/>
	<polygon points="697.88,225.895 697.72,225.927 697.399,226.377 692.101,228.303 686.322,228.303 684.395,227.34 682.95,224.932 
		683.432,221.561 686.803,217.708 689.211,216.745 689.211,215.781 691.138,214.336 696.917,213.855 697.399,214.336 
		699.325,218.189 699.807,223.006 698.056,225.457 	"/>
	<polygon points="655.98,262.98 656.943,262.017 658.869,261.535 659.833,262.498 659.833,264.906 657.906,266.833 655.016,267.314 
		654.535,266.351 654.695,265.388 654.535,264.425 654.92,264.039 655.016,263.461 	"/>
	<polygon points="669.947,489.34 671.391,488.377 672.836,488.858 672.836,490.785 670.428,491.267 	"/>
	<polygon points="630.454,526.425 632.38,525.943 633.344,527.869 631.417,528.833 630.454,528.351 	"/>
	<polygon points="503.789,655.498 500.899,655.98 500.417,654.053 502.825,653.572 	"/>
	<polygon points="628.527,539.91 628.335,539.525 627.564,538.947 627.083,535.575 628.046,534.13 630.936,532.686 634.307,533.649 
		635.752,536.057 635.27,537.983 634.628,538.626 634.789,538.947 632.862,540.392 629.491,540.392 	"/>
	<polygon points="208.075,106.454 208.557,104.528 209.52,104.046 210.484,104.528 210.484,106.936 208.557,107.417 	"/>
	<polygon points="125.237,665.612 125.237,667.539 123.792,668.502 122.829,667.057 123.311,665.13 	"/>
	<polygon points="668.02,220.597 669.465,219.153 671.391,218.671 671.391,219.634 669.947,221.561 668.502,222.042 	"/>
	<polygon points="80.928,602.039 79.965,602.52 78.039,601.557 78.039,600.112 80.447,600.112 	"/>
	<polygon points="83.818,604.928 82.855,603.483 83.336,599.63 84.781,599.149 84.3,601.557 84.3,604.928 	"/>
	<polygon points="152.208,256.237 151.245,254.311 153.653,254.792 154.616,256.719 153.171,256.719 	"/>
	<polygon points="112.234,85.263 113.197,83.818 115.605,83.818 115.605,85.263 112.715,85.745 	"/>
	<polygon points="605.891,113.678 606.373,111.752 607.818,111.27 608.3,113.197 606.373,114.16 	"/>
	<polygon points="688.73,665.13 686.803,665.13 686.322,663.204 688.248,662.722 	"/>
	<polygon points="132.461,104.528 132.943,102.601 134.87,103.083 134.87,104.528 132.943,105.009 	"/>
	<polygon points="121.384,126.2 121.866,124.274 123.792,124.274 123.792,126.2 121.866,126.682 	"/>
	<polygon points="658.869,246.123 660.796,246.123 660.314,248.05 658.388,248.531 	"/>
	<polygon points="576.031,530.278 576.513,532.686 575.068,533.167 574.586,530.759 	"/>
	<polygon points="457.072,707.031 454.182,703.66 455.627,703.178 457.553,706.068 	"/>
	<polygon points="117.05,128.127 118.976,127.645 119.458,129.572 118.013,130.053 	"/>
	<polygon points="229.267,157.506 231.193,156.542 231.675,158.469 229.748,158.95 	"/>
	<polygon points="687.285,327.035 689.211,326.553 688.73,328.48 686.803,328.961 	"/>
	<polygon points="494.638,606.373 496.564,605.41 497.046,607.818 495.119,607.818 	"/>
	<polygon points="505.715,755.193 503.789,756.156 503.307,754.23 505.233,753.748 	"/>
	<polygon points="450.811,653.09 453.219,652.608 453.219,654.053 450.811,654.535 	"/>
	<polygon points="409.873,749.895 407.465,750.377 406.502,749.895 406.502,748.932 410.355,748.932 	"/>
	<polygon points="125.237,94.414 127.164,93.45 127.645,94.895 125.719,95.859 	"/>
	<polygon points="571.697,571.215 569.77,571.215 569.289,569.77 571.215,569.289 	"/>
	<polygon points="557.248,595.296 559.175,594.814 559.656,596.741 557.73,596.741 	"/>
	<polygon points="623.711,156.061 624.193,157.506 622.266,157.987 621.785,156.542 	"/>
	<polygon points="657.906,465.259 657.906,466.704 655.98,467.186 655.498,465.741 	"/>
	<polygon points="728.704,477.781 730.63,477.781 731.112,478.744 729.186,479.708 	"/>
	<polygon points="629.972,548.097 631.417,547.616 631.899,549.061 629.972,549.542 	"/>
	<polygon points="158.95,246.605 157.987,246.605 156.542,245.16 157.987,244.678 	"/>
	<polygon points="58.292,258.164 60.219,257.682 60.219,259.127 58.774,259.609 	"/>
	<polygon points="705.105,507.16 707.031,506.678 707.513,508.123 705.586,508.123 	"/>
	<rect x="642.494" y="541.836" width="1.926" height="1.445"/>
	<rect x="537.02" y="642.976" width="1.445" height="1.926"/>
	<polygon points="446.958,745.079 443.586,745.079 443.586,744.116 445.994,744.116 	"/>
	<polygon points="141.131,255.756 142.094,255.274 142.575,257.2 141.612,257.682 	"/>
	<polygon points="458.035,669.947 456.108,669.947 456.108,668.502 457.553,668.502 	"/>
	<polygon points="493.675,152.689 494.638,152.208 495.119,153.653 493.675,154.616 	"/>
	<polygon points="245.642,56.848 247.568,56.366 247.568,57.329 246.123,57.811 	"/>
	<rect x="208.557" y="191.219" width="1.445" height="1.445"/>
	<polygon points="738.336,485.969 736.891,485.969 736.41,485.005 737.855,484.524 	"/>
	<polygon points="477.781,647.311 479.226,646.829 479.226,648.274 478.263,648.755 	"/>
	<polygon points="582.292,126.2 583.737,126.2 583.737,127.164 582.292,127.645 	"/>
	<polygon points="236.009,180.142 237.454,179.66 237.454,181.105 236.009,181.105 	"/>
	<polygon points="90.561,601.557 90.561,599.149 91.524,599.149 91.524,600.594 	"/>
	<polygon points="632.38,266.833 630.936,267.314 630.936,266.351 632.38,265.87 	"/>
	<polygon points="125.237,675.726 124.274,674.763 126.682,675.244 	"/>
	<polygon points="411.318,723.406 409.873,723.888 409.873,722.443 	"/>
	<rect x="126.682" y="89.598" width="0.963" height="1.445"/>
	<polygon points="367.972,101.156 369.417,101.156 367.491,102.12 	"/>
	<polygon points="706.068,511.494 704.623,511.976 705.105,510.531 	"/>
	<rect x="82.855" y="596.741" width="1.445" height="0.963"/>
	<polygon points="319.811,102.12 321.256,102.12 320.292,103.083 	"/>
	<polygon points="246.605,117.531 247.568,118.013 246.605,118.976 	"/>
	<rect x="200.851" y="134.87" width="0.963" height="0.963"/>
	<rect x="700.77" y="448.403" width="0.963" height="0.963"/>
	<polygon points="86.226,599.149 86.226,598.667 87.671,598.667 	"/>
	<rect x="495.601" y="666.575" width="0.963" height="0.963"/>
	<rect x="130.053" y="667.539" width="0.963" height="0.963"/>
	<rect x="144.02" y="676.689" width="0.963" height="0.963"/>
	<polygon points="91.524,286.097 92.006,287.061 91.042,287.061 	"/>
</g>
</svg>
